<svg width="40" height="40" viewBox="0 0 74 74" fill="none" xmlns="http://www.w3.org/2000/svg">
    <path d="M36.9997 6.16663C30.4577 6.16663 24.1836 8.76543 19.5577 13.3913C14.9318 18.0172 12.333 24.2913 12.333 30.8333C12.333 47.4833 34.0705 66.2916 34.9955 67.0933C35.554 67.571 36.2648 67.8335 36.9997 67.8335C37.7346 67.8335 38.4453 67.571 39.0038 67.0933C40.083 66.2916 61.6663 47.4833 61.6663 30.8333C61.6663 24.2913 59.0675 18.0172 54.4416 13.3913C49.8157 8.76543 43.5417 6.16663 36.9997 6.16663V6.16663ZM36.9997 60.5875C30.4322 54.4208 18.4997 41.1316 18.4997 30.8333C18.4997 25.9268 20.4488 21.2212 23.9182 17.7518C27.3876 14.2824 32.0932 12.3333 36.9997 12.3333C41.9062 12.3333 46.6117 14.2824 50.0811 17.7518C53.5506 21.2212 55.4997 25.9268 55.4997 30.8333C55.4997 41.1316 43.5672 54.4516 36.9997 60.5875ZM36.9997 18.5C34.5604 18.5 32.1758 19.2233 30.1476 20.5785C28.1194 21.9337 26.5386 23.8599 25.6052 26.1135C24.6717 28.3672 24.4274 30.847 24.9033 33.2394C25.3792 35.6318 26.5538 37.8294 28.2787 39.5543C30.0035 41.2791 32.2011 42.4538 34.5936 42.9296C36.986 43.4055 39.4658 43.1613 41.7194 42.2278C43.9731 41.2943 45.8993 39.7135 47.2545 37.6853C48.6097 35.6571 49.333 33.2726 49.333 30.8333C49.333 27.5623 48.0336 24.4253 45.7207 22.1123C43.4077 19.7994 40.2707 18.5 36.9997 18.5ZM36.9997 37C35.78 37 34.5878 36.6383 33.5737 35.9607C32.5596 35.2831 31.7692 34.32 31.3024 33.1932C30.8357 32.0664 30.7136 30.8265 30.9515 29.6302C31.1894 28.434 31.7768 27.3352 32.6392 26.4728C33.5016 25.6104 34.6004 25.0231 35.7966 24.7851C36.9928 24.5472 38.2327 24.6693 39.3596 25.136C40.4864 25.6028 41.4495 26.3932 42.1271 27.4073C42.8047 28.4214 43.1663 29.6136 43.1663 30.8333C43.1663 32.4688 42.5166 34.0373 41.3602 35.1938C40.2037 36.3503 38.6352 37 36.9997 37Z"
          fill="#D93250"/>
</svg>
