<svg class="svg" width="550" height="620" viewBox="0 0 550 620" fill="none" xmlns="http://www.w3.org/2000/svg">
<g filter="url(#filter0_f_344_896)">
<ellipse cx="275" cy="479" rx="205" ry="71" fill="#3B3334" fill-opacity="0.79"/>
</g>
<circle cx="269.5" cy="262.5" r="262.5" fill="url(#paint0_linear_344_896)"/>
<circle cx="269" cy="262" r="252" fill="url(#paint1_linear_344_896)"/>
<circle cx="269.5" cy="262.5" r="221.5" fill="url(#paint2_linear_344_896)"/>
<circle cx="269.5" cy="260.5" r="210.5" fill="#111111"/>
<mask id="mask0_344_896" style="mask-type:alpha" maskUnits="userSpaceOnUse" x="59" y="50" width="421" height="421">
<circle cx="269.5" cy="260.5" r="210.5" fill="#3B3334"/>
</mask>
<g mask="url(#mask0_344_896)">
<ellipse cx="276" cy="10" rx="332" ry="299" fill="url(#paint3_linear_344_896)" fill-opacity="0.4"/>
</g>
<rect x="266" y="53" width="7" height="39" rx="3.5" fill="white"/>
<rect x="476" y="257" width="7" height="39" rx="3.5" transform="rotate(90 476 257)" fill="white"/>
<rect x="102" y="257" width="7" height="39" rx="3.5" transform="rotate(90 102 257)" fill="white"/>
<rect x="266" y="428" width="7" height="39" rx="3.5" fill="white"/>
<rect x="413.396" y="111.154" width="7" height="39" rx="3.5" transform="rotate(45 413.396 111.154)" fill="white"/>
<rect x="417.639" y="403.896" width="7" height="39" rx="3.5" transform="rotate(135 417.639 403.896)" fill="white"/>
<rect x="153.181" y="139.438" width="7" height="39" rx="3.5" transform="rotate(135 153.181 139.438)" fill="white"/>
<rect x="148.231" y="376.319" width="7" height="39" rx="3.5" transform="rotate(45 148.231 376.319)" fill="white"/>
<rect x="295.62" y="63.7036" width="7" height="20" rx="3.5" transform="rotate(8.61372 295.62 63.7036)" fill="white"/>
<rect x="239.455" y="434.474" width="7" height="20" rx="3.5" transform="rotate(8.61372 239.455 434.474)" fill="white"/>
<rect x="464.158" y="286.458" width="7" height="20" rx="3.5" transform="rotate(98.6137 464.158 286.458)" fill="white"/>
<rect x="95.3652" y="230.593" width="7" height="20" rx="3.5" transform="rotate(98.6137 95.3652 230.593)" fill="white"/>
<rect x="325.445" y="70.0806" width="7" height="20" rx="3.5" transform="rotate(17.4683 325.445 70.0806)" fill="white"/>
<rect x="212.878" y="427.787" width="7" height="20" rx="3.5" transform="rotate(17.4683 212.878 427.787)" fill="white"/>
<rect x="457.687" y="316.124" width="7" height="20" rx="3.5" transform="rotate(107.468 457.687 316.124)" fill="white"/>
<rect x="101.888" y="204.157" width="7" height="20" rx="3.5" transform="rotate(107.468 101.888 204.157)" fill="white"/>
<rect x="356.473" y="82.2227" width="7" height="20" rx="3.5" transform="rotate(27.1401 356.473 82.2227)" fill="white"/>
<rect x="185.41" y="415.933" width="7" height="20" rx="3.5" transform="rotate(27.1401 185.41 415.933)" fill="white"/>
<rect x="445.499" y="346.986" width="7" height="20" rx="3.5" transform="rotate(117.14 445.499 346.986)" fill="white"/>
<rect x="113.568" y="176.835" width="7" height="20" rx="3.5" transform="rotate(117.14 113.568 176.835)" fill="white"/>
<rect x="382.101" y="97.355" width="7" height="20" rx="3.5" transform="rotate(35.7723 382.101 97.355)" fill="white"/>
<rect x="162.889" y="401.61" width="7" height="20" rx="3.5" transform="rotate(35.7723 162.889 401.61)" fill="white"/>
<rect x="430.38" y="372.481" width="7" height="20" rx="3.5" transform="rotate(125.772 430.38 372.481)" fill="white"/>
<rect x="127.748" y="154.438" width="7" height="20" rx="3.5" transform="rotate(125.772 127.748 154.438)" fill="white"/>
<rect x="426.375" y="139.626" width="7" height="20" rx="3.5" transform="rotate(53.6137 426.375 139.626)" fill="white"/>
<rect x="124.486" y="362.086" width="7" height="20" rx="3.5" transform="rotate(53.6137 124.486 362.086)" fill="white"/>
<rect x="388.038" y="416.312" width="7" height="20" rx="3.5" transform="rotate(143.614 388.038 416.312)" fill="white"/>
<rect x="166.765" y="116.034" width="7" height="20" rx="3.5" transform="rotate(143.614 166.765 116.034)" fill="white"/>
<rect x="442.955" y="165.225" width="7" height="20" rx="3.5" transform="rotate(62.4683 442.955 165.225)" fill="white"/>
<rect x="110.422" y="338.565" width="7" height="20" rx="3.5" transform="rotate(62.4683 110.422 338.565)" fill="white"/>
<rect x="362.485" y="432.713" width="7" height="20" rx="3.5" transform="rotate(152.468 362.485 432.713)" fill="white"/>
<rect x="190.07" y="101.953" width="7" height="20" rx="3.5" transform="rotate(152.468 190.07 101.953)" fill="white"/>
<rect x="456.309" y="195.751" width="7" height="20" rx="3.5" transform="rotate(72.1401 456.309 195.751)" fill="white"/>
<rect x="99.3809" y="310.76" width="7" height="20" rx="3.5" transform="rotate(72.1401 99.3809 310.76)" fill="white"/>
<rect x="332.044" y="445.917" width="7" height="20" rx="3.5" transform="rotate(162.14 332.044 445.917)" fill="white"/>
<rect x="217.648" y="90.8921" width="7" height="20" rx="3.5" transform="rotate(162.14 217.648 90.8921)" fill="white"/>
<rect x="463.731" y="224.573" width="7" height="20" rx="3.5" transform="rotate(80.7723 463.731 224.573)" fill="white"/>
<rect x="93.584" y="284.708" width="7" height="20" rx="3.5" transform="rotate(80.7723 93.584 284.708)" fill="white"/>
<rect x="303.326" y="453.255" width="7" height="20" rx="3.5" transform="rotate(170.772 303.326 453.255)" fill="white"/>
<rect x="243.513" y="85.0815" width="7" height="20" rx="3.5" transform="rotate(170.772 243.513 85.0815)" fill="white"/>
<line class="minutes" x1="269.5" y1="116.5" x2="269.5" y2="260.5" stroke="white" stroke-width="7" stroke-linecap="round"/>
<line class="seconds" x1="125.5" y1="261.5" x2="269.5" y2="261.5" stroke="#FF0000" stroke-width="7" stroke-linecap="round"/>
<line class="hours" x1="213.719" y1="359.142" x2="270.219" y2="261.281" stroke="white" stroke-width="7" stroke-linecap="round"/>
<circle cx="269.5" cy="262.5" r="20.5" fill="url(#paint4_radial_344_896)"/>
<defs>
<filter id="filter0_f_344_896" x="0" y="338" width="550" height="282" filterUnits="userSpaceOnUse" color-interpolation-filters="sRGB">
<feFlood flood-opacity="0" result="BackgroundImageFix"/>
<feBlend mode="normal" in="SourceGraphic" in2="BackgroundImageFix" result="shape"/>
<feGaussianBlur stdDeviation="35" result="effect1_foregroundBlur_344_896"/>
</filter>
<linearGradient id="paint0_linear_344_896" x1="269" y1="565" x2="269" y2="2.11336e-06" gradientUnits="userSpaceOnUse">
<stop stop-color="#625E5F"/>
<stop offset="1" stop-color="white"/>
</linearGradient>
<linearGradient id="paint1_linear_344_896" x1="269" y1="10" x2="269" y2="514" gradientUnits="userSpaceOnUse">
<stop stop-color="white"/>
<stop offset="1" stop-color="#98969A"/>
</linearGradient>
<linearGradient id="paint2_linear_344_896" x1="269.5" y1="41" x2="269.5" y2="484" gradientUnits="userSpaceOnUse">
<stop stop-color="#0D0D0D"/>
<stop offset="1" stop-color="#E6E6E6"/>
</linearGradient>
<linearGradient id="paint3_linear_344_896" x1="276" y1="-136.5" x2="276" y2="309" gradientUnits="userSpaceOnUse">
<stop offset="0.28125" stop-color="white" stop-opacity="0.9"/>
<stop offset="1" stop-color="#848484" stop-opacity="0.25"/>
</linearGradient>
<radialGradient id="paint4_radial_344_896" cx="0" cy="0" r="1" gradientUnits="userSpaceOnUse" gradientTransform="translate(269.5 262.5) rotate(90) scale(20.5)">
<stop stop-color="#F7F6F9"/>
<stop offset="0.401042" stop-color="#EDEDEE"/>
<stop offset="0.583333" stop-color="#DFDEE0"/>
<stop offset="1" stop-color="#979797"/>
</radialGradient>
</defs>
</svg>
