<svg width="148" height="165" viewBox="0 0 148 165" fill="none" xmlns="http://www.w3.org/2000/svg">
<g clip-path="url(#clip0_92_531)">
<rect width="148" height="165" fill="url(#paint0_linear_92_531)"/>
<g clip-path="url(#clip1_92_531)">
<path d="M117.589 106.565L114.445 112.011L98.1704 102.615L101.314 97.1691C105.68 89.608 112.792 83.9969 121.234 81.4553C123.254 90.037 121.954 99.004 117.589 106.565Z" fill="#F24125"/>
<path d="M114.444 112.011L59.7567 206.732L56.9741 205.126L63.749 186.491C66.2254 179.668 65.696 172.711 62.3478 168.103C61.9678 167.579 61.6235 167.025 61.3162 166.447L88.9545 118.576L96.9486 104.73L98.1699 102.615L114.444 112.011Z" fill="#E6E6E6"/>
<path opacity="0.25" d="M115.474 83.7666L49.8647 197.405L43.4822 197.336L101.314 97.1692C104.645 91.3994 109.576 86.7672 115.474 83.7666Z" fill="black"/>
<path d="M54.3925 70.0791L51.2485 75.5247L34.9741 66.1287L38.1181 60.683C41.4493 54.9133 46.3805 50.2811 52.2781 47.2805C54.1126 46.347 56.0376 45.5705 58.0378 44.9692C60.0577 53.5509 58.7579 62.518 54.3925 70.0791Z" fill="#F24125"/>
<path d="M42.0326 91.4862L14.3963 139.354C13.7403 139.38 13.0887 139.359 12.4413 139.29C6.7764 138.694 0.486839 141.714 -4.18019 147.272L-16.9348 162.455L-19.714 160.85L34.9736 66.1287L51.248 75.5247L50.0266 77.6401L42.0326 91.4862Z" fill="#E6E6E6"/>
<path opacity="0.25" d="M52.2784 47.2804L-13.3306 160.918L-19.7132 160.85L38.1185 60.6829C41.4496 54.9132 46.3808 50.281 52.2784 47.2804Z" fill="black"/>
<path d="M63.7488 186.491L56.9739 205.126L51.5862 202.015L35.594 192.782L63.0195 145.28C58.8748 152.459 58.2705 160.704 61.316 166.447C61.6233 167.025 61.9677 167.579 62.3476 168.103C65.6958 172.711 66.2253 179.668 63.7488 186.491Z" fill="#B3B3B3"/>
<path d="M108.919 70.9286L73.3155 50.3732C83.2962 42.2872 94.8664 36.1289 107.465 32.3388C110.483 45.1448 110.931 58.2421 108.919 70.9286Z" fill="#F24125"/>
<path d="M88.9548 118.576L61.3165 166.447C58.2709 160.704 58.8752 152.459 63.02 145.28L71.1834 131.14L76.778 121.45C83.1646 110.388 85.0699 97.276 82.1094 84.7256C81.3448 81.4817 77.9596 79.5273 74.768 80.487C68.5979 82.343 62.9076 85.3222 57.9678 89.2215C53.0225 93.1222 48.8261 97.9375 45.6328 103.468L40.0382 113.159L31.8747 127.298C27.732 134.474 20.8903 139.117 14.3969 139.354L42.0332 91.4861L50.0272 77.6401C56.1006 67.1207 64.0178 57.9117 73.3155 50.3731L108.919 70.9285C107.039 82.7499 103.022 94.2109 96.9488 104.73L88.9548 118.576Z" fill="#E6E6E6"/>
<path opacity="0.25" d="M107.465 32.3387L83.3561 56.17L19.4688 166.826L14.3969 139.354L50.0273 77.6401C56.1006 67.1208 64.0179 57.9117 73.3156 50.3731C79.6836 45.2147 99.9492 35.8105 107.465 32.3387Z" fill="black"/>
<path d="M14.3967 139.354C20.8901 139.117 27.7318 134.474 31.8746 127.298L4.44905 174.801L-1.68387 171.26L-16.9343 162.455L-4.17971 147.272C0.48731 141.714 6.77687 138.694 12.4417 139.29C13.0891 139.358 13.7408 139.38 14.3967 139.354Z" fill="#999999"/>
<path d="M20.0194 183.79L4.44857 174.801L31.8741 127.298L40.0376 113.159L45.6322 103.468C48.8255 97.9376 53.0219 93.1223 57.9672 89.2216C62.907 85.3223 68.5973 82.3431 74.7674 80.4871C77.959 79.5273 81.3441 81.4817 82.1088 84.7256C85.0693 97.2761 83.164 110.388 76.7774 121.45L71.1828 131.14L63.0193 145.28L35.5938 192.782L20.0194 183.79Z" fill="#CCCCCC"/>
<path d="M90.6955 119.582L87.2129 117.571L59.5746 165.442L63.0572 167.453L90.6955 119.582Z" fill="#333333"/>
<path d="M98.6903 105.736L95.2077 103.725C101.128 93.47 105.076 82.3209 106.942 70.5871C108.828 58.6982 108.509 46.6982 105.995 34.8858C94.5024 38.6167 83.9497 44.3389 74.5995 51.9145C65.3716 59.3965 57.69 68.3904 51.7691 78.6456L48.2865 76.6349C54.4447 65.9685 62.4338 56.6149 72.032 48.8326C82.3425 40.4793 94.0578 34.2924 106.853 30.4434C107.385 30.283 107.964 30.3518 108.451 30.6327C108.937 30.9136 109.286 31.3806 109.413 31.9215C112.476 44.9209 112.975 58.1593 110.895 71.2693C108.955 83.4738 104.848 95.0695 98.6903 105.736Z" fill="#333333"/>
<path d="M12.6517 138.355L40.292 90.4808L43.7746 92.4915L16.1383 140.359L12.6517 138.355Z" fill="#333333"/>
<path d="M-17.9198 164.161L-20.6989 162.556C-21.6605 162.001 -21.9992 160.787 -21.4553 159.845L36.3763 59.6776C41.0031 51.6638 48.4781 45.767 57.4241 43.0738C57.9559 42.9136 58.5357 42.9822 59.0223 43.2631C59.5088 43.544 59.858 44.0113 59.9853 44.5525C62.1268 53.6507 60.7585 63.0732 56.1333 71.0843L43.7739 92.4915L40.2913 90.4808L52.6507 69.0736C56.4091 62.5638 57.7586 55.0107 56.5291 47.5814C49.4843 50.2308 43.6184 55.1768 39.859 61.6883L-16.9877 160.15L-15.9499 160.749L-17.9198 164.161Z" fill="#333333"/>
<path d="M48.532 68.9701C47.5704 68.415 47.2317 67.2008 47.7756 66.2588C49.7351 62.8648 50.9074 59.1678 51.2599 55.271C51.3584 54.1837 52.33 53.3967 53.4305 53.5134C54.5308 53.6296 55.3436 54.6056 55.245 55.6933C54.8415 60.1553 53.5 64.3865 51.2582 68.2695C50.7143 69.2115 49.4935 69.5253 48.532 68.9701Z" fill="white"/>
<path d="M58.7717 208.439L55.9891 206.832L57.959 203.42L59.0003 204.021L115.847 105.56C119.605 99.05 120.955 91.4969 119.725 84.0676C112.681 86.7171 106.815 91.663 103.055 98.1746L90.6958 119.582L87.2132 117.571L99.5726 96.1638C104.199 88.15 111.674 82.2532 120.62 79.56C121.152 79.3998 121.732 79.4685 122.219 79.7493C122.705 80.0302 123.054 80.4975 123.182 81.0387C125.323 90.1369 123.955 99.5594 119.33 107.571L61.498 207.738C60.9541 208.68 59.7336 208.994 58.7717 208.439Z" fill="#333333"/>
<path d="M55.9894 206.832L34.6095 194.488C33.648 193.933 33.3093 192.719 33.8532 191.777L40.8045 179.737C41.3484 178.795 42.5692 178.481 43.5308 179.036C44.4923 179.591 44.831 180.805 44.2871 181.747L38.3208 192.081L55.8907 202.225L61.8654 185.791C64.1034 179.626 63.6687 173.283 60.731 169.24C60.298 168.642 59.9009 168.006 59.5502 167.345C56.1787 160.987 56.8579 151.932 61.2791 144.275C61.823 143.333 63.0438 143.019 64.0053 143.574C64.9669 144.129 65.3056 145.343 64.7617 146.285C60.9958 152.808 60.3375 160.37 63.0845 165.552C63.3477 166.046 63.6447 166.523 63.9672 166.968C67.7273 172.143 68.351 179.703 65.6339 187.189L58.8587 205.826C58.6597 206.372 58.2261 206.8 57.6725 206.994C57.1189 207.188 56.5031 207.128 55.9894 206.832Z" fill="#333333"/>
<path d="M46.0259 174.714C45.0644 174.159 44.7257 172.945 45.2696 172.003L61.2787 144.274C61.8226 143.332 63.0434 143.019 64.005 143.574C64.9666 144.129 65.3052 145.343 64.7613 146.285L48.7522 174.014C48.2083 174.956 46.9878 175.27 46.0259 174.714Z" fill="#333333"/>
<path d="M107.933 72.6345L90.7128 62.6922C89.7512 62.137 89.4125 60.9229 89.9564 59.9808C90.5003 59.0387 91.7212 58.725 92.6827 59.2801L109.903 69.2224C110.865 69.7776 111.204 70.9917 110.66 71.9338C110.116 72.8759 108.895 73.1898 107.933 72.6345Z" fill="#333333"/>
<path d="M84.9092 59.3414L72.3309 52.0794C71.3694 51.5242 71.0307 50.3101 71.5746 49.368C72.1185 48.4259 73.3393 48.1122 74.3009 48.6673L86.8791 55.9294C87.8407 56.4845 88.1794 57.6987 87.6355 58.6408C87.0916 59.5828 85.8707 59.8966 84.9092 59.3414Z" fill="#333333"/>
<path d="M50.2637 77.2306L43.8905 73.5511C42.929 72.9959 42.5903 71.7818 43.1342 70.8397C43.6781 69.8976 44.8989 69.5839 45.8605 70.139L52.2337 73.8186C53.1952 74.3738 53.5339 75.5879 52.99 76.53C52.4461 77.472 51.2256 77.786 50.2637 77.2306Z" fill="#333333"/>
<path d="M37.8538 70.0662L33.9891 67.8349C33.0276 67.2797 32.6889 66.0656 33.2328 65.1235C33.7767 64.1814 34.9975 63.8677 35.9591 64.4228L39.8238 66.6541C40.7853 67.2093 41.124 68.4234 40.5801 69.3655C40.0362 70.3076 38.8154 70.6213 37.8538 70.0662Z" fill="#333333"/>
<path d="M115.43 110.305L99.1553 100.909L97.1853 104.321L113.46 113.717L115.43 110.305Z" fill="#333333"/>
<path d="M70.462 111.18C70.0162 110.923 69.6669 110.499 69.5189 109.969C68.2835 105.54 63.6541 102.867 59.2002 104.012C58.1353 104.286 57.0333 103.649 56.7376 102.59C56.4422 101.531 57.0659 100.451 58.1306 100.178C64.7106 98.4867 71.5487 102.435 73.3744 108.979C73.6699 110.038 73.0462 111.118 71.9815 111.391C71.4499 111.528 70.9077 111.437 70.462 111.18Z" fill="#333333"/>
<path d="M19.0344 185.496C18.0728 184.941 17.7341 183.727 18.278 182.785L34.0277 155.506C34.5716 154.564 35.7925 154.25 36.754 154.805C37.7156 155.36 38.0542 156.574 37.5103 157.517L21.7607 184.796C21.2168 185.738 19.9959 186.052 19.0344 185.496Z" fill="#333333"/>
<path d="M-25.4603 145.513L-14.5102 151.835L0.263585 126.246L-25.4603 145.513Z" fill="#999999"/>
<path d="M-15.4949 153.541L-26.445 147.219C-27.028 146.882 -27.4071 146.283 -27.4553 145.621C-27.5035 144.959 -27.2143 144.323 -26.685 143.926L-0.961152 124.659C-0.207952 124.095 0.852498 124.142 1.57295 124.772C2.29321 125.401 2.47427 126.439 2.00522 127.251L-12.7686 152.84C-13.3125 153.782 -14.5333 154.096 -15.4949 153.541ZM-21.8568 145.318L-15.2662 149.124L-6.37411 133.722L-21.8568 145.318Z" fill="#333333"/>
<path d="M83.2452 101.136L82.9295 101.104L59.8709 87.7909C64.3514 84.5908 69.3774 82.1107 74.7679 80.487C77.9595 79.5272 81.3447 81.4816 82.1093 84.7255C83.3918 90.161 83.7631 95.7027 83.2452 101.136Z" fill="#999999"/>
<path opacity="0.25" d="M79.7027 81.2527C79.7027 81.2527 71.6334 85.0148 67.4315 92.2927C63.2276 99.574 15.9588 181.446 15.9588 181.446L4.44872 174.801L45.6324 103.468C48.8256 97.9375 53.022 93.1222 57.9673 89.2216C58.5899 88.7303 59.228 88.2525 59.8706 87.7909C64.351 84.5909 69.377 82.1107 74.7675 80.487C76.5091 79.9639 78.3045 80.3045 79.7027 81.2527Z" fill="black"/>
<path d="M3.46376 176.507L-17.9196 164.161C-18.4336 163.864 -18.7924 163.36 -18.9014 162.784C-19.0099 162.208 -18.8565 161.618 -18.4823 161.173L-5.72768 145.99C-0.607536 139.892 6.25084 136.651 12.6179 137.321C13.1674 137.379 13.7258 137.397 14.2804 137.375C20.1494 137.162 26.3694 132.811 30.133 126.293C30.6769 125.351 31.8977 125.037 32.8592 125.592C33.8208 126.147 34.1595 127.361 33.6156 128.303L6.19005 175.806C5.64615 176.748 4.42532 177.062 3.46376 176.507ZM-13.8803 161.944L3.69239 172.089L22.8109 138.975C20.1276 140.401 17.2929 141.231 14.5053 141.333C13.7618 141.363 13.0049 141.338 12.2624 141.259C7.29314 140.736 1.58479 143.531 -2.63237 148.554L-13.8803 161.944Z" fill="#333333"/>
<path d="M64.761 146.285L61.2784 144.274L75.0365 120.445C78.512 114.425 80.6034 107.856 81.2531 100.918C81.7555 95.6482 81.3881 90.3417 80.1615 85.1433C79.9441 84.2193 79.388 83.417 78.5965 82.8827C77.6423 82.2344 76.4719 82.0546 75.3798 82.3826C70.2286 83.9343 65.4105 86.2965 61.0604 89.4035C60.4221 89.8616 59.8056 90.3255 59.2318 90.778C54.4181 94.5746 50.4289 99.1823 47.3741 104.473L33.616 128.303L30.1334 126.292L43.8915 102.463C47.1925 96.7451 51.5033 91.7662 56.7042 87.6641C57.3234 87.1754 57.9874 86.6762 58.6774 86.1806C63.3821 82.8207 68.5879 80.2679 74.1548 78.5913C76.4172 77.9117 78.8444 78.2912 80.814 79.6249C82.4538 80.7313 83.6072 82.3954 84.0575 84.3082C85.383 89.9258 85.7801 95.6617 85.237 101.356C84.5355 108.85 82.2754 115.949 78.5195 122.455L64.761 146.285Z" fill="#333333"/>
<path d="M68.752 95.1932L58.8856 89.4968C57.9241 88.9417 57.5854 87.7275 58.1293 86.7855C58.6732 85.8434 59.894 85.5297 60.8556 86.0848L70.7219 91.7811C71.6835 92.3363 72.0221 93.5504 71.4782 94.4925C70.9343 95.4346 69.7135 95.7483 68.752 95.1932Z" fill="#333333"/>
<path d="M81.9446 102.81L75.7177 99.2146C74.7561 98.6595 74.4174 97.4453 74.9613 96.5033C75.5052 95.5612 76.7261 95.2474 77.6876 95.8026L83.9146 99.3977C84.8761 99.9529 85.2148 101.167 84.6709 102.109C84.127 103.051 82.9062 103.365 81.9446 102.81Z" fill="#333333"/>
<path d="M76.7077 93.9877C76.1543 93.6682 75.7589 93.096 75.6984 92.4206C75.6144 91.4772 75.4966 90.523 75.3499 89.5843C75.18 88.5008 75.9275 87.5021 77.0193 87.3531C78.1111 87.2042 79.1339 87.9621 79.3035 89.0454C79.464 90.0694 79.5922 91.111 79.6843 92.1409C79.7817 93.2317 78.9689 94.1787 77.8683 94.2561C77.4484 94.2853 77.0483 94.1844 76.7077 93.9877Z" fill="white"/>
<path d="M64.3948 131.637C63.4333 131.082 63.0946 129.868 63.6385 128.926L70.1603 117.63C72.4662 113.636 74.0956 109.34 75.0037 104.863C75.2204 103.794 76.2743 103.118 77.3576 103.351C78.4405 103.584 79.144 104.639 78.9272 105.708C77.9361 110.597 76.1582 115.284 73.643 119.64L67.1211 130.937C66.5772 131.879 65.3564 132.193 64.3948 131.637Z" fill="white"/>
<path d="M48.3033 159.509C47.3417 158.954 47.003 157.74 47.5469 156.798L59.3666 136.326C59.9105 135.384 61.1313 135.07 62.0929 135.625C63.0544 136.18 63.3931 137.394 62.8492 138.336L51.0295 158.809C50.4856 159.751 49.2648 160.065 48.3033 159.509Z" fill="white"/>
<path d="M39.8364 174.174C38.8748 173.619 38.5361 172.405 39.08 171.463L43.0199 164.639C43.5638 163.696 44.7846 163.383 45.7462 163.938C46.7077 164.493 47.0464 165.707 46.5025 166.649L42.5626 173.473C42.0187 174.415 40.7979 174.729 39.8364 174.174Z" fill="white"/>
<path d="M111.727 105.456C110.766 104.901 110.427 103.687 110.971 102.745C113.293 98.7235 114.535 94.1417 114.564 89.4954C114.571 88.402 115.473 87.5372 116.578 87.5632C117.682 87.5891 118.573 88.4967 118.566 89.5905C118.532 94.9099 117.111 100.154 114.454 104.756C113.91 105.698 112.689 106.011 111.727 105.456Z" fill="white"/>
<path d="M102.679 44.0526C102.154 43.7496 101.769 43.2184 101.68 42.58C101.559 41.7039 101.423 40.8132 101.275 39.933C101.093 38.8514 101.83 37.8439 102.92 37.6835C104.01 37.5228 105.041 38.2696 105.222 39.3516C105.376 40.2689 105.518 41.1976 105.645 42.1109C105.795 43.197 105.029 44.1823 103.935 44.3119C103.483 44.3651 103.047 44.265 102.679 44.0526Z" fill="white"/>
<path d="M103.282 64.2303C102.627 63.8521 102.21 63.1263 102.272 62.3357C102.635 57.6828 102.642 52.9652 102.292 48.3139C102.211 47.222 103.037 46.2866 104.139 46.2245C105.241 46.1626 106.2 46.9974 106.283 48.0897C106.648 52.9398 106.64 57.8594 106.261 62.7107C106.176 63.7993 105.214 64.5981 104.112 64.4944C103.81 64.4662 103.529 64.3731 103.282 64.2303Z" fill="white"/>
</g>
</g>
<defs>
<linearGradient id="paint0_linear_92_531" x1="74" y1="0" x2="227" y2="390.5" gradientUnits="userSpaceOnUse">
<stop stop-color="#F2E84B"/>
<stop offset="1" stop-color="white" stop-opacity="0"/>
</linearGradient>
<clipPath id="clip0_92_531">
<rect width="148" height="165" fill="white"/>
</clipPath>
<clipPath id="clip1_92_531">
<rect width="182.523" height="178.824" fill="white" transform="translate(29.4121 -15) rotate(30)"/>
</clipPath>
</defs>
</svg>
