<svg width="148" height="150" viewBox="0 0 148 150" fill="none" xmlns="http://www.w3.org/2000/svg">
<g clip-path="url(#clip0_318_627)">
<rect width="148" height="150" fill="url(#paint0_linear_318_627)"/>
<g clip-path="url(#clip1_318_627)">
<path d="M197.349 45.2514C206.562 54.3609 213.964 65.2696 218.95 77.4081C223.591 88.7039 226.144 101.059 226.144 114C226.144 121.003 225.397 127.835 223.97 134.417C219.876 153.387 210.185 170.303 196.688 183.392C190.172 189.717 182.759 195.155 174.662 199.487C160.784 206.929 144.894 211.153 128.01 211.153C126.365 211.153 124.732 211.113 123.11 211.034C92.4743 209.542 65.5368 194.141 48.5944 171.083C36.8222 155.056 29.875 135.328 29.875 114C29.875 112.935 29.8923 111.876 29.9268 110.817C30.6341 89.0227 38.5992 69.0387 51.4987 53.1596C68.0097 32.8339 92.6181 19.2265 120.47 17.1314C122.96 16.9435 125.473 16.8467 128.01 16.8467C150.099 16.8467 170.481 24.0717 186.882 36.2614C190.586 39.0113 194.083 42.0175 197.349 45.2514Z" fill="#F9911E"/>
<path d="M106.477 78.4756H100.514C98.9263 78.4756 97.6387 77.2008 97.6387 75.6288C97.6387 74.0569 98.9263 72.7821 100.514 72.7821H106.477C108.065 72.7821 109.352 74.0569 109.352 75.6288C109.352 77.2008 108.065 78.4756 106.477 78.4756Z" fill="white"/>
<path d="M57.4492 78.4756H54.4673C52.8794 78.4756 51.5918 77.2008 51.5918 75.6288C51.5918 74.0569 52.8794 72.7821 54.4673 72.7821H57.4492C59.037 72.7821 60.3246 74.0569 60.3246 75.6288C60.3246 77.2008 59.0376 78.4756 57.4492 78.4756Z" fill="#4D4D4D"/>
<path d="M122.047 78.4756H116.084C114.497 78.4756 113.209 77.2008 113.209 75.6288C113.209 74.0569 114.497 72.7821 116.084 72.7821H122.047C123.635 72.7821 124.923 74.0569 124.923 75.6288C124.923 77.2008 123.635 78.4756 122.047 78.4756Z" fill="white"/>
<path d="M82.626 67.6535H66.7251C65.1373 67.6535 63.8496 66.3788 63.8496 64.8068C63.8496 63.2348 65.1373 61.9601 66.7251 61.9601H82.626C84.2138 61.9601 85.5014 63.2348 85.5014 64.8068C85.5014 66.3788 84.2138 67.6535 82.626 67.6535Z" fill="#4D4D4D"/>
<path d="M124.366 39.4492H108.465C106.877 39.4492 105.59 38.1744 105.59 36.6025C105.59 35.0305 106.877 33.7557 108.465 33.7557H124.366C125.954 33.7557 127.242 35.0305 127.242 36.6025C127.242 38.1744 125.954 39.4492 124.366 39.4492Z" fill="#4D4D4D"/>
<path d="M98.8579 52.5675H90.2446C88.6568 52.5675 87.3691 51.2927 87.3691 49.7208C87.3691 48.1488 88.6568 46.874 90.2446 46.874H98.8579C100.446 46.874 101.733 48.1488 101.733 49.7208C101.733 51.2927 100.446 52.5675 98.8579 52.5675Z" fill="#4D4D4D"/>
<path d="M131.654 52.5675H128.341C126.753 52.5675 125.466 51.2927 125.466 49.7208C125.466 48.1488 126.753 46.874 128.341 46.874H131.654C133.242 46.874 134.529 48.1488 134.529 49.7208C134.529 51.2927 133.242 52.5675 131.654 52.5675Z" fill="white"/>
<path d="M141.592 52.5675H138.28C136.692 52.5675 135.404 51.2927 135.404 49.7208C135.404 48.1488 136.692 46.874 138.28 46.874H141.592C143.18 46.874 144.468 48.1488 144.468 49.7208C144.468 51.2927 143.18 52.5675 141.592 52.5675Z" fill="#4D4D4D"/>
<path d="M78.6509 52.5681C78.4611 52.5681 78.2771 52.5511 78.0873 52.5112C77.9032 52.4771 77.725 52.4201 77.5524 52.3518C77.3799 52.2778 77.2074 52.1924 77.0521 52.0899C76.8968 51.9817 76.7473 51.8679 76.615 51.7312C76.4828 51.6003 76.362 51.4579 76.2585 51.2985C76.155 51.1448 76.0687 50.9797 75.9939 50.8089C75.9249 50.6381 75.8674 50.4559 75.8329 50.2794C75.7926 50.0915 75.7754 49.9036 75.7754 49.7214C75.7754 48.9699 76.0802 48.2354 76.615 47.7059C76.7473 47.575 76.8968 47.4554 77.0521 47.3529C77.2074 47.2505 77.3742 47.1651 77.5524 47.091C77.725 47.0227 77.9032 46.9658 78.0873 46.9316C79.0247 46.7437 80.0196 47.0455 80.6867 47.7059C80.819 47.8369 80.934 47.9849 81.0433 48.1386C81.1468 48.2924 81.233 48.4575 81.3078 48.634C81.3768 48.8048 81.4343 48.9813 81.4688 49.1635C81.5091 49.3456 81.5263 49.5335 81.5263 49.7214C81.5263 50.473 81.2215 51.2074 80.6867 51.7312C80.1461 52.2664 79.41 52.5681 78.6509 52.5681Z" fill="#4D4D4D"/>
<path d="M95.8773 67.6535H92.896C91.3082 67.6535 90.0205 66.3788 90.0205 64.8068C90.0205 63.2348 91.3082 61.9601 92.896 61.9601H95.8773C97.4651 61.9601 98.7528 63.2348 98.7528 64.8068C98.7528 66.3788 97.4651 67.6535 95.8773 67.6535Z" fill="#4D4D4D"/>
<path d="M150.888 67.6535H144.552C142.964 67.6535 141.677 66.3788 141.677 64.8068C141.677 63.2348 142.964 61.9601 144.552 61.9601H150.888C152.476 61.9601 153.764 63.2348 153.764 64.8068C153.764 66.3788 152.476 67.6535 150.888 67.6535Z" fill="white"/>
<path d="M122.047 119.142H116.084C114.497 119.142 113.209 117.868 113.209 116.296C113.209 114.724 114.497 113.449 116.084 113.449H122.047C123.635 113.449 124.923 114.724 124.923 116.296C124.923 117.868 123.635 119.142 122.047 119.142Z" fill="white"/>
<path d="M43.8674 119.142H37.9048C36.3169 119.142 35.0293 117.868 35.0293 116.296C35.0293 114.724 36.3169 113.449 37.9048 113.449H43.8674C45.4552 113.449 46.7429 114.724 46.7429 116.296C46.7429 117.868 45.4552 119.142 43.8674 119.142Z" fill="#4D4D4D"/>
<path d="M62.4188 132.261H56.4556C54.8677 132.261 53.5801 130.986 53.5801 129.414C53.5801 127.842 54.8677 126.567 56.4556 126.567H62.4182C64.006 126.567 65.2937 127.842 65.2937 129.414C65.2937 130.986 64.0066 132.261 62.4188 132.261Z" fill="#4D4D4D"/>
<path d="M133.31 132.261H127.347C125.759 132.261 124.472 130.986 124.472 129.414C124.472 127.842 125.759 126.567 127.347 126.567H133.31C134.898 126.567 136.186 127.842 136.186 129.414C136.186 130.986 134.898 132.261 133.31 132.261Z" fill="white"/>
<path d="M105.816 146.691H99.853C98.2652 146.691 96.9775 145.416 96.9775 143.844C96.9775 142.272 98.2652 140.997 99.853 140.997H105.816C107.404 140.997 108.691 142.272 108.691 143.844C108.691 145.416 107.404 146.691 105.816 146.691Z" fill="#4D4D4D"/>
<path d="M149.211 146.691H143.248C141.66 146.691 140.372 145.416 140.372 143.844C140.372 142.272 141.66 140.997 143.248 140.997H149.211C150.799 140.997 152.086 142.272 152.086 143.844C152.086 145.416 150.799 146.691 149.211 146.691Z" fill="white"/>
<path d="M98.1954 132.261H88.5884C87.0005 132.261 85.7129 130.986 85.7129 129.414C85.7129 127.842 87.0005 126.567 88.5884 126.567H98.1954C99.7832 126.567 101.071 127.842 101.071 129.414C101.071 130.986 99.7832 132.261 98.1954 132.261Z" fill="#4D4D4D"/>
<path d="M78.9822 119.142H65.0688C63.481 119.142 62.1934 117.868 62.1934 116.296C62.1934 114.724 63.481 113.449 65.0688 113.449H78.9822C80.57 113.449 81.8577 114.724 81.8577 116.296C81.8577 117.868 80.57 119.142 78.9822 119.142Z" fill="#4D4D4D"/>
<path d="M55.5493 119.142C55.3595 119.142 55.1755 119.125 54.9857 119.085C54.8017 119.051 54.6234 118.994 54.4509 118.925C54.2783 118.851 54.1116 118.766 53.9563 118.664C53.7953 118.561 53.6515 118.442 53.5135 118.311C52.9786 117.781 52.6738 117.047 52.6738 116.295C52.6738 116.113 52.6911 115.925 52.7313 115.737C52.7658 115.561 52.8234 115.378 52.8924 115.208C52.9671 115.037 53.0534 114.872 53.1569 114.718C53.2662 114.559 53.3812 114.416 53.5135 114.285C53.6515 114.154 53.7953 114.035 53.9563 113.932C54.1116 113.824 54.2783 113.739 54.4509 113.67C54.6234 113.596 54.8017 113.539 54.9857 113.505C55.9231 113.317 56.918 113.625 57.5851 114.285C57.7174 114.416 57.8382 114.559 57.9417 114.718C58.0452 114.872 58.1315 115.037 58.2063 115.208C58.2753 115.378 58.3328 115.561 58.3673 115.737C58.4075 115.925 58.4248 116.113 58.4248 116.295C58.4248 117.047 58.12 117.781 57.5851 118.311C57.4529 118.442 57.3034 118.561 57.1481 118.664C56.9928 118.766 56.8203 118.851 56.6477 118.925C56.4752 118.994 56.2969 119.051 56.1129 119.085C55.9231 119.125 55.7391 119.142 55.5493 119.142Z" fill="#4D4D4D"/>
<path d="M131.847 119.142C131.088 119.142 130.346 118.84 129.811 118.311C129.276 117.781 128.972 117.047 128.972 116.295C128.972 116.107 128.989 115.925 129.029 115.737C129.064 115.561 129.121 115.378 129.19 115.208C129.259 115.037 129.351 114.872 129.455 114.718C129.558 114.559 129.679 114.416 129.811 114.285C130.478 113.625 131.473 113.317 132.405 113.505C132.589 113.539 132.773 113.596 132.946 113.67C133.118 113.739 133.285 113.824 133.44 113.927C133.601 114.035 133.745 114.154 133.877 114.285C134.01 114.416 134.13 114.559 134.234 114.718C134.337 114.872 134.429 115.037 134.498 115.208C134.573 115.378 134.625 115.561 134.665 115.737C134.7 115.925 134.723 116.107 134.723 116.295C134.723 117.047 134.412 117.781 133.877 118.311C133.745 118.442 133.601 118.561 133.44 118.664C133.285 118.766 133.118 118.851 132.946 118.925C132.773 118.994 132.589 119.051 132.405 119.085C132.221 119.125 132.031 119.142 131.847 119.142Z" fill="white"/>
<path d="M131.652 39.4503C131.468 39.4503 131.278 39.4333 131.094 39.3934C130.91 39.3592 130.726 39.3023 130.554 39.234C130.381 39.16 130.214 39.0746 130.059 38.9721C129.904 38.8639 129.754 38.7444 129.622 38.6134C129.087 38.0839 128.782 37.3551 128.782 36.6036C128.782 36.4157 128.799 36.2278 128.834 36.0457C128.874 35.8635 128.926 35.687 129.001 35.5162C129.07 35.3397 129.162 35.1746 129.265 35.0208C129.369 34.8671 129.49 34.7191 129.622 34.5881C129.754 34.4572 129.904 34.3376 130.059 34.2351C130.214 34.1326 130.381 34.0472 130.554 33.9732C130.726 33.9049 130.91 33.848 131.094 33.8138C131.462 33.7398 131.847 33.7398 132.216 33.8138C132.4 33.848 132.584 33.9049 132.756 33.9732C132.929 34.0472 133.095 34.1326 133.251 34.2351C133.406 34.3376 133.556 34.4572 133.688 34.5881C133.82 34.7191 133.941 34.8671 134.044 35.0208C134.148 35.1746 134.24 35.3397 134.309 35.5162C134.384 35.687 134.435 35.8635 134.476 36.0457C134.51 36.2278 134.527 36.4157 134.527 36.6036C134.527 37.3551 134.223 38.0839 133.688 38.6134C133.556 38.7444 133.406 38.8639 133.251 38.9721C133.095 39.0746 132.929 39.16 132.756 39.234C132.584 39.3023 132.4 39.3592 132.216 39.3934C132.032 39.4333 131.842 39.4503 131.652 39.4503Z" fill="#4D4D4D"/>
<path d="M137.286 90.6101H131.323C129.735 90.6101 128.447 89.3353 128.447 87.7634C128.447 86.1914 129.735 84.9166 131.323 84.9166H137.286C138.874 84.9166 140.161 86.1914 140.161 87.7634C140.161 89.3353 138.874 90.6101 137.286 90.6101Z" fill="white"/>
<path d="M91.2385 90.6101H85.2759C83.688 90.6101 82.4004 89.3353 82.4004 87.7634C82.4004 86.1914 83.688 84.9166 85.2759 84.9166H91.2385C92.8263 84.9166 94.114 86.1914 94.114 87.7634C94.114 89.3353 92.8269 90.6101 91.2385 90.6101Z" fill="#4D4D4D"/>
<path d="M76.6382 102.414C76.4484 102.414 76.2586 102.397 76.0746 102.363C75.8906 102.323 75.7123 102.272 75.534 102.198C75.3615 102.13 75.1947 102.039 75.0394 101.936C74.8841 101.834 74.7346 101.714 74.6023 101.583C74.4701 101.452 74.3493 101.304 74.2458 101.15C74.1423 100.997 74.0502 100.832 73.9812 100.661C73.9065 100.484 73.8547 100.308 73.8145 100.126C73.7799 99.9435 73.7627 99.7556 73.7627 99.5677C73.7627 99.3855 73.7799 99.1976 73.8145 99.0154C73.8547 98.8332 73.9065 98.651 73.9812 98.4802C74.0502 98.3094 74.1423 98.1443 74.2458 97.9906C74.3493 97.8369 74.4701 97.6888 74.6023 97.5579C74.7346 97.4269 74.8841 97.3074 75.0394 97.2049C75.1947 97.1024 75.3615 97.0113 75.534 96.943C75.7123 96.869 75.8906 96.8177 76.0746 96.7779C77.012 96.5957 78.0012 96.8975 78.6683 97.5579C78.8006 97.6888 78.9213 97.8369 79.0248 97.9906C79.1284 98.1443 79.2204 98.3094 79.2894 98.4802C79.3641 98.651 79.4159 98.8332 79.4562 99.0154C79.4907 99.1976 79.5137 99.3855 79.5137 99.5677C79.5137 99.7556 79.4907 99.9435 79.4562 100.126C79.4159 100.308 79.3641 100.484 79.2894 100.661C79.2204 100.832 79.1284 100.997 79.0248 101.15C78.9213 101.304 78.8006 101.452 78.6683 101.583C78.536 101.714 78.3922 101.834 78.2312 101.936C78.0759 102.039 77.9091 102.13 77.7366 102.198C77.5641 102.272 77.3801 102.323 77.196 102.363C77.012 102.397 76.8222 102.414 76.6382 102.414Z" fill="#4D4D4D"/>
<path d="M62.0871 102.417H56.1245C54.5367 102.417 53.249 101.142 53.249 99.5699C53.249 97.9979 54.5367 96.7231 56.1245 96.7231H62.0871C63.675 96.7231 64.9626 97.9979 64.9626 99.5699C64.9626 101.142 63.6755 102.417 62.0871 102.417Z" fill="#4D4D4D"/>
<path opacity="0.25" d="M136.411 205.866C124.932 201.852 114.431 195.778 105.367 188.097C84.3245 170.277 70.9879 143.802 70.9879 114.241C70.9879 88.0287 81.4777 64.2357 98.5236 46.7625C107.915 37.1348 119.296 29.4202 132.012 24.2733C137.314 22.1297 142.85 20.437 148.567 19.2306C141.937 17.8311 135.062 17.0881 128.011 17.0881C114.875 17.0881 102.35 19.6445 90.8995 24.2733C78.1841 29.4202 66.803 37.1348 57.4116 46.7625C40.3658 64.2357 29.876 88.0287 29.876 114.241C29.876 143.802 43.2125 170.277 64.2553 188.097C73.3188 195.778 83.8201 201.852 95.299 205.866C105.53 209.448 116.543 211.395 128.011 211.395C135.058 211.395 141.933 210.655 148.561 209.256C144.408 208.379 140.351 207.245 136.411 205.866Z" fill="black"/>
<path d="M128.01 214C72.3131 214 27 169.14 27 114C27 58.8599 72.3131 14 128.01 14C183.707 14 229.02 58.8599 229.02 114C229.02 169.14 183.707 214 128.01 214ZM128.01 19.6935C75.4842 19.6935 32.751 61.9993 32.751 114C32.751 166.001 75.4842 208.307 128.01 208.307C180.536 208.307 223.269 166.001 223.269 114C223.269 61.9993 180.536 19.6935 128.01 19.6935Z" fill="#333333"/>
</g>
</g>
<defs>
<linearGradient id="paint0_linear_318_627" x1="114" y1="30.6818" x2="4.7364" y2="256.512" gradientUnits="userSpaceOnUse">
<stop stop-color="#F2E84B"/>
<stop offset="1" stop-color="white" stop-opacity="0"/>
</linearGradient>
<clipPath id="clip0_318_627">
<rect width="148" height="150" fill="white"/>
</clipPath>
<clipPath id="clip1_318_627">
<rect width="202.02" height="200" fill="white" transform="translate(27 14)"/>
</clipPath>
</defs>
</svg>
