<svg width="815" height="815" viewBox="0 0 815 815" fill="none" xmlns="http://www.w3.org/2000/svg">
<circle cx="407.5" cy="407.5" r="407.5" fill="url(#paint0_radial_356_863)"/>
<path d="M779.206 406.782C779.206 612.012 612.833 778.385 407.603 778.385C202.372 778.385 36 612.012 36 406.782C36 201.551 202.372 424.731 407.603 424.731C612.833 424.731 779.206 201.551 779.206 406.782Z" fill="#024C8B"/>
<path d="M356.77 545.393C356.77 599.729 312.722 643.778 258.385 643.778C204.048 643.778 160 599.729 160 545.393C160 491.056 204.048 531.5 258.385 531.5C312.722 531.5 356.77 491.056 356.77 545.393Z" fill="#0076DB"/>
<ellipse cx="264.817" cy="582.235" rx="37.2268" ry="37.2268" fill="#A6D6FF"/>
<ellipse cx="225.596" cy="569.605" rx="24.5963" ry="24.5962" fill="#DEF0FF"/>
<path d="M656.77 545.364C656.77 599.701 612.722 643.749 558.385 643.749C504.048 643.749 460 599.701 460 545.364C460 491.028 504.048 531.471 558.385 531.471C612.722 531.471 656.77 491.028 656.77 545.364Z" fill="#0076DB"/>
<ellipse cx="560.817" cy="582.227" rx="37.2268" ry="37.2268" fill="#A6D6FF"/>
<ellipse cx="521.596" cy="569.596" rx="24.5963" ry="24.5962" fill="#DEF0FF"/>
<defs>
<radialGradient id="paint0_radial_356_863" cx="0" cy="0" r="1" gradientUnits="userSpaceOnUse" gradientTransform="translate(1362.1 14.6248) rotate(-173.986) scale(1173.78 1647.93)">
<stop offset="0.307039" stop-color="#BBBBBB"/>
<stop offset="0.9999" stop-color="white"/>
<stop offset="1" stop-color="white"/>
</radialGradient>
</defs>
</svg>
