<svg width="159" height="162" viewBox="0 0 159 162" fill="none" xmlns="http://www.w3.org/2000/svg">
<g clip-path="url(#clip0_92_429)" filter="url(#filter0_d_92_429)">
<rect width="147" height="150" transform="translate(5 5)" fill="url(#paint0_linear_92_429)"/>
<g clip-path="url(#clip1_92_429)">
<path d="M82.6369 93.0639C103.199 112.246 128.603 119.716 139.717 109.939C126.539 122.046 108.519 126.722 91.8054 123.907C85.0557 122.777 78.5162 120.42 72.5988 116.833C69.5742 115.01 66.7145 112.861 64.069 110.393C62.1281 108.582 60.3686 106.659 58.7986 104.652C43.6427 85.2974 45.6248 57.7415 64.5511 39.8092C54.0722 50.1787 62.0787 73.8782 82.6369 93.0639Z" fill="#F73E3E"/>
<path opacity="0.25" d="M133.065 115.164C120.822 123.346 105.852 126.272 91.8044 123.907C85.0547 122.777 78.5151 120.42 72.5978 116.833C69.5732 115.01 66.7135 112.861 64.068 110.393C62.1271 108.582 60.3676 106.659 58.7976 104.652C45.2982 87.412 45.3971 63.6702 58.9542 46.0148C54.6357 62.2784 57.8869 79.807 68.7573 93.6868C70.5746 96.0091 72.6102 98.2314 74.856 100.327C77.9176 103.184 81.2266 105.671 84.725 107.778C91.5695 111.931 99.1351 114.656 106.948 115.964C115.564 117.413 124.477 117.144 133.065 115.164Z" fill="black"/>
<path d="M122.258 56.0998C143.014 75.4662 150.975 99.4425 140.035 109.651C139.927 109.751 139.824 109.847 139.717 109.939C128.604 119.716 103.2 112.246 82.6374 93.064C62.0792 73.8783 54.0727 50.1787 64.5516 39.8092C64.6505 39.7093 64.7535 39.6132 64.8607 39.5132C75.8011 29.3052 101.498 36.7295 122.258 56.0998ZM112.607 77.4232C116.254 74.0205 116.254 68.507 112.607 65.1044C108.96 61.7017 103.047 61.7017 99.4004 65.1044C95.7536 68.507 95.7536 74.0205 99.4004 77.4232C103.047 80.8259 108.96 80.8259 112.607 77.4232Z" fill="#FCBC1D"/>
<path opacity="0.25" d="M122.257 56.1001C101.497 36.7299 75.8001 29.3055 64.8597 39.5136C64.7525 39.6135 64.6495 39.7096 64.5506 39.8096C61.5302 42.797 60.0467 46.8918 59.9561 51.6632C72.6025 51.4479 89.6951 59.1645 104.336 72.8251C118.973 86.482 127.247 102.43 127.016 114.226C132.13 114.138 136.515 112.754 139.716 109.939C139.823 109.847 139.926 109.751 140.034 109.651C150.974 99.4429 143.013 75.4662 122.257 56.1001Z" fill="black"/>
<path d="M110.241 165.124H72.5986V116.833C78.516 120.42 85.0555 122.777 91.8052 123.907L99.3667 140.813L110.241 165.124Z" fill="#4A7984"/>
<path d="M72.5987 116.836V165.124H31.7461L58.7985 104.652C60.3685 106.659 62.128 108.582 64.0688 110.393C66.7143 112.861 69.5741 115.01 72.5987 116.833V116.836Z" fill="#23464F"/>
<path d="M112.607 65.1044C116.254 68.507 116.254 74.0205 112.607 77.4232C108.96 80.8259 103.047 80.8259 99.4002 77.4232C95.7533 74.0205 95.7533 68.507 99.4002 65.1044C103.047 61.7017 108.96 61.7017 112.607 65.1044Z" fill="#F24125"/>
<path d="M126.458 116.169C113.279 116.169 96.0856 108.328 81.1802 94.4238C59.6368 74.3185 51.6744 49.7496 63.0525 38.4904C63.8333 37.718 65.1363 37.6819 65.965 38.4105C66.7928 39.1387 66.8312 40.3556 66.0503 41.128C61.5142 45.6168 60.7572 53.2246 63.9195 62.5506C67.2226 72.2922 74.3873 82.646 84.094 91.7048C93.8024 100.761 104.899 107.446 115.342 110.528C125.337 113.479 133.493 112.773 138.304 108.54C139.132 107.812 140.436 107.848 141.216 108.62C141.997 109.393 141.958 110.61 141.13 111.338C137.41 114.611 132.333 116.169 126.458 116.169Z" fill="#333333"/>
<path d="M140.033 111.573C139.506 111.573 138.979 111.385 138.577 111.01C137.772 110.259 137.772 109.042 138.577 108.291C143.301 103.884 144.184 96.2789 141.063 86.8787C137.803 77.0575 130.607 66.6096 120.8 57.4596C110.992 48.3086 99.7932 41.5932 89.2665 38.5515C79.1922 35.6406 71.0419 36.4646 66.3167 40.8731C65.5128 41.6236 64.2073 41.6236 63.4034 40.8731C62.5986 40.1222 62.5986 38.9049 63.4034 38.1544C69.261 32.6886 78.8795 31.5247 90.4858 34.879C101.641 38.1025 113.442 45.1562 123.714 54.741C133.986 64.3246 141.545 75.3343 145 85.7414C148.595 96.5708 147.349 105.545 141.491 111.01C141.088 111.385 140.561 111.573 140.033 111.573Z" fill="#333333"/>
<path d="M99.3667 140.813C96.8283 140.728 94.3023 140.478 91.8052 140.055C85.0555 138.925 78.516 136.568 72.5986 132.981V116.833C78.516 120.42 85.0555 122.777 91.8052 123.907L99.3667 140.813Z" fill="#23464F"/>
<path d="M101.309 126.623C98.0221 126.623 94.721 126.352 91.4389 125.799C84.259 124.597 77.5414 122.122 71.4757 118.445C68.309 116.537 65.3252 114.284 62.6117 111.752C60.6198 109.894 58.7766 107.886 57.1336 105.786C49.4671 95.9948 45.8104 83.8355 46.8393 71.5479C47.8765 59.1617 53.6368 47.4196 63.0617 38.4804C63.1684 38.3735 63.2788 38.2697 63.3942 38.1621C64.1973 37.4104 65.5061 37.4062 66.3117 38.1559C67.1169 38.906 67.1218 40.1195 66.3183 40.8711C66.2251 40.958 66.1427 41.0345 66.0636 41.1145C66.0492 41.1291 66.0343 41.1437 66.0191 41.1579C57.2622 49.4547 51.9102 60.3536 50.9481 71.8466C49.9958 83.2192 53.3752 94.4673 60.4623 103.518C61.9808 105.459 63.6839 107.315 65.5259 109.033C68.0341 111.373 70.7896 113.454 73.7166 115.217C79.324 118.617 85.531 120.903 92.1695 122.015C108.818 124.818 126.055 119.792 138.271 108.569C138.287 108.554 138.303 108.54 138.32 108.526C138.406 108.451 138.489 108.373 138.576 108.292C139.379 107.54 140.684 107.539 141.489 108.289C142.294 109.04 142.296 110.257 141.492 111.008C141.374 111.119 141.259 111.226 141.14 111.328C130.379 121.205 116.005 126.622 101.309 126.623Z" fill="#333333"/>
<path d="M106.003 81.8927C103.084 81.8927 100.165 80.8561 97.9429 78.7826C93.4995 74.6367 93.4995 67.891 97.9429 63.7451C102.387 59.5985 109.619 59.5985 114.063 63.7451C118.507 67.891 118.507 74.6367 114.063 78.7826C111.842 80.8561 108.922 81.8927 106.003 81.8927ZM106.003 64.4779C104.14 64.4779 102.275 65.14 100.857 66.4638C98.0203 69.1106 98.0203 73.4172 100.857 76.0639C103.695 78.7115 108.312 78.7119 111.15 76.0639C113.986 73.4172 113.986 69.1106 111.15 66.4638C109.731 65.14 107.868 64.4779 106.003 64.4779Z" fill="#333333"/>
<path d="M108.819 75.8114C108.292 75.8114 107.764 75.6238 107.362 75.2482C106.558 74.4973 106.558 73.28 107.362 72.5295C107.731 72.1862 107.925 71.7486 107.925 71.2642C107.925 70.7797 107.73 70.3418 107.362 69.9984C106.994 69.6547 106.525 69.4732 106.004 69.4732C104.866 69.4732 103.943 68.6124 103.943 67.5508C103.943 66.4893 104.866 65.6284 106.004 65.6284C107.617 65.6284 109.135 66.2148 110.276 67.2794C111.417 68.3444 112.046 69.7593 112.046 71.2638C112.046 72.7686 111.417 74.1835 110.276 75.2482C109.873 75.6234 109.346 75.8114 108.819 75.8114Z" fill="white"/>
<path d="M31.7456 167.047C31.4807 167.047 31.212 166.999 30.9528 166.898C29.9025 166.489 29.4067 165.363 29.8452 164.384L56.8976 103.912C57.3356 102.932 58.5438 102.47 59.5925 102.879C60.6429 103.288 61.1386 104.413 60.7001 105.393L33.6478 165.865C33.3177 166.602 32.5521 167.047 31.7456 167.047Z" fill="#333333"/>
<path d="M110.242 167.047C109.435 167.047 108.67 166.602 108.34 165.864L89.9035 124.648C89.4655 123.668 89.9612 122.542 91.0112 122.133C92.0607 121.724 93.2681 122.187 93.7061 123.167L112.142 164.383C112.58 165.363 112.084 166.489 111.034 166.898C110.775 166.999 110.506 167.047 110.242 167.047Z" fill="#333333"/>
<path d="M72.5984 167.046C71.4603 167.046 70.5381 166.186 70.5381 165.124V116.837C70.5381 115.775 71.4603 114.914 72.5984 114.914C73.7366 114.914 74.6588 115.775 74.6588 116.837V165.124C74.6588 166.186 73.7361 167.046 72.5984 167.046Z" fill="#333333"/>
<path d="M83.2575 94.4089C82.7305 94.4089 82.2026 94.2212 81.8008 93.846C80.9961 93.0951 80.9961 91.8778 81.8008 91.1273L97.9428 76.0659C98.7468 75.3154 100.052 75.3154 100.856 76.0659C101.661 76.8168 101.661 78.0341 100.856 78.7846L84.7142 93.846C84.312 94.2208 83.7845 94.4089 83.2575 94.4089Z" fill="#333333"/>
<path d="M63.5076 69.0479C62.4263 69.0479 61.5189 68.2621 61.453 67.2413C61.3846 66.1816 62.25 65.2708 63.3852 65.2066L99.2757 63.1842C100.407 63.1158 101.388 63.9274 101.457 64.987C101.525 66.0467 100.66 66.9575 99.5246 67.0217L63.6341 69.0441C63.5917 69.0468 63.5496 69.0479 63.5076 69.0479Z" fill="#333333"/>
<path d="M110.439 112.835C110.397 112.835 110.355 112.834 110.313 112.832C109.177 112.768 108.312 111.857 108.381 110.797L110.549 77.3094C110.617 76.2497 111.598 75.4388 112.73 75.5065C113.865 75.5707 114.73 76.4816 114.662 77.5412L112.494 111.029C112.428 112.049 111.52 112.835 110.439 112.835Z" fill="#333333"/>
<path d="M96.1935 149.893C95.3871 149.893 94.6214 149.448 94.2914 148.71L93.1281 146.109C92.6901 145.129 93.1862 144.003 94.2357 143.594C95.2873 143.186 96.4926 143.648 96.9307 144.628L98.0939 147.229C98.532 148.209 98.0358 149.335 96.9863 149.744C96.7267 149.845 96.458 149.893 96.1935 149.893Z" fill="white"/>
<path d="M100.982 160.599C100.176 160.599 99.4099 160.154 99.0799 159.416L96.7092 154.116C96.2712 153.136 96.7669 152.01 97.8169 151.601C98.8668 151.192 100.074 151.656 100.512 152.635L102.882 157.935C103.32 158.915 102.825 160.041 101.775 160.449C101.515 160.551 101.246 160.599 100.982 160.599Z" fill="white"/>
</g>
</g>
<defs>
<filter id="filter0_d_92_429" x="0" y="0" width="159" height="162" filterUnits="userSpaceOnUse" color-interpolation-filters="sRGB">
<feFlood flood-opacity="0" result="BackgroundImageFix"/>
<feColorMatrix in="SourceAlpha" type="matrix" values="0 0 0 0 0 0 0 0 0 0 0 0 0 0 0 0 0 0 127 0" result="hardAlpha"/>
<feMorphology radius="2" operator="dilate" in="SourceAlpha" result="effect1_dropShadow_92_429"/>
<feOffset dx="1" dy="1"/>
<feGaussianBlur stdDeviation="2"/>
<feComposite in2="hardAlpha" operator="out"/>
<feColorMatrix type="matrix" values="0 0 0 0 0 0 0 0 0 0 0 0 0 0 0 0 0 0 0.28 0"/>
<feBlend mode="normal" in2="BackgroundImageFix" result="effect1_dropShadow_92_429"/>
<feBlend mode="normal" in="SourceGraphic" in2="effect1_dropShadow_92_429" result="shape"/>
</filter>
<linearGradient id="paint0_linear_92_429" x1="5.11997e-07" y1="88.6364" x2="22.3556" y2="185.815" gradientUnits="userSpaceOnUse">
<stop stop-color="white"/>
<stop offset="1" stop-color="white" stop-opacity="0"/>
</linearGradient>
<clipPath id="clip0_92_429">
<rect width="147" height="150" fill="white" transform="translate(5 5)"/>
</clipPath>
<clipPath id="clip1_92_429">
<rect width="147" height="145" fill="white" transform="translate(5 33)"/>
</clipPath>
</defs>
</svg>
