<svg width="147" height="150" viewBox="0 0 147 150" fill="none" xmlns="http://www.w3.org/2000/svg">
<g clip-path="url(#clip0_92_501)">
<rect width="147" height="150" fill="url(#paint0_linear_92_501)"/>
<g clip-path="url(#clip1_92_501)">
<path d="M98.7197 122.458C103.533 119.212 107.8 115.194 111.355 110.56C118.505 101.253 122.766 89.5062 122.766 76.741C122.766 46.5505 98.9198 22.0729 69.5084 22.0729C40.0902 22.0729 16.251 46.5505 16.251 76.741C16.251 89.4719 20.4916 101.185 27.5948 110.478C31.1631 115.138 35.4505 119.191 40.29 122.45" fill="#CAF5FF"/>
<path d="M40.2881 124.353C39.9393 124.353 39.5865 124.252 39.2733 124.041C34.2707 120.672 29.8515 116.504 26.1375 111.653C18.4568 101.604 14.3975 89.5324 14.3975 76.7406C14.3975 45.5476 39.1199 20.1703 69.5079 20.1703C86.3566 20.1703 102.059 27.9296 112.588 41.4591C113.227 42.2797 113.097 43.4769 112.297 44.1324C111.497 44.7886 110.331 44.6543 109.692 43.8334C99.8704 31.2128 85.2236 23.9746 69.5079 23.9746C41.1635 23.9746 18.1036 47.6453 18.1036 76.7406C18.1036 88.6722 21.8895 99.9324 29.0524 109.304C32.517 113.829 36.6401 117.717 41.3061 120.86C42.1619 121.436 42.4006 122.615 41.8391 123.494C41.4833 124.051 40.8914 124.353 40.2881 124.353Z" fill="#333333"/>
<path d="M98.7212 124.36C98.1182 124.36 97.5267 124.058 97.1709 123.502C96.6087 122.624 96.8466 121.444 97.702 120.868C102.357 117.728 106.461 113.864 109.899 109.383C117.104 100.004 120.912 88.7168 120.912 76.741C120.912 67.7346 118.663 58.8446 114.409 51.0327C113.909 50.1159 114.229 48.9567 115.122 48.4443C116.015 47.9318 117.144 48.2594 117.643 49.1762C122.207 57.5542 124.619 67.086 124.619 76.741C124.619 89.58 120.535 101.682 112.81 111.738C109.125 116.541 104.727 120.682 99.7375 124.047C99.4235 124.259 99.0703 124.36 98.7212 124.36Z" fill="#333333"/>
<path d="M57.6678 33.2059C56.8514 33.2059 56.1038 32.6478 55.8803 31.8006C55.6128 30.7864 56.1968 29.7421 57.1845 29.4674C61.182 28.3561 65.3281 27.7927 69.5079 27.7927C72.0582 27.7927 74.6184 28.0042 77.1167 28.4216C78.127 28.5901 78.8123 29.5678 78.6481 30.6045C78.4839 31.6412 77.5325 32.3465 76.5215 32.1765C74.2192 31.7919 71.8595 31.5971 69.5079 31.5971C65.655 31.5971 61.8347 32.116 58.1533 33.1397C57.991 33.1843 57.8279 33.2059 57.6678 33.2059Z" fill="white"/>
<path d="M114.678 77.9633C113.655 77.9633 112.825 77.1115 112.825 76.0612C112.825 66.9147 110.14 58.1293 105.062 50.6553C100.096 43.3479 93.2121 37.7913 85.1538 34.5853C84.1994 34.2057 83.7254 33.1039 84.0956 32.1243C84.4655 31.1447 85.5388 30.6585 86.4932 31.0382C95.2412 34.518 102.714 40.549 108.102 48.4792C113.617 56.5947 116.532 66.1326 116.532 76.0612C116.531 77.1115 115.702 77.9633 114.678 77.9633Z" fill="white"/>
<path d="M35.7394 99.798C40.9129 99.798 45.1068 95.493 45.1068 90.1825C45.1068 84.872 40.9129 80.567 35.7394 80.567C30.566 80.567 26.3721 84.872 26.3721 90.1825C26.3721 95.493 30.566 99.798 35.7394 99.798Z" fill="#F9E33D"/>
<path d="M103.277 99.798C108.45 99.798 112.644 95.493 112.644 90.1825C112.644 84.872 108.45 80.567 103.277 80.567C98.1031 80.567 93.9092 84.872 93.9092 90.1825C93.9092 95.493 98.1031 99.798 103.277 99.798Z" fill="#F9E33D"/>
<path d="M35.74 101.7C29.5529 101.7 24.5195 96.5332 24.5195 90.1826C24.5195 83.832 29.5533 78.6649 35.74 78.6649C41.9267 78.6649 46.9604 83.8316 46.9604 90.1826C46.9604 96.5336 41.9271 101.7 35.74 101.7ZM35.74 82.4693C31.5965 82.4693 28.2257 85.9293 28.2257 90.1826C28.2257 94.4359 31.5968 97.8959 35.74 97.8959C39.8831 97.8959 43.2543 94.4355 43.2543 90.1826C43.2543 85.9297 39.8835 82.4693 35.74 82.4693Z" fill="#666666"/>
<path d="M103.277 101.7C97.09 101.7 92.0566 96.5332 92.0566 90.1826C92.0566 83.832 97.09 78.6649 103.277 78.6649C109.464 78.6649 114.498 83.8316 114.498 90.1826C114.498 96.5336 109.464 101.7 103.277 101.7ZM103.277 82.4693C99.1336 82.4693 95.7628 85.9293 95.7628 90.1826C95.7628 94.4359 99.1336 97.8959 103.277 97.8959C107.421 97.8959 110.791 94.4355 110.791 90.1826C110.791 85.9297 107.42 82.4693 103.277 82.4693Z" fill="#666666"/>
<path d="M66.5393 129.04C48.455 129.04 33.7422 113.937 33.7422 95.3743V83.719C33.7422 65.1556 48.455 50.0535 66.5393 50.0535H72.4732C90.5575 50.0535 105.27 65.156 105.27 83.719V95.3743C105.27 113.938 90.5575 129.04 72.4732 129.04H66.5393Z" fill="#8FCDF7"/>
<path d="M95.3392 86.1801V97.2024C95.3392 110.254 85.0271 120.84 72.312 120.84H66.7001C53.9849 120.84 43.6729 110.254 43.6729 97.2024V86.1801C43.6729 73.1281 53.9849 62.5428 66.7001 62.5428H72.312C85.0275 62.5428 95.3392 73.1281 95.3392 86.1801Z" fill="#D8B86F"/>
<path d="M87.1307 86.1801V97.2024C87.1307 110.254 80.0952 120.84 71.4202 120.84H67.5913C58.9163 120.84 51.8809 110.254 51.8809 97.2024V86.1801C51.8809 73.1281 58.9163 62.5428 67.5913 62.5428H71.4202C80.0952 62.5428 87.1307 73.1281 87.1307 86.1801Z" fill="#F7D789"/>
<path d="M135.396 137.226C130.155 128.714 126.462 124.098 126.462 124.098C125.315 122.507 124.056 120.992 122.701 119.575L110.124 110.33C107.796 109.197 105.359 108.259 102.814 107.549H102.81C102.005 125.711 87.4061 140.185 69.5049 140.185C51.6081 140.185 37.0095 125.711 36.2045 107.549C33.6684 108.26 31.2186 109.197 28.8726 110.339L16.2994 119.584C14.9488 120.997 13.7025 122.499 12.5383 124.098C12.5383 124.098 8.84218 128.718 3.60943 137.226C1.26379 141.038 -1.38501 145.623 -4.14648 150.927H143.147C140.386 145.618 137.733 141.033 135.396 137.226Z" fill="#44A1E0"/>
<path d="M128.895 137.226C128.869 137.182 128.852 137.142 128.826 137.102C125.393 131.526 121.295 126.421 116.642 121.872L104.839 110.329C104.134 109.929 103.42 109.561 102.693 109.228C92.8031 130.5 57.5203 146.902 36.3169 109.228C35.5897 109.57 34.8711 109.939 34.1658 110.334L22.3631 121.872C17.7104 126.421 13.6032 131.526 10.1709 137.102C10.1535 137.142 10.1276 137.182 10.0972 137.226C7.75116 141.033 5.10273 145.623 2.3457 150.927H136.655C133.894 145.623 131.245 141.033 128.895 137.226Z" fill="#53AEF9"/>
<path d="M72.4728 130.942H66.5388C47.4327 130.942 31.8887 114.987 31.8887 95.3743V83.7185C31.8887 64.1063 47.4327 48.1509 66.5388 48.1509H72.4728C91.5788 48.1509 107.123 64.1063 107.123 83.7185V95.3743C107.123 114.987 91.5788 130.942 72.4728 130.942ZM66.5388 51.9552C49.4763 51.9552 35.5948 66.2044 35.5948 83.7185V95.3743C35.5948 112.889 49.4763 127.138 66.5388 127.138H72.4728C89.5353 127.138 103.417 112.888 103.417 95.3743V83.7185C103.417 66.2041 89.5353 51.9552 72.4728 51.9552H66.5388Z" fill="#666666"/>
<path d="M72.3119 122.742H66.6996C52.9805 122.742 41.8193 111.285 41.8193 97.2024V86.18C41.8193 72.0974 52.9805 60.6406 66.6996 60.6406H72.3119C86.031 60.6406 97.1922 72.0974 97.1922 86.18V97.2024C97.1922 111.285 86.031 122.742 72.3119 122.742ZM66.7 64.445C55.0248 64.445 45.5259 74.1952 45.5259 86.18V97.2024C45.5259 109.187 55.0244 118.937 66.7 118.937H72.3119C83.9871 118.937 93.486 109.187 93.486 97.2024V86.18C93.486 74.1955 83.9875 64.445 72.3119 64.445H66.7Z" fill="#666666"/>
<path d="M62.692 95.8244C61.6687 95.8244 60.8389 94.9726 60.8389 93.9223V80.6516C60.8389 79.6012 61.6687 78.7494 62.692 78.7494C63.7152 78.7494 64.545 79.6012 64.545 80.6516V93.9223C64.545 94.973 63.7152 95.8244 62.692 95.8244Z" fill="#666666"/>
<path d="M76.3199 95.8244C75.2966 95.8244 74.4668 94.9726 74.4668 93.9223V80.6516C74.4668 79.6012 75.2966 78.7494 76.3199 78.7494C77.3432 78.7494 78.173 79.6012 78.173 80.6516V93.9223C78.173 94.973 77.3432 95.8244 76.3199 95.8244Z" fill="#666666"/>
<path d="M143.147 152.83H-4.14665C-4.79745 152.83 -5.40082 152.479 -5.73586 151.906C-6.0709 151.333 -6.08832 150.622 -5.78181 150.032C-3.30683 145.27 -0.673964 140.619 2.04303 136.209C6.5023 128.956 16.6843 115.039 26.5523 108.898C27.3551 108.399 28.3954 108.594 28.9736 109.354C38.7964 122.267 53.5711 129.673 69.5088 129.673C85.4134 129.673 100.165 122.297 109.981 109.436C110.563 108.674 111.611 108.482 112.414 108.991C122.555 115.426 132.906 129.61 136.963 136.211C139.716 140.696 142.347 145.346 144.782 150.032C145.088 150.622 145.071 151.333 144.736 151.906C144.402 152.479 143.798 152.83 143.147 152.83ZM-1.03235 149.025H140.032C138.064 145.37 135.984 141.753 133.828 138.24C129.528 131.243 120.337 119.166 111.827 113.143C101.318 126.088 85.9909 133.477 69.5088 133.477C52.9859 133.477 37.6308 126.055 27.1138 113.049C18.259 119.212 9.25451 131.608 5.17623 138.241C3.04148 141.706 0.960089 145.322 -1.03235 149.025Z" fill="#333333"/>
<path d="M36.1623 144.759C35.6467 144.759 35.1342 144.54 34.7676 144.11L15.249 121.237C14.5749 120.447 14.6523 119.245 15.4221 118.552C16.1919 117.86 17.3623 117.94 18.0372 118.73L37.5558 141.604C38.2299 142.394 38.1525 143.596 37.3827 144.288C37.031 144.605 36.5955 144.759 36.1623 144.759Z" fill="#333333"/>
<path d="M95.9482 152.83C95.5149 152.83 95.0798 152.674 94.7281 152.359C93.958 151.667 93.8805 150.465 94.5547 149.674L108.418 133.423C109.092 132.632 110.263 132.553 111.033 133.245C111.803 133.937 111.88 135.139 111.206 135.929L97.3432 152.181C96.977 152.61 96.4637 152.83 95.9482 152.83Z" fill="#333333"/>
<path d="M116.477 128.768C116.044 128.768 115.608 128.613 115.257 128.297C114.487 127.605 114.41 126.403 115.084 125.612L120.886 118.812C121.56 118.022 122.731 117.942 123.501 118.635C124.271 119.327 124.348 120.528 123.674 121.319L117.872 128.119C117.506 128.549 116.993 128.768 116.477 128.768Z" fill="#333333"/>
<path d="M79.1982 118.463C81.5179 118.463 83.3984 116.533 83.3984 114.152C83.3984 111.771 81.5179 109.84 79.1982 109.84C76.8785 109.84 74.998 111.771 74.998 114.152C74.998 116.533 76.8785 118.463 79.1982 118.463Z" fill="#ED6B5D"/>
<path d="M79.1978 120.366C75.8601 120.366 73.1445 117.578 73.1445 114.152C73.1445 110.726 75.8601 107.939 79.1978 107.939C82.5356 107.939 85.2511 110.726 85.2511 114.152C85.2511 117.578 82.5356 120.366 79.1978 120.366ZM79.1978 111.743C77.9036 111.743 76.8507 112.823 76.8507 114.152C76.8507 115.48 77.9036 116.561 79.1978 116.561C80.492 116.561 81.545 115.48 81.545 114.152C81.545 112.823 80.492 111.743 79.1978 111.743Z" fill="#666666"/>
</g>
</g>
<defs>
<linearGradient id="paint0_linear_92_501" x1="18.5" y1="12.5" x2="184.5" y2="328.5" gradientUnits="userSpaceOnUse">
<stop stop-color="#D93250"/>
<stop offset="1" stop-color="white" stop-opacity="0"/>
</linearGradient>
<clipPath id="clip0_92_501">
<rect width="147" height="150" fill="white"/>
</clipPath>
<clipPath id="clip1_92_501">
<rect width="151" height="155" fill="white" transform="translate(-6 9)"/>
</clipPath>
</defs>
</svg>
