<?xml version="1.0" encoding="utf-8"?>
<!-- Generator: Adobe Adobe Illustrator 24.2.0, SVG Export Plug-In . SVG Version: 6.00 Build 0)  -->
<svg version="1.1" id="Pixel_layer_xA0_Image_1_" xmlns="http://www.w3.org/2000/svg" xmlns:xlink="http://www.w3.org/1999/xlink"
	 x="0px" y="0px" width="3000px" height="3000px" viewBox="0 0 3000 3000" style="enable-background:new 0 0 3000 3000;"
	 xml:space="preserve">
<g>
	<g>
		<path d="M567.88,1441.34c18.41-2.85,32.75,7.55,37.57,26.03c-2.38,5.77-9.44,0.35-13.53,7.09
			c8.99,59.87,18.26,121.61,27.19,181.12c7.24-33.16,16.21-68.67,29.23-102.84c31.69-83.15,78.9-156.86,137.51-223.59
			c31.44-35.79,66.74-67.39,103.11-97.9c9.36-7.85,19.33-14.99,32.04-5.37c23.33,17.65,25.4,24.65,18.45,44.73
			c-22.83,65.96-62.69,122.78-96.03,183.16c-16.33,29.58-33.37,58.8-49.04,88.74c-0.8,1.53-0.47,3.66-0.87,7.52
			c14.64-5.72,24.18-16.4,35.22-24.57c48.96-36.25,99.97-69.11,155.84-93.71c31.32-13.79,61.2-4.24,76.63,26.35
			c7.78,15.41,4.75,34.06,0.81,50.85c-8.33,35.51-23.12,68.72-38.15,101.82c-24.71,54.41-55.29,105.63-83.81,158
			c-20.54,37.72-43.51,73.94-64.23,111.53c-26.96,48.93-57.22,96.05-86.11,143.91c-27.41,45.42-55.18,90.62-82.2,136.27
			c-12.65,21.36-29.01,37.86-52.7,46.03c-10.12,3.49-14.27,10.07-14.5,20.49c-0.32,14.85,0.04,29.74-2.42,44.52
			c-2.2,13.26-7.63,16.28-29.65,16.28c-10.46,0-11.77-6.23-12.98-14.87c-9.19-65.46-6.17-131.05-2.65-196.64
			c1.82-33.93,3.61-67.87,6.16-101.75c5.49-72.87,2.26-145.83,2.37-218.74c0.07-43.55-6.51-86.81-10.39-130.18
			c-4.74-52.91-18.63-104.42-22.57-158.52C567.88,1458.2,567.88,1450.42,567.88,1441.34z M887.11,1763.98
			c21.78-38.07,43.87-75.98,65.27-114.27c26.08-46.66,50.23-94.33,66.52-145.43c4.33-13.6,10.58-27.43,7.96-43.55
			c-34.37,13.93-65.53,31.21-95.89,49.92c-29.72,18.31-57.33,39.53-85.17,60.63c-40.95,31.04-78.09,65.36-111.05,104.68
			c-16.95,20.22-31.53,41.8-45.15,64.31c-16.88,27.88-23.49,61.67-48.66,84.8c-1.1,1.01-1,3.54-1.09,5.38
			c-0.67,13.85-1.62,27.69-1.8,41.55c-0.95,73.24,5.31,146.3,5.44,219.52c0.03,19.48,0.01,38.96,0.01,61.94
			c12.75-16.73,21.79-31.11,31.28-45.23c45.87-68.23,86.58-139.67,130.36-209.2C832.8,1855.07,859.17,1810.28,887.11,1763.98z
			 M820.2,1409.04c24.08-39.43,48.06-78.91,67.33-121c-120.8,112.26-209.63,242.61-233.55,411.17c6.18-3.82,8.53-8.99,11.22-13.9
			c19.72-35.93,39.18-72.01,59.23-107.75C755.71,1521.82,787.39,1466.31,820.2,1409.04z"/>
		<path d="M1574.8,344.88c6.44,7.24,7.18,13.35,3.64,23.12c-5.32,14.67-1.91,31.29-1.19,47.1c2.85,62.2,11.57,123.88,17.66,185.76
			c5.48,55.68,10.51,111.46,15.2,167.17c3.59,42.61,16.1,85.06,7.02,128.47c-1.16,5.56-1.34,11.31-4.99,18.05
			c-11.63-28.49-20.29-56.26-22.87-85.76c-5.59-63.91-9.15-127.92-12.2-192.02c-2.52-52.98-7.24-105.94-11.48-158.85
			c-2.72-33.81-9.06-67.32-7.96-101.47c0.34-10.69,1.64-20.98,9.06-30.66C1569.4,344.88,1571.56,344.88,1574.8,344.88z"/>
		<path d="M2871.88,1859.62c-4.97,12.47-9.88,23.77-14.96,34.99c-1.56,3.44-3.36,7.79-8.1,6.29c-5.8-1.83-3.81-6.81-2.82-10.85
			c2.83-11.46,5.67-22.93,8.86-34.3c2.02-7.18,6.25-11.76,15.82-9.5C2871.88,1850.41,2871.88,1854.42,2871.88,1859.62z"/>
		<path d="M1549.81,2074.2c-32.94,12.92-63.71,28.15-95.82,40.38c-33.32,12.69-65.4,28.62-98.21,42.69
			c-56.95,24.4-114.48,47.52-170.96,72.97c-42.62,19.2-86.08,36.45-128.41,56.18c-34.95,16.29-70.23,31.8-105.45,47.45
			c-9.59,4.26-19.59,7.7-29.6,10.88c-15.18,4.84-21.67,1.06-29.38-16.16c0.66-3.39,3.32-4.75,6.17-5.25
			c36-6.33,65.97-26.99,98.36-41.75c63.79-29.06,127.09-59.21,190.66-88.77c52.79-24.55,106.06-48.04,159.29-71.64
			c74.54-33.04,149.15-65.86,224.17-97.83c57.52-24.51,115.06-48.91,173.04-72.33c61.81-24.98,123.78-49.4,186.25-72.72
			c59.4-22.18,119.1-43.5,179.5-62.46c63.55-19.95,127.46-38.85,192.17-55.14c54.16-13.63,108.52-26.23,163.17-37.32
			c34.51-7,69.36-13.39,104.68-15.78c2.86-0.19,5.78-0.08,8.62,0.29c23.54,3.06,28.4,14.12,22.9,40.35
			c-6.15,29.32-27.87,44.87-48.84,61.33c-9.25,7.26-17.82,15.95-32.99,21.89c17.29-25.75,32.61-48.56,50-74.46
			c-20.36,3.74-37.43,5.23-54.05,7.81c-58.94,9.18-117.66,19.82-175.46,35.02c-36.97,9.72-74.8,16.47-111.28,27.68
			c-26.91,8.27-54.18,15.37-81.08,23.71c-44.59,13.82-89.01,28.15-133.47,42.38c-25.37,8.12-49.97,18.37-75.22,26.94
			c-39.21,13.31-77.66,28.91-116.33,43.81c-50.17,19.32-100.51,38.15-149.8,59.77C1632.36,2041.7,1591.34,2057.18,1549.81,2074.2z"
			/>
		<path d="M1081.36,944.89c49.12-27.64,102.29-40.56,155.76-54.19c-9.74,9.95-19.19,20.22-29.29,29.8
			c-24.16,22.9-44.54,50.17-74.87,66c-21.62,11.28-43.31,21.79-69.19,16.73c-11.02-2.15-19.44-8.54-27.48-14.73
			c-22.71-17.49-44.66-35.98-63.74-57.66c-15.88-18.05-37.91-25.9-60.17-31.16c-51.94-12.26-100.92-1.66-144.76,27.21
			c-36.13,23.79-66.01,55.4-89.3,91.83c-8.44,13.2-4.46,31.78-6.07,47.89c-3.48,34.8-3.41,69.9-8.25,104.61
			c-2.08,14.94-5.38,17-19.98,12.99c-23.29-6.41-24.02-6.4-24.33-30.82c-0.29-22.97,0.7-45.99,2.1-68.92
			c0.63-10.36-3.49-15.73-12.33-19.87c-32.23-15.07-33.47-18.52-17.65-52.03c14.24-30.15,28.25-60.46,44.09-89.77
			c7.63-14.11,6.69-29.03,7.91-43.26c5.86-68.23,13.7-136.5,9.76-205.16c-2.69-46.81-5.61-93.59-10.78-140.27
			c-2.84-25.59-4.67-51.46-6.3-77.26c-0.65-10.26,0.95-19.95,8.61-27.85c10.62,2.38,13.54,8.49,13.16,18.76
			c-1.53,41.3,4.9,81.98,9.91,122.84c3.14,25.61,5.7,51.54,6.57,77.3c2,59.78,7.03,119.61,1.01,179.46
			c-0.38,3.73,0.53,7.58,1.15,15.2c14.86-26.62,28.42-50.25,41.36-74.2c27.24-50.4,55.16-100.44,78.38-152.91
			c5.74-12.98,3.21-27.59,10.75-40.66c8.98-15.58,15.78-32.62,19.15-50.78c1.73-9.33,7.53-8.49,13.41-2.82
			c7.78,7.51,6.09,16.71,4.18,25.66c-8.71,40.75-22.12,79.91-38.26,118.37c-21.46,51.13-47.1,100.08-72.94,149
			c-14.46,27.37-28.5,54.97-42.29,82.68c-5.81,11.68-11.06,23.77-12.33,39.87c27.34-26.8,54.16-50,87.94-62.13
			c38.38-13.79,76.66-22.03,118.87-11.65c45.88,11.29,82.01,36.3,112.94,68.82C1024.82,959.93,1038.91,964.27,1081.36,944.89z"/>
		<path d="M1180.79,1783.44c-39.81,21.42-98.2-15.49-102.17-63.64c-4.57-55.41,1.11-108.02,26.73-157.49
			c26.44-51.05,66.28-86.88,122.69-102.17c17.96-4.87,44.21,7.9,52.01,24.69c1,2.16,1.11,4.68,0.2,5.7
			c-48.71-7.85-81.06,19.48-110.06,50.36c-36.14,38.49-55.02,85.77-58.9,138.45c-1.72,23.32-1.6,46.65,3.92,69.94
			c3.38,14.24,11.25,16.42,22.94,14.49c24.82-4.09,46.31-16.27,65.02-31.87c38.04-31.7,70.78-68.22,89-115.37
			c9.97-25.81,19.73-51.86,18.28-80.39c-0.38-7.46,0.59-15.89,7.78-18.76c6.66-2.66,11.43,4.85,16.93,8.33
			c16.13,10.23,15.28,25.38,16.48,42.21c2.97,41.95,11.8,83.15,23.6,123.65c6.62,22.71,13.09,45.35,26.78,68.65
			c0.01-16.94,0.32-30.53-2.75-44.23c-10.63-47.35-13.44-95.74-15.63-143.95c-0.8-17.56,1.06-36.36,9.08-53.21
			c5.66-11.89,15.19-16.07,28.18-14.85c28.11,2.65,55.57,9.07,83.25,14.1c15.17,2.76,30.49-0.72,46.05,5.02
			c1.9-12.48-2.85-22.43-1.57-32.91c2.26-18.38,15.02-34.17,33.11-36.46c30.23-3.83,59.99-0.02,89.35,7.5
			c31.46,8.05,62.89,16.18,94.39,24.05c6.09,1.52,11.84,3.45,19.02,7.81c-12.51,4.78-23.71,2.85-34.45,1.75
			c-35.62-3.64-71.61-0.89-107.12-7.27c-15.3-2.75-30.39,1.68-44.6,8.33c-10.86,5.08-12.9,13.92-13.12,24.85
			c-0.23,11.41,8.57,10.95,15.19,13.69c5.68,2.35,11.41,4.58,20.43,8.19c-12,2.42-20.88,4.21-31.47,6.35
			c14.73,76.03,51.73,145.88,61.04,227.03c-16.9-9.05-27.5-17.99-30.88-33c-9.55-42.37-23.6-83.36-37.44-124.42
			c-6.24-18.53-12.25-37.16-17.71-55.93c-2.4-8.24-6.24-9.96-15.09-10.96c-30.72-3.48-61.93-4.82-91.6-14.99
			c-16.1-5.52-23.08-2.37-28.3,13.64c-9.09,27.84-8.08,56.42-7.12,85.31c1.52,45.46,10.82,90.47,7.82,136.12
			c-1.17,17.73-9.07,22.25-24.36,13.72c-26.02-14.52-42.21-38.1-55.67-63.67c-11-20.89-16.39-43.66-20.24-66.84
			c-0.84-5.06-2.61-9.96-4.36-16.41c-12.09,11.32-15.72,26.21-24.03,38.13C1269.95,1721.83,1230.51,1757.54,1180.79,1783.44z"/>
		<path d="M1388.49,1111.69c17.29,16.59,34.82,31.27,53.87,44.08c0.4,0.27,0.73,0.64,1.14,0.88c27.53,16.34,40.68,11.95,50.35-16.56
			c13.66-40.28,21.64-81.89,27.21-124.31c6.43-48.94,5.99-97.74,3.7-146.5c-2.97-63.34-12.09-125.99-33.05-189.94
			c-3.52,10.65-6.42,18.02-8.4,25.62c-12.63,48.53-43.67,80.64-88.93,99.94c-35.9,15.31-78.04-10.48-73.48-48.39
			c3.34-27.74,9.05-54.5,19.3-80.42c2.03-5.12,5.15-8.91,9.16-12.51c15.01-13.49,28.43-8.74,33.62,13.56
			c-17.84-8.67-21.82,3.23-26.33,16.02c-8.51,24.13-13.5,48.8-15.23,74.33c-1.07,15.81,5.59,22.37,21.53,18.94
			c36.45-7.83,59.87-31.42,76.99-63.19c16.51-30.64,19.83-64.51,25.36-97.86c1.06-6.37,0.84-12.84,8.04-15.33
			c7.1-2.46,10.02,3.63,13.82,7.73c27.17,29.26,35.21,67.11,46.08,103.57c15.32,51.37,24.36,103.72,28.3,157.39
			c2.87,39.17,8.04,78.34,5.24,117.46c-3.17,44.19-6.72,88.42-16.96,132.02c-4.5,19.16-11.48,37.3-16.35,56.18
			c-7.29,28.28-30.92,38.63-56.66,24.87c-24.26-12.97-44.84-31.17-64.88-49.68c-39.28-36.29-77.52-73.66-111.82-114.85
			c-22.22-26.69-37.03-55.23-36.9-91.9c0.15-40.27,6-79.87,7.42-123.8c10.44,21.47,10.18,41.41,14.47,60.15
			c7.67,33.47,15.25,67.22,18.99,101.29c5.33,48.56,38.69,77.07,70.18,107.6C1378.73,1102.42,1383.26,1106.68,1388.49,1111.69z"/>
		<path d="M2224.6,1557.81c4.95,16.45,15.27,29.68,18.9,47.1c-6.56-0.92-9.37-4.86-11.58-8.56c-15.42-25.86-31.83-51.26-45.32-78.11
			c-7.57-15.07-10.04-32.67-15.02-49.07c-5.04-16.58-17.79-26.13-32.72-32.05c-35.57-14.11-90.05,1.78-113.54,32.24
			c-18.51,24.02-18.23,50.79-5.9,76.05c12.63,25.89,19.04,53.18,22.78,80.8c3.02,22.29,11.65,43.5,11.34,66.35
			c-0.09,6.3,1.57,12.3-5.92,17.54c-13.09-10.54-22.37-24.2-22.84-40.73c-0.99-35.18-15.84-66.71-23.28-100.13
			c-3.33-14.96-9.86-28.86-12.72-44.03c-4.4-23.31-35.47-44.3-64.13-43.32c4.35,27.01,3.06,54.18,0.1,80.96
			c-4.92,44.35-19.34,84.81-50.73,118.83c-16.15,17.5-32.16,33.68-53.82,43.97c-43.21,20.53-78.83-12.35-78.89-48.2
			c-0.09-53.03,9.5-103.57,32.14-151.49c7.6-16.08,18.01-30.28,31.97-41.59c6.14-4.97,12.5-7.67,18.8-0.29
			c6.69,7.84,0.15,12.13-4.85,16.41c-23.76,20.32-33.86,48.78-42.57,76.89c-10.93,35.28-14.9,72.11-13.53,109.27
			c0.71,19.07,6.4,23.34,24.44,16.47c34.77-13.23,57.6-39.94,75.92-70.75c19.68-33.1,30.41-68.79,28.35-107.96
			c-1.06-20.11-0.53-40.33-0.18-60.49c0.25-14.8,6.9-18.41,20.34-12.47c23.14,10.22,46.96,19.1,68.02,37.92
			c1.5-21.65,3.55-40.79,17.25-56.34c30.75-34.91,91.7-56.38,139.41-30.99c23.99,12.77,35.91,35.86,49.82,57.67
			C2205.8,1489.74,2210.79,1524.81,2224.6,1557.81z"/>
		<path d="M1720.81,773.54c23.62,6.26,43.4-1.63,62.52-12.15c32.2-17.71,53.33-45.83,71.12-76.91
			c12.56-21.95,22.72-45.41,40.93-63.75c14.34-14.44,27.26-12.94,41.14,1.47c45.05,46.76,49.38,101.98,35.8,161.47
			c-6.45,28.24-12.76,56.51-20.6,84.7c-13.98-69.81-14.3-140.65-14.7-210.5c-11.37-2.92-14.25,2.64-18.01,7.73
			c-19.89,26.9-34.06,57.7-56.13,83.07c-30.65,35.23-77.04,69.01-126.22,58.77c-38.9-8.1-63.15-50.85-48.03-87.07
			c21.14-50.65,51.38-94.66,94.82-128.88c4.46-3.51,9.57-6.3,14.68-8.84c23.48-11.68,31.46-10.98,44.77,3.42
			c18.94,20.49,15.46,21.82,2.41,48.31c-7.06,14.33-18.48,26.66-28.74,39.23c-12.15,14.89-15.72,14.3-28.35-3.84
			c20.28-18.48,36.71-40.2,44.7-69.08c-25.22,9.43-42.33,27.41-57.97,46.18c-22.62,27.16-41.22,57.05-53.94,90.41
			c-3.24,8.49-3.36,17.68-7.89,25.9C1710.48,768,1713.61,772.45,1720.81,773.54z"/>
		<path d="M1282.58,704.36c-13.88,23.15-27.28,46.82-45.39,66.38c-22.92,24.76-48.72,46.69-77.85,64.66
			c-22.51,13.89-45.86,25.78-70.11,35.89c-14.6,6.09-29.64,7.07-43.49-3.71c-15.96-12.42-24.21-26.72-19.39-48.27
			c11.87-53.1,29.04-103.9,59.22-149.61c15.09-22.85,35.01-40.28,59.91-51.79c21.49-9.93,49.37,0.77,56.09,29.32
			c-4.42,3.13-7.15-0.29-9.66-2.89c-10.46-10.86-22.27-9.31-34.25-3.64c-23.3,11.01-41,29.2-53.66,50.53
			c-17.76,29.93-32.54,61.51-41.09,95.91c-3.53,14.19-8.04,28.44-12,42.67c-4.55,16.35,0.37,21.28,16.05,15.66
			c26.12-9.37,50.35-22.56,73.42-38.18c61.78-41.84,107.7-96.94,139.33-164.29c5.34-11.37,9.29-11.57,18.92-3.99
			c14.56,11.45,16.78,27.64,17.3,43.78c1.28,39.22,1.04,78.48,1.8,117.72c0.5,25.51,14.69,44.83,29.98,63.51
			c4.01,4.9,10.63,8.53,8.95,16.42c-5.82,4.44-9.93-0.27-12.87-2.97c-24.25-22.33-47.83-45.35-57.93-78.14
			c-1.52-4.92-1.69-10.37-1.76-15.58C1283.68,757.37,1283.53,730.98,1282.58,704.36z"/>
		<path d="M2195.79,764.73c15.88-1.71,26.73,9.79,41.33,10.17c-7.59,25.43-14.6,48.98-43.99,55.98c-10.77,2.57-18.7,2.35-24.46-7.9
			c-5.62-10-11.17-20.05-17.06-29.89c-3.9-6.52-2.56-11.54,4.46-13.44C2169.46,776.04,2181.79,769.88,2195.79,764.73z"/>
		<path d="M2389.91,1588.14c-0.33-4.52-0.69-7.81-0.95-11.12c-0.31-3.98,1.64-6.3,5.53-6.84c3.21-0.45,6.49,1.19,6.79,3.88
			c1.37,12.14,4.2,24.68-4.19,37.03C2388.5,1604.46,2390.53,1596.5,2389.91,1588.14z"/>
	</g>
</g>
</svg>
