<?xml version="1.0" encoding="utf-8"?>
<!-- Generator: Adobe Adobe Illustrator 24.2.0, SVG Export Plug-In . SVG Version: 6.00 Build 0)  -->
<svg version="1.1" id="Pixel_layer_xA0_Image_1_" xmlns="http://www.w3.org/2000/svg" xmlns:xlink="http://www.w3.org/1999/xlink"
	 x="0px" y="0px" width="3000px" height="3000px" viewBox="0 0 3000 3000" style="enable-background:new 0 0 3000 3000;"
	 xml:space="preserve">
<g>
	<g>
		<path d="M625.05,527.56c50.27,13.65,83.21,45.65,104.29,91.37c20.42,44.28,27.56,91.21,29.94,139.42
			c2.52,51.08-4.85,100.9-17.14,150.15c-6.46,25.88-14.89,51.15-23.37,76.49c-15.55,46.43-35.56,90.7-57.53,134.07
			c-14.29,28.22-30.4,55.66-50.11,80.84c-13.53,17.29-24.89,36.18-39.04,53.18c-9.96,11.97-0.95,26.6,14.35,29.07
			c23.82,3.84,47.4,9.35,70.92,14.83c33.39,7.77,65.96,18.3,98.02,30.47c32.01,12.15,61.31,28.74,86.73,51.82
			c9.43,8.57,18.58,17.47,27.49,26.59c7.79,7.97,16.09,8.51,25.33,3.23c36.59-20.92,65.87-49.81,90.7-83.53
			c4.5-6.11,8.28-12.76,16.02-19.15c-15.18-1.51-25.3-9-34.92-16.91c-13.64-11.22-18.3-27.45-20.54-43.9
			c-4.06-29.88-0.58-58.65,18.39-83.54c7.06-9.26,23.84-11.72,33.39-5.33c24.34,16.3,38.21,38.96,40.56,68.41
			c0.14,1.7-0.01,3.47,0.42,5.08c0.98,3.63,2.24,7.18,3.68,11.67c19.42-24.27,29.14-52.41,39.75-79.96
			c11.09-28.76,18.2-35.27,42.33-15.46c13.59,11.16,20.43,25.25,25.49,40.24c14.42,42.75,21.77,87.29,27.46,131.84
			c2.99,23.4,8.8,46.65,7.39,70.83c-26.39-70.88-47.72-143.27-67.47-216.18c-1.08-0.03-2.16-0.05-3.24-0.08
			c-9.65,19.01-19.56,37.9-28.86,57.08c-9.68,19.95-22.4,37.64-39.11,52.04c-4.76,4.11-8.49,8.25-10.58,13.8
			c-14.61,38.86-36.54,73.23-63.18,104.82c-11.38,13.49-25.85,23.06-40.35,32.49c-8.77,5.71-19.46,8.19-29.5,6.07
			c-28.8-6.1-58.82-9.47-80.79-33.07c-9.82-10.55-21.34-19.49-31.66-29.59c-19.68-19.27-42.73-33.64-67.77-44.19
			c-24.22-10.2-50.14-15.9-75.96-20.3c-21.23-3.62-42.24-9.6-64.3-8.59c-10.24,0.47-11.8,2.89-9.96,12.89
			c4.54,24.59,6.66,49.63,11.09,74.25c5.84,32.42,11.62,64.81,21.43,96.49c4.58,14.79,8.44,30.15,12.53,45.2
			c5.84,21.48,15,42.05,22.38,63.13c10.35,29.58,23.51,58.13,31.51,88.57c2.66,10.13-1.64,13.23-10.56,13.94
			c-11.33,0.91-20.23-4.34-26.63-12.52c-33.28-42.47-61.55-88.2-82.87-137.75c-16.06-37.32-28.25-76.13-39.58-115.27
			c-9.57-33.07-17.64-66.46-24.9-99.99c-11.13-51.4-21.17-103.09-29.6-154.99c-6.73-41.44-12.82-83.11-17.63-124.76
			c-5.9-51.06-13.41-101.87-20.9-152.63c-6.86-46.5-13.68-93.12-24.28-139.08c-7.81-33.88-11.64-68.74-20.59-102.27
			c-6.99-26.19-11.21-53.08-20.57-79.47c-0.64-3.4-0.64-6.13,0.18-10.15c11.68-2.05,26.22,8.99,30.36,23.39
			c7.37,25.63,14.52,51.55,19.78,77.51c8,39.41,17.16,78.62,24.28,118.23c3.29,18.33,7.44,36.51,10.31,54.89
			c4.84,30.97,10.74,61.76,15.51,92.75c3.8,24.68,7.7,49.48,10.97,74.16c4.57,34.48,11.67,68.55,15.22,103.26
			c2.57,25.11,7.09,50.44,12.43,75.31c4.61,21.5,4.87,43.93,13.72,65.73c11.24-12.76,27.08-21.22,24.55-42.09
			c-2.52-20.67-4.34-41.57-4.45-62.37c-0.28-54.41-2.6-108.75-1.2-163.24c2.25-87.66,2.13-175.41,11.08-262.75
			c4.45-43.36,6.99-87.05,21.8-128.83c10.78-30.41,23.15-58.5,58.1-67.67C618.58,527.56,621.3,527.56,625.05,527.56z
			 M604.78,1124.61c20.44-33.2,38.33-67.84,53.72-103.56c25.15-58.38,47.44-117.68,58.79-180.83c8.36-46.55,11.24-93.06,4.37-139.57
			c-3.18-21.55-6.94-43.34-14.11-64.46c-9.21-27.12-19.71-53.08-40.97-72.96c-7.88-7.36-17.29-11.58-29.13-6.6
			c-30.76,12.95-42.7,40.29-47.87,69.11c-6.72,37.46-13.97,74.96-17.12,113.18c-3.83,46.57-4.54,93.3-8.46,139.89
			c-2.14,25.38-2.11,51.55-2.33,77.37c-0.33,38.27-0.31,76.53-0.31,114.8c0,13.53,2.15,27.1,0.37,40.59
			c-3.16,23.86,0.9,47.28,2.83,72.68C580.42,1165.13,591.47,1145.17,604.78,1124.61z M984.4,1283.15
			c23.95-1.03,35.56-8.85,38.84-28.26c3.39-20.06,0.62-40.06-7.1-58.67c-3.97-9.57-7.74-24.3-20.48-22.92
			c-13.85,1.5-16.51,16.59-20.2,28.33c-0.87,2.77-0.85,5.89-0.86,8.86c-0.06,17.03,0.06,34.05-0.03,51.08
			C974.53,1269.62,977.25,1276.46,984.4,1283.15z M545.21,1431.45c12.95,42.04,28.56,83.09,45.37,123.72
			c-1.16-7.07-2.6-14.08-5.21-20.61c-16.24-40.74-24.76-83.65-34.07-126.18c-6.41-29.27-10.14-59.25-13.02-89.24
			c-1.62-16.9-3.47-17.73-22.58-17.94c-3.08,8.19,0.53,15.69,2.5,23.4C527.14,1359.51,535.97,1394.45,545.21,1431.45z"/>
		<path d="M887.91,2324.56c-4.4-0.75-7.67-1.79-11.02-2.19c-33.78-4.01-42.68-23.82-49.94-52.29
			c-9.12-35.81-10.2-72.31-10.14-109.03c0.1-60.51-0.36-120.93,7.6-181.19c5.61-42.51,11.12-84.91,19.38-127.08
			c9.18-46.85,22.06-92.58,38.22-137.16c24.23-66.86,57.11-129.38,104.99-182.88c23.05-25.76,48.83-48.73,80.28-63.32
			c19.78-9.17,34.55-9.86,43.04,12.32c-6.29,5.01-13.18-1.07-20.35,1.32c-20.04,6.66-35.43,20.08-51.13,32.63
			c-21.83,17.46-39.6,39.17-56.36,61.59c-16.57,22.16-31.01,45.61-43.48,70.29c-17.41,34.48-31.76,70.36-43.66,106.95
			c-8.6,26.44-15.25,53.66-21.44,80.95c-5.93,26.16-10.52,52.49-15.23,78.83c-6.21,34.79-9,70.05-11.47,105.19
			c-2.77,39.45-3.78,79.18-2.62,118.7c1.32,44.95,0.38,90.3,10.53,134.52c2.3,10.02,7.79,19.91,13.94,28.29
			c9.88,13.46,22.45,11.69,39.69-3.24c20.7-17.93,33.5-41.35,45.86-65.08c18.04-34.64,31.09-71.46,43.64-108.23
			c13.53-39.64,27.73-79.07,39.42-119.4c11.92-41.12,26.89-81.36,40.74-121.91c12.75-37.34,26.5-74.31,42.46-110.4
			c9.4-21.25,18.65-42.61,31.05-62.41c12.35-19.71,27.19-21.57,47.93-4.74c11.88,9.65,21.19,21.61,27.27,36.02
			c-15.56-88.85-40.99-175.24-65.04-262.85c10.92-3.33,16.64,2.97,19.07,10.26c8.43,25.33,16.86,50.77,22.99,76.72
			c3.92,16.57,9.44,32.65,13.98,48.95c8.56,30.69,16.57,61.71,22.69,92.71c8.61,43.58,18.2,87.24,20.58,132.07
			c1.62,30.53,6.64,60.9,7.4,89.77c7.91-38.33,9.36-79.51,18.62-119.51c4.27-18.43,15.27-23.43,31.3-14.13
			c21.58,12.51,27.87,34.34,33.92,55.85c10.83,38.54,16.28,78.06,18.81,118c0.07,1.13,1.15,2.19,2.15,4
			c10.35-4.71,15.72-14.27,21.25-22.69c28.4-43.21,47.47-90.43,59.15-140.85c5.84-25.22,12.83-50.17,18.39-75.49
			c3.62-16.48,10.56-17.34,24.61-8.27c14.66,9.47,22.07,22.75,26.9,38.52c7.83,25.58,15.64,51.18,23.79,76.66
			c2.32,7.24,5.65,14.18,8.82,21.12c3.24,7.08,9.89,6.56,15.54,5.11c27.9-7.18,50.37-22.53,65.18-47.49
			c9.47-15.96,17.26-32.92,26.1-49.27c6.5-12.03,13.36-13.26,24.58-5.22c11.04,7.91,22.82,14.89,32.24,24.84
			c3.76,3.98,7.46,3.6,11.44,1.4c5.89-3.26,12.07-6.26,17.29-10.42c11.31-9.01,22.93-14.4,38.3-13.47
			c23.13,1.41,38.08-15.27,52.64-29.71c27.06-26.82,45.45-59.82,61.64-93.98c5.71-12.04,13.39-21.28,26.99-23.84
			c40.76-7.67,75.51-29.22,111.47-48.01c13.43-7.02,26.9-13.93,41.2-21.33c2.11,11.39-7.18,16.77-10.98,24.11
			c-11.64,22.45-21.91,46.37-42.97,62.18c-15.3,11.49-32.24,19.95-51.58,22.95c-15.26,2.36-24.92,11.07-32.75,25.02
			c-19.52,34.8-40.86,68.73-72.17,94.53c-11.29,9.31-24.26,16.57-37.79,22.48c-2.32,1.02-5.15,2.56-7.3,2.03
			c-18.79-4.64-34.02,5.49-49.35,12.75c-19.04,9.01-35.53,3.62-52.14-4.95c-7.07-3.64-13.61-8.31-20.58-12.64
			c-9.65,15.54-18.59,30.9-28.47,45.63c-17.14,25.55-39.83,43.4-70.43,50.81c-12.74,3.08-23.78-0.19-34.47-5.41
			c-18.96-9.25-38.98-17.97-49-38.27c-5.6-11.35-9.91-23.62-12.76-35.96c-2.32-10.02-5.51-19.56-9.95-30.83
			c-6.97,24.19-12.59,47.27-20.33,69.63c-8.6,24.85-19.49,48.83-32.09,72.04c-13.04,24.01-27.79,46.65-48.33,64.84
			c-18.28,16.19-43.96,7.5-48.87-16.66c-3.04-14.95-5.1-30.24-5.9-45.47c-1.31-25.11-4.86-49.89-9.92-74.4
			c-3.31-16.02-8.29-31.77-17.04-46.03c-7.07,2.47-7.82,7.28-9.08,12.33c-8.66,34.71-11.03,70.47-16.33,105.67
			c-3.89,25.86-9.64,50.52-18.52,74.88c-3.44,9.45,0.89,19.34,1.95,29.96c5.08-1.3,5.79-8.06,11.8-7.72
			c0.62,0.84,2.38,2.11,2.37,3.38c-0.1,19.55,7.1,37.51,11.9,55.98c3.23,12.41-0.02,24.77-1.34,36.86
			c-2.45,22.56-1.66,45.08-1.92,67.61c-0.11,10.12-3.16,15.52-14.02,14.24c-2.1-0.25-4.26-0.04-6.39-0.03
			c-40.75,0.17-32.79,0.54-34.05-33.24c-1.8-48.52-3.68-97.1-6.84-145.48c-3.83-58.51-3.34-117.23-11.21-175.62
			c-5.66-41.95-12.48-83.05-29.02-122.15c-5.38-12.72-9.42-13.29-18.3-2.03c-11.36,14.4-17.65,31.65-25.52,47.9
			c-19.04,39.28-33.3,80.46-47.18,121.84c-6.72,20.03-14.62,39.69-20.81,59.98c-11.1,36.38-22.36,72.73-34.63,108.73
			c-12.46,36.54-23.35,73.74-37.15,109.62c-12.95,33.68-24.4,68.73-44.86,99.05c-15.74,23.33-31.51,47.68-63.81,52.99
			C897.77,2324.56,893.39,2324.56,887.91,2324.56z"/>
		<path d="M1491.83,993.61c5.33-18.38,10.4-35.71,16.51-56.56c-82.95,37.13-162.7,72.83-243.25,108.89
			c8.35,11.69,0.46,12.47-8.85,12.42c18.81,23.02,37.04,44.78,54.66,67.03c20.01,25.25,39.89,50.61,59.05,76.51
			c18.64,25.19,36.51,50.99,52.52,77.97c15.45,26.05,28.72,53.7,31.63,83.84c4.66,48.27-17.81,57.54-57.56,47.9
			c-30.18-7.32-54.5-27.06-78.31-45.98c-22.86-18.16-44.34-38.25-62.97-60.87c-32.68-39.69-57.98-83.02-56.55-136.63
			c0.63-23.7,4.58-47.31,7.09-71.63c-8.45,4.98-10.21,14.93-16.62,21.15c-3.51,3.41-4.76,9.35-11.78,5.17
			c-6.7-3.99-7.86-8.4-5.27-15.84c6.84-19.67,18.24-36.52,33.22-50.19c7.3-6.67,7.94-13.12,7.8-21.18
			c-0.11-6.04-0.46-12.55,5.69-15.93c6.14-3.37,11.06-0.59,15.68,4.31c4.93,5.24,11.08,3.6,16.4,0.34
			c29.04-17.82,60.93-29.6,92.21-42.3c27.71-11.25,56.91-18.77,85.36-28.23c27.35-9.1,54.54-18.64,81.87-27.81
			c4.32-1.45,5.43-4.96,7.17-8.33c11.69-22.64,25.2-43.51,45.74-59.77c26.82-21.24,69.88-22.77,93.13,9.64
			c4.55,6.34,13.43,11.31,10.31,21.53c-8.77,2.14-13.36-4.95-18.28-8.35c-20.66-14.27-39.04-5.07-55.51,5.66
			c-29.88,19.48-43.68,50.89-55.62,83.16c-7.39,19.96-13.31,40.24-16.87,61.21c-3.06,18.02,1.24,22.83,19.93,23.29
			c31.12,0.77,59.05-10.74,86.46-23.27c66.62-30.46,116.86-79.5,158.18-139.27c12.55-18.15,23.94-37,36.4-55.17
			c10.87-15.86,19.66-16.88,31.77-1.84c13.06,16.22,24.04,34.16,32.22,53.09c8.77,20.29,23.49,33.96,40.63,46.02
			c8.31,5.84,17.1,11,25.78,16.28c2.51,1.53,5.7,3.82,8.11,3.35c18.53-3.61,20.52,13.09,25.71,22.89c4.58,8.66-4.71,7.11-9.89,5.92
			c-32.36-7.41-59.69-22.39-80.36-49.58c-15.43-20.29-29.97-40.9-41.38-65.69c-14.05,18.69-27.86,35.96-41.38,53.55
			c-21.41,27.86-43.75,55.14-70.96,77.83c-30.38,25.33-62.2,48.64-98.26,65.19c-25.29,11.6-51.54,21.48-79.5,23.86
			c-30.16,2.57-48.19-17.2-64.26-38.88C1487.54,1032,1486.91,1013.65,1491.83,993.61z M1304.76,1336.47
			c14.25,13.42,29.93,24.88,46.95,34.53c16.48,9.35,33.5,15.9,53.09,13.65c10.69-1.23,17.07-6.95,20.37-16.45
			c3.12-8.97,3.23-18.35,2.26-27.79c-3.3-32.19-17.96-59.74-35.16-86.16c-30.8-47.29-65.01-92.09-100.03-136.27
			c-15.22-19.2-30-38.76-47.06-55.99c-11.23,2.76-13.36,10.78-15.36,20.1c-4.03,18.83-4.76,37.95-6.38,56.97
			c-2.92,34.21-1.42,68.41,12.13,100.23C1251.16,1275.91,1275.02,1307.36,1304.76,1336.47z"/>
		<path d="M2327.42,1775.63c-4.06-22.41-8.43-43.54-10.43-65.23c-1.73-18.89-6.13-37.67-10.81-56.12
			c-7.3-28.77-14.67-57.59-25.1-85.42c-7.13-19.03-15.57-37.56-23-56.48c-11.3-28.8-26.07-55.9-40.12-83.35
			c-7.52-14.69-16.03-28.88-24.44-43.09c-3.6-6.08-8.24-13.08-1.31-18.01c7.39-5.26,12.32,2.15,16.22,7.73
			c22.86,32.63,42.38,67.26,60.24,102.82c19.2,38.21,37.09,76.93,51.29,117.44c8.01,22.85,16.59,45.56,21.83,69.09
			c5.69,25.56,11.69,51.13,16.86,76.83c5.89,29.33,5.94,59.02,11.34,88.25c3.98,21.54,4.64,43.87,4.83,65.86
			c0.11,13.29,3.04,24.06,12.93,32.91c2.47,2.21,4.37,5.04,7.59,8.81c-8.42,2.78-17.13,1.45-21.28-2.37
			c-17.94-16.51-39.28-31.97-40.92-59.12C2331.13,1843.05,2325.66,1810.1,2327.42,1775.63z"/>
		<path d="M2087.43,1135.65c-1.21-39.51,14.42-68.58,48.41-86.79c11.61-6.22,24.03-9.54,35.06,2.21c4.62,4.92,9.34,1.83,14.02-0.17
			c17.62-7.52,24.32-3.64,35.62,12.03c20.16,27.96,9.3,49.82-11.92,68.93c-22.6,20.35-47.39,35.91-79.07,36.35
			C2108.48,1168.5,2093.5,1157.22,2087.43,1135.65z M2200.06,1104.1c0.4-0.75,0.73-1.54,1.2-2.24
			c13.66-20.17,11.25-26.1-11.62-28.72c-2.52-0.29-5.04-0.8-7.47-1.49c-24.04-6.81-44.04-1.78-59.6,18.95
			c-8.47,11.28-15.09,23.04-18.3,36.92c-4.4,19.01,4.94,27.99,24.67,24.36C2159.01,1146.35,2181.58,1129.91,2200.06,1104.1z"/>
	</g>
</g>
</svg>
