<?xml version="1.0" encoding="utf-8"?>
<!-- Generator: Adobe Adobe Illustrator 24.2.0, SVG Export Plug-In . SVG Version: 6.00 Build 0)  -->
<svg version="1.1" id="Pixel_layer_xA0_Image_1_" xmlns="http://www.w3.org/2000/svg" xmlns:xlink="http://www.w3.org/1999/xlink"
	 x="0px" y="0px" width="3000px" height="3000px" viewBox="0 0 3000 3000" style="enable-background:new 0 0 3000 3000;"
	 xml:space="preserve">
<g>
	<g>
		<path d="M880.9,303.82c14.86,33.36,17.66,69.04,21.39,104.17c7.58,71.28,10.75,142.86,9.32,214.61
			c-1.57,79.21,0.89,158.44-5.24,237.64c-2.77,35.85-4.76,72-3.74,108.17c0.81,28.95-0.09,57.93-2.4,86.86
			c-0.76,9.53-1.37,19.41,2.06,29.83c11.56-4.62,21.58-10.33,31.76-15.92c41.74-22.91,85.39-41.31,130.05-57.99
			c36.32-13.56,72.85-26.25,109.86-37.57c18.68-5.71,37.33-12.34,57.07-14c6.41-0.54,13.52-2.19,16.36,6.58
			c2.95,9.11-5.18,9.33-9.82,12.45c-9.49,6.39-19.98,4.64-30.63,5.5c-34.21,2.75-66.56,14.62-98.99,25.11
			c-28.85,9.33-57.43,19.66-85.63,30.8c-39.47,15.6-78.52,32.26-115.14,54.06c-5.69,3.39-7.28,7.88-7.23,13.98
			c0.32,34.22-0.55,68.45,2.52,102.63c1.24,13.76,9.05,9.18,15.66,6.41c29.78-12.48,58.29-27.63,86.33-43.5
			c72.66-41.11,139.15-91.21,205.35-141.77c23.83-18.2,46.55-37.63,69.45-56.89c15.23-12.81,33.72-20.17,49.84-31.41
			c3.36-2.34,6.87-2.41,12.13,2.32c-61.99,65.15-134.89,119.3-188.08,191.85c5.01,5.14,8.09,3.48,10.82,1.68
			c40.44-26.62,81.05-18.03,121.71-0.69c0.86,0.37,1.67,0.86,2.54,1.23c24.2,10.26,40.93,3.76,59.66-14.94
			c16.99-16.97,38.34-31.35,63.09-33.33c43.89-3.52,87.57-8.26,130.49-17.59c27.37-5.95,51.98-20.41,77.64-31.5
			c22.24-9.61,44.52-19.15,66.8-28.67c2.6-1.11,5.35-1.99,8.7,1.28c-8.83,9.24-20.97,13.23-31.62,18.62
			c-41.26,20.89-82.6,41.81-125.04,60.11c-30.91,13.33-64.33,19.1-98.03,21.89c-11.19,0.93-22.38,1.93-33.5,3.44
			c-12.27,1.66-20.7,7.67-29.89,17.34c-17.29,18.2-39.95,30.46-66.26,32.49c-6.59,0.51-13.93-0.31-19.24,3.17
			c-15.59,10.22-29.06,3.44-43.14-3.13c-20.91-9.74-42.46-16.82-66.06-16.67c-9.75,0.06-19.33,1.08-26.85,6.57
			c-13.85,10.09-30.86,13.69-44.76,23.48c-3.66,2.58-8.65,5.73-12.97,2.07c-4.73-4.01-2.88-9.88-0.4-14.27
			c12.01-21.33,28.29-39.48,44.02-58.03c2.04-2.4,5.53-3.79,5.75-8.52c-4.51-4.11-8.94-2.04-13.23,1.05
			c-65.11,46.97-135.33,85.44-207.24,120.46c-19.9,9.69-25.26,20.25-23.62,40.23c4.35,53.17,7.43,106.44,11.05,159.66
			c1.05,15.41,3.25,30.83,2.96,46.21c-0.25,13.35,2.24,23.07,16.85,26.14c2.06,0.43,3.83,2.3,5.4,3.3
			c-0.08,1.74,0.17,3.28-0.21,3.46c-17.92,8.3-33.93,22.4-56.33,16.63c-6.22-1.6-8.72-4.12-9.53-9.92
			c-2.7-19.45-4.34-38.97-6.04-58.54c-5.02-57.86-3.63-116.07-10.25-173.79c-1.72-15-5.95-17.48-20.61-12.45
			c-33.65,11.54-67.04,24-102.68,28.2c-6.49,0.77-13.16,1.94-19.55,1.2c-12.01-1.39-22.73-0.1-33.53,6.27
			c-10.16,5.99-15.93,2.19-18.31-8.06c-5.93-25.53-7.79-51.65-12.03-77.39c-4.45-27.02-2.27-54.2-4.5-81.29
			c-3.46-41.97-3.11-84.28-3.99-126.46c-1.13-54.3-0.35-108.7-3.18-162.86c-2.61-49.8-3.48-99.87-12.07-149.38
			c-3-17.3-6.42-35.73-5.05-52.85c2.23-27.89-13.43-51.68-12.98-78.72c0.2-11.99-2.83-24.1-5-36.04c-1.4-7.68,8.37-10.28,6.83-18.6
			c-4.53-1.96-3.18,7.44-8.79,3.65c-0.22-0.57-1.01-2.64-1.84-4.82c-0.65,0.43-1.74,0.75-1.84,1.27
			c-6.25,31.56-12.52,63.12-18.53,94.73c-2.78,14.62-4.77,29.4-7.57,44.02c-8.84,46.33-15.59,92.91-21.08,139.79
			c-8.23,70.21-11.11,140.83-17.96,211.15c-3.34,34.31-5.49,69-7.45,103.57c-2.55,44.79-8.08,89.4-11.88,134.13
			c-2.66,31.23-4.04,62.54-7.2,93.77c-6.87,67.97-6.41,136.53-16.55,204.29c-1.93,12.87-3.17,26.06-4.07,39.01
			c-1.66,23.81-17.24,32.63-36.16,39.16c-3.59,1.24-7.08,2.27-11.05,4.83c-0.97-1.89-0.97-4.01-0.64-8.16
			c3.2-13.83,10.22-24.85,9.81-37.1c-0.99-29.83,12.64-58.26,6.92-88.67c-3.41-18.1,5.85-36.05,5.31-53.99
			c-0.78-25.87,2.25-51.56,5.06-76.79c3.37-30.16,4.65-60.43,7.04-90.57c2.62-32.93,3.62-66.03,6.51-99.01
			c0.74-8.48,7.29-15.17,5.01-24.26c-4.17-16.64-2.75-33.79,0.23-50.16c6.91-38-2.15-77.75,13.14-114.69
			c-5.31-30.16,1.16-60.01,3.37-89.83c3.24-43.73,8.52-87.37,14.69-130.8c5.72-40.22,12.34-80.31,19.86-120.3
			c9.58-50.94,19.05-101.99,26.96-153.17c4.47-28.91,14.61-48.36,41.73-60.17c15.21-6.62,17.92-7.23,25.21,8.55
			c11.29,24.48,16,51.06,20.14,77c8,50.13,17.35,100.08,21.65,150.89c5,59.13,13.88,117.93,13.22,177.49
			c-0.06,5.29-0.71,11.01,4.41,15.41c4.39-4.2,4.39-8.85,5.05-13.47c3.62-25.41,6.69-50.84,13.11-75.85
			c9.87-38.49,19.87-76.93,31.92-114.8c14.86-46.71,30.19-93.28,44.98-140.01c7.86-24.86,15.28-49.86,22.4-74.94
			c8.91-31.38,17.27-62.92,25.99-94.35c2.53-9.11,8.11-14.74,17.4-18.48c7.36-2.96,16.01-6.05,19.7-14.73
			C871.9,303.82,875.81,303.82,880.9,303.82z M856.04,440.64c-0.21-6.94-1.63-13.59-5-21.34c-12.97,21.28-15.16,45.02-23.05,66.65
			c-14.83,40.65-26.21,82.56-39.06,123.94c-8.01,25.78-17.19,51.26-23.84,77.38c-8.38,32.91-16.76,65.81-21.72,99.62
			c-4.47,30.45-11.06,60.97-11.8,91.47c-2.47,101.21-0.71,202.47,1.62,303.69c0.08,3.57-0.75,7.55,2.13,10.66
			c4.37,1.51,7.28-1.36,10.06-3.63c31.24-25.38,64.23-48.16,99.33-67.91c5.75-3.24,8.2-8.28,8.35-15.12
			c0.59-27.13,0.93-54.27,1.78-81.39c1.09-34.97,3.8-69.86,4.55-104.86c1.57-73.91,5.04-147.78,7.69-221.67
			c2.53-70.31-2.84-140.41-5.42-210.58C861.06,472.55,859.48,457.7,856.04,440.64z M752.08,1203.33
			c-15.16,12.34-22.74,28.04-25.22,47.7c-1.5,11.89,1.04,14.42,12.27,15.1c34.3,2.09,66.55-6.63,98.69-16.59
			c9.84-3.05,16.01-8.87,15.8-20.29c-0.49-26.69-0.44-53.38-0.72-80.08c-0.06-5.9-0.11-11.95-4.9-17.83
			C813.89,1152.16,783.63,1176.93,752.08,1203.33z"/>
		<path d="M1567.99,2556.82c2.78-6.74,5.36-14,2.08-21.48c-10.2-23.26-12.23-47.88-13.33-72.76c-0.13-3-2.2-6.04-3.78-8.83
			c-5.27-9.29-8.08-17.48-4.94-29.61c3.5-13.56-0.9-28.98-0.4-43.54c0.59-17.3-6.67-35.16,1.99-51.75
			c3.2-6.12,13.32-9.79,3.16-17.91c6.56-5.56,3.97-12.4,4.73-19.47c1.17-10.92,10.01-21.01,16.01-32.23
			c-10.88-4.78-11.7-13.05-7.29-22.02c6.7-13.62,2.09-30.89,16.94-42.62c6.06-4.78,6.06-18.1,7.41-27.73
			c1.62-11.51,5.63-23.32,5.17-34.17c-0.4-9.41-3.54-18.75-0.93-28.61c3.98-15.04,11.59-29.38,8.77-45.8
			c-0.66-3.83,2.88-3.57,5.61-4.39c6.4-1.92,8.43-9.41,7.19-13.1c-4.44-13.18-1.75-24.28,5.99-34.87c1.98-2.71,1.06-4.9,0.2-7.76
			c-7.42-24.68-5.24-50.72-1.67-74.72c3.18-21.36-2.22-40.05-5.65-59.3c-1.44-8.12,10.54-14.31,0.99-21.38
			c9.89-21.07-5.13-41.38-2.12-61.82c2.81-19.09-11.33-36.15-4.3-55.6c1.58-4.38-3.44-11.15-5.79-17.86
			c6.74-0.17,10.49,2.61,11.51,8.96c3.88,24.22,7.44,48.45,13.69,72.29c6.71,25.59,5.75,52.43,9.75,78.35
			c8.54,55.44,5.03,110.77,1.23,165.95c-2.24,32.43-11.56,64.32-16.52,96.63c-5.12,33.31-14.27,65.68-21.62,98.45
			c-9.41,41.95-16.12,84.28-22.1,126.77c-3.95,28.06,1.36,55.11,7.76,85.08c6.47-19.42,1.94-36.25,7.93-53.14
			c3.42-9.64,6.81-22.59,5.62-33.9c-1.65-15.66,5.01-29.93,4.77-45.3c-0.11-7.03,9.71-12.43,9.07-20.61
			c-0.74-9.4,1.79-18.06,2.93-27.06c8.97-70.55,35.25-135.78,60.19-201.38c14.9-39.21,32.74-77.3,47.56-116.54
			c20.69-54.79,41.3-109.69,52.49-167.53c1.84-9.49,7.52-18.08,8.29-28.15c0.18-2.36,2.52-5.37,4.7-6.64
			c11.62-6.71,23.5-12.96,35.46-19.46c6.97,10.81,5.73,21.96,7.01,32.35c7.58,61.63,24.84,121.44,34.33,182.59
			c4.34,27.93,12.1,55.88,9.86,84.78c-0.8,10.28,0.96,16.13,14.37,11.03c13.92-5.3,23.94,5.25,32.58,14.37
			c25.25,26.65,43.38,58.49,62.88,89.22c20,31.5,46.58,43.22,79.84,29.3c20.47-8.57,33.58-27.53,45.99-45.69
			c25.6-37.47,30.81-79.68,26.78-123.43c-1.03-11.17,2.16-17.39,11.01-23c10.25-6.49,20.57-12.54,33.99-16.82
			c7.43,72.63,12.27,144.25,2.57,216.99c47.75-18.87,84.72-51.58,129.37-75.34c-2.22,15.27-13.88,19.72-22,26.02
			c-29.6,22.98-62.32,41.09-95.72,57.97c-12.05,6.09-23.79,12.81-35.6,19.38c-6.23,3.47-12.61,4.36-18.62,0.35
			c-5.95-3.96-2.69-9.76-2.52-15.29c0.61-20.07,0.24-40.18,0.24-60.75c-22.62,29.47-56.97,44.29-89.01,61.85
			c-26.86,14.73-56.15,22.08-85.03,3.34c-13.47-8.74-22.06-22.42-30.66-35.49c-14.99-22.77-28.57-46.48-48.11-70.01
			c-1.5,28.63-3.96,54.08-3.77,79.52c0.12,16.54-6.66,26.13-21.54,29.91c-8.2,2.08-13.92,9.8-24.6,9.25
			c-1.25-23.27-1.81-46.45-3.88-69.49c-3.21-35.86-0.55-71.97-5.2-107.76c-0.49-3.8-2.99-9.01,3.91-11.52
			c4.01-1.45,2-7.76,0.05-7.77c-9.42-0.03-7.01-7.14-7.79-11.86c-4.65-28.02-9.27-56.04-13.27-84.16
			c-1.06-7.47-2.53-14.75-4.86-21.83c-3.11-9.46-6.75-18.4,1.77-27.43c3.38-3.58,1.36-8.82-1.47-13.91
			c-4.64,4.23,2.88,9.28-1.65,12.87c-6.48-1.16-2.7-10.78-10.98-12.09c-7.63,20.91-14.66,42.48-23.34,63.36
			c-13.22,31.8-25.36,64.02-38.77,95.76c-21.88,51.8-42.19,104.17-58.31,158.31c-13.76,46.2-23.91,93.13-33.75,140.03
			c-8.5,40.51-10.67,82.34-15.82,123.57c-4,31.97-8.08,63.93-12.53,95.83c-1.59,11.4-9.49,18.36-20.02,21.3
			c-6.31,1.76-10.86,5.13-15.76,10.21C1575.13,2556.82,1572.12,2556.82,1567.99,2556.82z M1624.07,1964.65
			c6-11.21,0.51-22.95,3.74-34.28c-1.34-0.05-2.68-0.1-4.02-0.16C1623.8,1941.25,1623.8,1952.28,1624.07,1964.65z"/>
		<path d="M2589.82,1910.72c-9.98,21.52-21.43,30-51.23,38.2c1.2-12.55,2.61-24.01,14.03-30.86c11.55-6.93,23.61-12.99,36.32-19.84
			C2589.82,1901.73,2589.82,1905.64,2589.82,1910.72z"/>
		<path d="M1185.32,1707.45c1.19-20.65-5.65-39.36-8.67-58.16c-4.4-27.36-8.34-55.96-23.16-80.82c-0.47-0.78-1.34-1.58-1.33-2.36
			c0.45-22.96-8.54-43.32-16.77-64.09c-11.39-28.75-21.22-58.12-32.39-86.96c-4.95-12.77-8.79-26.21-18.72-36.71
			c-4.76-5.03-0.64-10.14,3.47-13.18c8.59-6.36,17.94-11.56,29.53-14.85c3.96,13.01,8.86,24.96,11.07,37.39
			c3.16,17.7,13.48,32.32,19.07,48.98c3.77,11.24-4.94,22.48,3.29,33.2c3.83,4.99,5.46,11.54,13.91,13.44
			c-10.36,10.35-3.68,20.67,1.94,26.99c13.49,15.16,18.8,33.58,23.83,51.8c7.97,28.82,14.55,58.12,21.02,87.28
			c9.63,43.45,13.55,88,19.02,132.24c6.58,53.23,8.69,106.89,18.01,159.93c5.9,33.58,11.22,67.09,20.6,99.9
			c1.36,4.74,2.37,9,9.64,10.84c3.84-18.18,9.33-35.67,10.28-54.45c0.86-17.09,3.81-34.07,5.38-51.14
			c5.36-58.2,8.65-116.66,16.26-174.56c8.03-61.1,14.93-122.35,25.77-183.17c8.43-47.33,18.43-94.32,27.59-141.46
			c5.68-29.21,15.95-57.51,23.96-86.28c12.4-44.5,26.36-88.67,36.34-133.72c6.62-29.88,28.49-40.79,51.53-52.17
			c7.3-3.6,11.02,2.12,14.03,7.89c12.09,23.1,17.51,48.33,21.37,73.63c6.76,44.27,9.23,89.03,11.56,133.74
			c0.32,6.14,2.43,10.36,9.39,8.76c8.43-1.93,10.99,1.99,13.71,9.52c9.84,27.22,23.37,51.97,50.02,66.99
			c9.54,5.38,20.12,10.19,28.9,2.92c29.12-24.11,53.81-9.78,78.77,6.89c6.22,4.15,12.53,8.17,18.65,12.45
			c24.5,17.14,34.66,13.4,47.93-10.49c8.53-15.36,17.76-31.11,20.14-48.98c4.03-30.3,27.49-40.17,51.02-50.11
			c6.74-2.85,10.24,2.94,13.61,7.29c11.38,14.7,13.62,33.63,22.63,49.5c3,5.27,4.34,12.81,11.8,11.68c7.07-1.06,7.77-8.56,8.82-14.5
			c0.56-3.17,1.59-7.84-0.03-9.56c-11.18-11.95-10.11-29.22-18.99-42.03c-6.92-9.99-1.9-29.23,9.22-34.14
			c7.34-3.24,14.26-7.02,20.67-11.8c15.28-11.4,27.41-10.06,40.65,3.82c3.94,4.12,6.83,11.21,14.46,9.01
			c7.22-2.08,7.7-9.19,8.62-14.96c3.02-18.94,11.79-36.48,13.25-55.76c0.42-5.59,3.7-9.43,8.37-12.24
			c6.79-4.09,13.55-8.22,20.36-12.28c17.99-10.72,25.83-9.32,39.32,7.52c14.92,18.62,29.3,37.69,44.51,56.08
			c22.47,27.16,50.1,40.88,86.96,39.12c45-2.15,89.28-9.75,134.02-13.48c14.46-1.21,28.71-1.75,45.37-0.3
			c-7.71,9.93-18.63,10.04-26.48,12.85c-36.6,13.11-75.15,17.67-113.7,22.47c-29.19,3.64-57.86,10.13-87.69,8.65
			c-30.36-1.51-54.31-14.62-75.36-35.38c-5.48-5.4-2.66-11.1-3.08-16.53c-4.8-3.92-12.06-0.8-15.7-7.94
			c3.57-7.91,6.75-17.04-8.99-11.9c-4.47-3.41-2.38-8.35-4.03-12.18c-11.69-3.16-11.9,5.69-13.77,12.64
			c-5.96,22.12-12.73,43.84-25.52,63.29c-4.06,6.16-8.64,10.68-15.34,13.69c-9.31,4.18-18.38,9.64-27.66,12.99
			c-14.93,5.4-17.41,14.96-16.29,28.24c1.53,18.18-6.93,30.29-23.13,37.89c-8.02,3.76-16.06,7.72-23.38,12.65
			c-9.75,6.55-18.06,4.91-24.56-3.68c-6.38-8.43-13.79-14.45-23.33-19.27c-5.49-2.78-8.42-10.6-12.99-16.8
			c-14.88,31.11-33.89,57.12-67.89,69.15c-11.98,4.24-20.77,14.99-35.05,16.46c-15.52,1.59-24.48-7.94-32.9-16.69
			c-23.92-24.86-45.48-29.78-74.93-14.39c-4.14,2.16-8.01,4.86-11.92,7.43c-2.86,1.89-6.45,4.08-8.98,1.36
			c-14.8-15.91-42.68-14.27-51.38-38.37c-0.74-2.06-3.65-2.76-7.4-1.92c-4.75,11.11-2.13,23.42-1.99,35.25
			c0.13,11.39-3.77,18.55-14.31,23.02c-10.25,4.35-20,9.88-32.15,13.16c-5.78-9.37-4.56-20.42-5.48-30.6
			c-4.12-45.8-2.41-91.82-4.4-137.67c-1.61-37.19-4.51-74.62-13.91-111.01c-0.45-1.74-1.38-3.35-3.51-8.36
			c-7.76,24.87-15.02,46.72-21.37,68.84c-8.99,31.33-18.43,62.59-25.7,94.33c-15.09,65.93-27.93,132.26-38.03,199.26
			c-7.93,52.62-12.3,105.63-20.45,158.21c-3.62,23.4-4.94,47.41-6.78,71.18c-2.97,38.2-5.58,76.41-11.58,114.31
			c-4.88,30.83-6.7,62.12-16.49,92.16c-4.92,15.07-9.26,29.1-26.56,34.87c-8.76,2.92-16.46,8.9-24.9,12.93
			c-8.46,4.04-15.51,2.96-14.81-8.34c0.62-9.96-5.69-17.01-9.61-24.42c-13.97-26.49-20.43-54.54-22.44-84.03
			c-0.2-2.99-2.2-6.17-4.13-8.67c-5.82-7.54-8.53-18.65-6.07-24.92c6.78-17.26-0.72-33.08-4.89-47.15
			c-4.14-13.94-0.62-27.09-3.92-40.3c-3.51-14.03,2.62-28.45-3.58-43.78c-2.69-6.65,4.52-21.35,1.75-32.43
			C1191.26,1764.59,1193.94,1735.74,1185.32,1707.45z"/>
		<path d="M2013.89,841.85c-7.36-0.94-10.65,7.35-17.59,5.6c-3.37-3.7,0.39-5.93,2.02-8.26c12.72-18.26,33.67-24.22,52.09-33.66
			c5.21-2.67,11.23,2.48,12.71,8.31c2.51,9.9,6.34,19.61,6.29,30.07c-0.1,23.91,1.15,47.93-0.6,71.72
			c-3.69,50.38,18.42,68.07,54.4,88.28c31.19,17.53,65.19,30.2,92.94,53.61c4.73,3.99,13.88,1.66,14.98,10.78
			c-2.79,5.79-8.98,3.77-12.32,3.13c-27.86-5.35-56.72-6.44-83.23-17.76c-26.55-11.33-53.17-22.6-79.04-35.34
			c-7.46-3.68-17.4-9.76-13.03-21.28c-11.82-0.23-15.17-9.55-17.96-18.98c-7.59-25.72-3.07-51.92-2.32-77.9
			c0.49-16.88,1.04-33.57-3.48-50.04C2018.87,846.87,2018.09,843.77,2013.89,841.85z"/>
		<path d="M1873.88,749.22c-7.55-12.52-5.06-26.44-9.96-38.62c-2.15-5.33-4.06-10.19-10.24-14.73c-4.4,8.92-8.56,17.37-12.73,25.81
			c-1.97,3.99-2.77,10.56-9.03,8.32c-6.13-2.19-3.52-8.27-1.81-12.21c5.33-12.26,6.1-23.98-2.32-34.91c1.13-1.2,1.68-1.99,2.41-2.53
			c30.35-22.17,36.3-19.83,50.86,14.36c9.77,22.94,18.03,46.06,22.27,70.6c6.58,38.06,17.05,76.04,7.77,114.95
			c-5.06,21.22-10.95,42.28-19.09,62.73c-7.05,17.71-12.06,36.17-20.8,53.31c-3.66,7.17-7.81,10.75-15.26,7.37
			c-6.39-2.9-11.64-2.09-17.16,4.38c-3.78-9.5-0.84-16.92,2.12-22.95c9.09-18.52,15.9-37.9,21.72-57.49
			c5.42-18.23,9.74-36.86,13.97-55.48c4.36-19.19,4.31-38.37,4.46-57.34C1881.25,793.3,1876.76,771.77,1873.88,749.22z"/>
		<path d="M2437.52,1122.39c35.62,5.72,70.57,7.69,108.34,17.43c-14.4,2.77-25.39,4.13-35.92,7.09
			c-17.34,4.87-34.19,9.69-52.85,8.74c-48.06-2.44-94.46-12.24-137.34-33.44c-15.93-7.88-38.2-9.79-45.03-31.68
			c11.21-16.35,19.67-17.43,37.47-9.38c28.82,13.04,57.54,26.56,88.82,33.38C2412.76,1117.09,2423.53,1124.04,2437.52,1122.39z"/>
		<path d="M1783.25,874.76c-6.21,9.43-11.71,18.12-17.3,26.75c-4.53,6.99-11.81,8.74-19.36,9.63c-6.43,0.76-6.55-3.23-6.02-7.66
			c4.86-3.12,9.61,4.1,14.42-2.85c0.99-3.64-5.58-0.62-6.47-3.87c2-4.15,7.04,0.12,9.45-3.05c-7.61-9.26-5.63-19.79,5.76-24.3
			c5.1-2.02,7.1-4.66,9-9.29c3.88-9.44,6.29-19.5,16.04-26.08c4.2-2.84,8.83-10.03,1.94-16.68c-3.03-2.92-0.53-7.08,1.19-8.97
			c16.32-17.97,23.06-40.76,32.19-62.35c0.94-2.21,2.53-3.94,8.83-3.61C1821.38,788.62,1810.26,833.93,1783.25,874.76z"/>
		<path d="M2218.68,1484.26c6.68-3.25,12.5-5.9,20.74-9.64c-0.12,20.45-12.88,33.56-19.61,49.02
			c-8.19,18.82-29.73,16.48-43.07,27.91C2187.04,1527.09,2185.47,1495.78,2218.68,1484.26z"/>
		<path d="M1610.39,1690.35c0.14,3.6,2.62,6.85-0.83,8.5c-3.12,1.49-6.35-0.89-5.97-3.66c0.72-5.22-2.5-6.91-5.49-9.7
			c-1.92-1.79-1.73-5.45-0.05-7.87c2.19-3.15,3.15,2.43,6.25,0.55c-5.81-9.69,0.77-22.96-10.07-31.29
			c25.21-21.61,27.19-22.3,35.3-11.77C1607.78,1647.64,1614.68,1670.4,1610.39,1690.35z"/>
	</g>
</g>
</svg>
