<?xml version="1.0" encoding="utf-8"?>
<!-- Generator: Adobe Adobe Illustrator 24.2.0, SVG Export Plug-In . SVG Version: 6.00 Build 0)  -->
<svg version="1.1" id="Pixel_layer_xA0_Image_1_" xmlns="http://www.w3.org/2000/svg" xmlns:xlink="http://www.w3.org/1999/xlink"
	 x="0px" y="0px" width="3000px" height="3000px" viewBox="0 0 3000 3000" style="enable-background:new 0 0 3000 3000;"
	 xml:space="preserve">
<g>
	<g>
		<path d="M544.73,679.47c10.57,4.98,18.36,13.54,29.71,15.61c3.79,0.69,4.9,4.77,6,7.27c7,15.91,15.35,31.27,17.13,49.19
			c2.49,25.04,12.48,48.41,17.78,72.8c6.2,28.53,18.74,55.07,24.03,83.93c2.34,12.79,11.4,24.44,9.03,38.41
			c-3.73,22.01,7.35,42.1,7.62,63.53c0.21,16.6,1.21,33.27,0.07,49.79c-0.76,11.06,0.16,22.26,1.23,32.76
			c1.2,11.82-1.53,22.63-2,33.89c-0.14,3.31-0.59,7.66-4.86,9.23c-4.14,1.53-6.31,2.44-4.98,8.6c1.03,4.76-6.99,6.81-10.68,10.54
			c-10.22-8.17-24.78-8.62-29.9-22.66c-4.92-13.5-18.77-24.25-7.71-41.91c4.04-6.44,1.6-17.63,0.52-26.46
			c-3.05-24.93,1.99-49.96-1.47-74.79c-0.8-5.7,4.29-7.36,4.79-10.96c-10.51-50.55-19.14-101.6-40.89-148.63
			c-1.41,0.28-2.81,0.57-4.22,0.85c-2.83,21.74-6.24,43.42-8.37,65.23c-4.25,43.49-8.61,86.99-11.3,130.59
			c-1.51,24.41-2.89,48.95,0.32,73.59c1.21,9.27-1.2,19.32-1.46,29.1c-0.46,17.68,4.81,34.27,8.04,51.25c0.36,1.92,2.21,3.91,1,5.75
			c-7.52,11.31,1.89,20.63,3.74,30.72c0.98,5.33,0.96,10.34-0.24,15.28c-2.31,9.47-7.22,18.69,3.26,26.97
			c3.05,2.41,2.55,8.38,0.5,11.57c-10.26,15.94-4.67,30.9,0.75,46.63c2.58,7.5,5.19,16.66-1.35,24.14
			c-4.2,4.8-3.46,10.63-1.86,15.01c3.98,10.93,3.91,21.69-2.73,29.81c4.04,4.84,6.26,8.46,1.12,16.19
			c-5.67,8.52-5.19,21.21-1.25,31.71c5.09,13.58,3.56,26.94,1.97,40.76c-1.93,16.86-3.03,33.86-3.4,50.83
			c-0.49,22.79-0.85,45.54,4.65,68.1c3.09,12.66-3.56,23.11-13.45,25.57c-11.36,2.83-21.17-3.52-25.15-17.38
			c-10.04-34.95-16.39-70.54-19.13-106.87c-1.69-22.33-4.85-44.56-7.65-66.79c-3.92-31.08-1.92-62.32-2.18-93.46
			c-0.62-73.14-0.9-146.31,0.54-219.43c1-50.75,3.51-101.52,8.96-152.09c1.84-17.1,2.04-34.49,1.46-51.69
			c-0.5-14.82,6.22-27.92,8.01-42.23c0.97-7.79,3.17-15.72,3.49-23.87c1.58-41.39,6.62-82.63,5-124.15
			c-0.66-16.84,15.47-22.59,23.08-33.99c1.76-2.64,4.79-4.43,7.77-7.24C541.72,679.47,542.82,679.47,544.73,679.47z"/>
		<path d="M1006.04,2318.85c-2.04-8.67,2.93-13.57,7.41-18.95c11.05-13.28,24.24-24.92,30.26-42.04c1.89-5.38,1.61-10.61,1.27-15.52
			c-1.75-24.89-4.74-49.7-10.72-73.95c-1.52-6.16-2.24-12.12-1.9-18.18c1.01-17.75-2.11-35-5.43-52.27
			c-2.38-12.39-0.18-24.96-0.72-37.44c-1.12-25.8-6.74-51.91,0.16-77.8c0.99-3.71,0.67-7.38-0.29-11.61
			c-1.79-7.9-11.89-16.39-0.78-25.09c0.9-0.71-0.25-4.8-1.2-6.99c-10.75-24.88-8.74-51.68-12.27-77.67
			c-2.39-17.57-2.44-35.35-6.47-52.84c-3.17-13.75-8.25-27.89-3.12-42.5c1.78-5.07-3.47-7.8-4.29-12.32
			c-6.25-34.46-13.44-68.76-19.33-103.28c-2.05-12.02-1.31-24.52,0.41-37.13c7.93-1.08,14.67-5.16,22.66-5.59
			c4.2-0.22,8.14-1.84,10.93,2.5c3.13,4.86-4.45,5.18-3.96,8.99c15.73,19.17,9.16,40.43,6.01,61.47
			c10.47,2.16,17.29,18.09,12.37,28.14c-2.98,6.09-16.5,13.88,1.94,18.81c2.52,0.68,3.34,8.65,4.46,13.36
			c0.73,3.09,1.44,5.51,6.2,5.22c1.03-5.23,2.08-10.56,3.09-15.73c14.55-1.97,19.55-9.07,15.83-23.16
			c-1.02-3.85,0.31-6.45,1.97-8.98c2.34-3.55,2.82-8.06,0.88-10.51c-9.73-12.28-2.5-23.43,3.89-32.24
			c7.15-9.86,10.08-20.39,13.63-31.39c2.35-7.31,7.46-13.79,12.09-20.29c6.31-8.85,13.25-17.79,11.61-30.22
			c-0.89-6.75,3.27-13.2,7.9-17.01c14.88-12.22,25.3-27.12,34.31-44.05c3.24-6.09,8.99-14.91,18.77-15.96
			c5.9-0.63,5.07-7.62,10.02-9.89c9.75-4.46,19.54-8.85,28.37-15.45c4.67-3.49,11.81-7.29,18.58,0.08
			c2.31,2.51,8.48,2.53,12.75-0.05c9.03-5.46,16.1-4.66,26.11,1.19c11.65,6.81,20.16,17.62,32.7,22.82c4.83,2,9.45,4.46,7.5,11.82
			c-1.12,4.25,1.77,7.5,6.74,8.61c8.97,1.99,12.75,9.37,16.04,16.9c9.86,22.59,17.71,45.85,25.52,69.23
			c4.27,12.78,3.38,24.02,2.31,36.12c-0.26,2.93-1.5,6.62,1.32,7.82c9.04,3.84,6.05,12.03,4.49,16.83
			c-5.88,18.13-10.12,36.15-5.95,55.18c0.78,3.55-3.35,4.62-2.81,7.68c11.1,8.55,10.31,30.06-2,46.38
			c7.53,4.64,7.16,9.98-0.92,12.44c-6.98,2.12-4.33,7.79-6.71,10.58c1.45,5.85,7.07,1.24,9.58,5.68
			c-6.63,4.12-14.45,6.93-6.89,18.17c2.12,3.16,3.59,20.07-10.29,23.47c-3.3,0.81-3.8,4.37-4.53,6.9
			c-5.05,17.51-10.76,34.86-13.84,52.9c-0.33,1.92-1.81,3.62-0.6,5.75c5.03,8.84,4.06,19.94-3.97,23.83
			c-16.01,7.76-12.83,23.83-17.7,36.4c14,15.79-7.99,24.45-6.48,36.82c-4.27,3.61-5.28-2.53-9.49-0.39
			c-11.49,18.95-18.35,40.91-23.98,63.37c-1.59,6.36-3.79,12.27-8.58,17.4c-4.74,5.08-7.05,11.71-7.82,18.97
			c-0.67,6.35-1.54,13.08-8.59,16.56c-1.52,0.75-3.08,3.17-3.12,4.86c-0.29,10.95-5.1,20.22-10.27,29.39
			c-2.88,5.1-3.47,9.96,0.96,14.52c-4.49,2.34-15.62,0.74-5.27,11.64c-9.08-0.97-13.4,6.23-14.49,11.29
			c-2.12,9.78-10.64,15.69-12.4,25.43c-0.95,5.28-5.86,8.19-11.77,9.32c-5.14,0.98-9.76,2.42-4.58,10.18
			c2.53,3.79-3.9,9.54-6.91,13.53c-9.68,12.86-18.06,26.97-25.46,40.71c-4.07,7.56-11.93,20.99-3.47,32.47
			c1.67,2.27,1.12,3.35,0.25,5.21c-3.88,8.21,0.13,13.82,6.44,18.35c-1.53,4.08-4.59-0.62-6.31,1.65
			c-1.27,11.08-3.03,22.22-3.69,33.43c-0.53,8.92-8.76,12.23-13.31,12.38c-8.88,0.3-21.13,3.89-26.13-7.26
			c-3.76-8.39-10.18-12.53-17.33-14.99c-5.96-2.05-11.22-3.66-13.28-9.7c-4.76,1.15-4.57,5.59-7.37,7.34
			c-9.02-0.1-15.29-9.95-26.12-7.35c-0.6-6.15-2.6-11.23-10.85-12.51c-10.52-1.64-13.07-9.66-8.61-18.38
			C1003.56,2328.06,999.99,2322.12,1006.04,2318.85z M1186.79,1564.46c-1.29,10.48-7.27,20.71-13.4,26.61
			c-14.71,14.17-17.75,33.18-26.58,49.63c-6.4,11.92-11.93,24.34-20.75,36.67c0.6,1.46,4.27,4.62-1.35,8.47
			c-6.37,4.37-3.19,13.49-7.42,19.32c6.11,1.45,7.03,6.44,5.76,10.98c-5.15,18.46-8.07,37.38-19.07,54.25
			c-11.96,18.34-5.91,39.38-1.4,58.61c2.9,12.33,3.17,30.12-5.43,40.15c-8.99,10.5-5.7,34.36,5.96,40.75
			c-0.24,4.01-0.49,8.19-0.79,13.39c-2.42-3.49-2.03-7.91-8.19-7.12c-0.58,11.76,1.97,23.92-1.35,35.64
			c-2.15,7.59,5.41,5.92,8.15,7.46c0.83,7.87-7.07,10.47-6.79,17.66c0.51,13.24-0.47,26.56-1.13,39.83
			c-0.9,18.07-0.53,36.09,2.91,53.86c1.34,6.89,2.16,17.98,4.43,19.83c7.48,6.12,3.56,11.36,2.22,16.93
			c-2.42,10.06-2.54,19.01,0.87,29.67c2.24,7.01,7.43,11.06,9.7,17.47c2.97,8.4-0.27,17.06,2.8,25.77c5.41-0.19,8.2-2.63,10.34-7.3
			c2.7-5.9,5.07-13.23,9.91-16.64c15.51-10.92,18.65-29.34,23.53-44.22c7.53-22.93,26.23-40.17,29.45-64.52
			c0.14-1.04,1.33-2.06,2.24-2.85c5.69-4.95,7.68-12.04,7.8-18.69c0.27-14.88,5.88-27.87,13.56-39.64
			c6.98-10.7,5.94-24.68,12.73-33.69c7.65-10.14,6.66-22.53,13.53-32.16c1.17-1.64,0.84-4.79,0.4-7.09
			c-3.29-17.05,2.76-29.83,19.68-39.63c-5.94-8.11,0.08-15.68,4.14-20.9c8.73-11.23,11.47-22.71,9.41-36.27
			c-0.52-3.41,0.13-7.52,1.63-10.64c13.17-27.43,13.23-27.38,7.31-50.1c-0.38-1.46-0.12-3.47,0.62-4.77
			c3.02-5.29,2.15-10.82,2.14-16.52c0-5.08,0.56-13.22,3.51-14.69c9.55-4.74,6.72-14.2,4.61-17.85c-4.15-7.2-2.58-13.69-1.28-19.88
			c3.31-15.8,5.66-31.26,0.06-47.04c-1.03-2.89-1.28-7.39,0.29-9.64c7.25-10.43-1.13-17.56-4.76-25.57c-1.37-3.02-2.22-5.94-3-9.13
			c-5.51-22.33-12.09-44.07-33.98-56.76c-4.36-2.53-9.38-6.8-13.45-4.36C1219.51,1539.89,1198.11,1543.48,1186.79,1564.46z"/>
		<path d="M1814.87,1982.06c-6.58,24.07-14.93,46.69-24.45,68.76c-8.43,19.57-44.8,26.41-61.64,11.86
			c-15.36-13.27-29.46-27.96-35.11-48.44c-0.93-3.35-1.99-6.52-1.17-10.6c0.99-4.89,0.92-11.56-1.72-15.35
			c-12.84-18.44-12.69-40.92-20.39-60.8c-7.09-18.29-6.39-38.56-16.01-56.19c-2.82-5.17-4.72-10.71-10.2-17.2
			c-3.13,19.36-9.87,35.27-11.37,53.46c-2.73,33-2.06,66.3-10.7,99.08c-5.85,22.2-10.97,44.64-17.84,66.6
			c-0.37,1.17-0.34,2.54-0.93,3.55c-12.67,21.43-17.19,47.17-34.32,66.18c-14.74,16.35-28.1,34.85-45.55,47.64
			c-25.76,18.87-56.59,30.76-88.71,22.34c-31.37-8.22-59.17-25.07-75.65-55.37c-1.72-3.16-3.14-6.94-3.24-10.47
			c-0.92-33.16-8.14-65.73-3.27-99.62c4.24-29.42,6.09-59.56,1.7-89.95c-2.57-17.8-1.16-36.68-0.81-55.06
			c0.07-3.9-0.26-10.5,7.94-9.25c3.66,0.56,5.73-3.52,6.69-6.36c3.37-10,12.09-10.07,19.49-9.43c8.94,0.77,12.24,7.25,14.67,16.57
			c6.76,25.94,0.52,51.81,2.43,77.52c0.97,13.09,1.5,26.23,0.73,39.06c-1.88,31.14,1.25,62.11,1.48,93.16
			c0.08,10.73,2.25,22.39,9.2,32.21c6.54,9.25,13.16,13.09,25.63,11.08c11.59-1.87,23.52-0.97,34.1-7.39
			c13.53-8.21,26.62-16.78,30.89-33.59c0.78-3.08,2.66-5.63,4.88-8.24c13.96-16.45,23.32-35.2,26.73-56.74
			c1.61-10.13,7.56-18.69,10.23-28.73c6.67-25.07,12.32-50.45,13.99-76.06c1.32-20.35,7.03-39.97,7.32-60.17
			c0.17-11.97,3.14-23.33,5-34.86c1.25-7.71,2.68-16.93,13.41-20.07c6.45-1.89,7.27-9.27,8.32-15.42
			c1.03-6.03,1.52-12.27,3.45-18.01c2.38-7.08,0.55-18.9,14.61-15.38c1.8,0.45,1.57-2.46,2.44-3.58c7.15-9.31,21.07-11,30.52-3.87
			c11.26,8.5,19.26,19.9,26.74,31.51c13.98,21.71,20.25,47.25,32.71,69.46c7.72,13.77,7.41,29.89,16.25,42.68
			c10.81,0.73,17.45-7.48,25.87-11.1c15.07-6.49,28.51-2.56,40.86,4.27c9.28,5.14,16.7,13.87,24.41,21.55
			c5.5,5.47,7.6,12.36,5.33,20.32C1816.28,1955.87,1818.8,1968.95,1814.87,1982.06z"/>
		<path d="M998.9,1181.27c1.6,4.05,4.7,1,6.15,2.03c5.33,10.61-12.73,22.05,2.4,31.97c-12.54,31.57-38.5,46.8-69.07,55.79
			c-9.43,2.77-13.84,7.32-13.41,17.17c1.37,31.77-7.25,61.39-19.42,90.34c-5.92,14.08-11.4,28.42-12.62,43.96
			c-1.18,15.01-8.79,26.3-21.17,34.56c-15.56,10.38-36.03,1.45-42.13-16.66c-5.06-15.03-2.79-27.01,6.49-39.57
			c4.26-5.76,6.15-13.92,5.81-22.03c-0.93-22.45-6.35-44.1-10.81-65.95c-4.15-20.34-7.12-40.93-11.56-61.2
			c-4.17-19.04-8.94-38.01-14.64-56.65c-6.28-20.56-9.09-41.98-16.5-62.27c-3.13-8.57-7.92-15.88-11.95-23.83
			c-9.53,5.23-18.42,10.16-27.37,15c-19.45,10.52-38.96,0.34-42.27-22.92c4.67,0.86,8.46,0.86,12.95-2.51
			c4.58-3.45,9.68-8.67,18.86-4.94c6.24,2.54,12.59-7.27,14.3-14.01c3.81-14.99,19.44-16.25,27.67-25.94
			c2.63-3.09,9.12-2.57,11.13,1.03c6.74,12,21.42,18.72,24.12,32.59c3.67,18.93,12.72,35.84,17.59,54.36
			c5.81,22.13,13.48,43.82,19.32,66.07c5.07,19.28,6.03,39.46,12.43,58.2c5.92,17.33,7.02,35.81,14.2,52.67
			c1.38,3.24,2.24,7,5.99,8.89c4.13-2.89,5-7.55,6-11.74c3.57-15.04,6.6-30.22,10.01-45.3c1.39-6.15-1.76-10-5.75-13.91
			c-19.54-19.1-13.47-58.01-0.49-74.17c5.05-6.28,15.7-10.42,22.76-15.15c23.99,9.9,12.54,30.57,14.67,49.57
			c6.74-8.22,14.31-12.08,16.57-21.08c1.34-5.34,5.82-9.6,10.9-11c7.67-2.11,14.38-3.76,20.77-10.05
			C985.94,1169.52,994.8,1172.11,998.9,1181.27z"/>
		<path d="M1981.93,1981.86c-13.88-3.74-20.94-14.67-29.61-23.49c-3.4-3.46-6.34-7.03-10.51-9.94c-12.13-8.48-11.27-8.61-17.13,4.2
			c-10.61,23.2-17.58,47.51-21.62,72.47c-1.62,10.02-0.08,20.17-8.35,28.26c-2.52,2.47-3.27,7.09-8.09,5.51
			c-4.59-1.5-9.99-2.78-10.29-9.02c-1.05-22.45-3.14-44.94,4.25-66.92c5.45-16.22,10.42-32.82,14.23-49.29
			c5.96-25.71,46.15-38.92,67.03-20.65c10.41,9.11,20.48,19.06,31.35,27.07c14.61,10.76,33.25,15.35,51.62,18.24
			c4.42,0.7,8.83,1.65,13.28,1.92c7.71,0.47,15.27,1.15,18.65-8.91c2.01-5.99,7.86-9.91,14.19-9.93c9.36-0.02,17.48-3.32,26.06-6.2
			c7.12-2.39,14.74-2.89,22.79-0.68c12.8,3.51,26.3,1.19,39.65,4.93c14.57,4.08,27.6,11.93,43.92,13
			c13.29,0.87,26.51,0.48,38.43-2.28c32.35-7.49,61.74-22.52,87.17-44.4c14.9-12.82,28.76-26.46,38.82-43.78
			c5.75-9.91,6.76-21.72,14.08-30.89c6.53-8.17,28.71-14.62,38.19-10.54c2.9,1.25,3.94,3.34,4.93,6.34
			c6.28,18.91-1.2,34.87-12.85,47.97c-15.64,17.59-30.5,36.28-50.44,49.66c-22.54,15.12-44.02,32.03-71.6,37.87
			c-8.79,1.86-15.71,8.33-23.11,13.33c-28.36,19.16-57.61,26.36-91.02,11.87c-20.4-8.85-42.39-14.3-65.35-11.11
			c-3.24,0.45-6.71-0.02-9.05,2.91c-14.73,18.51-36.3,17.65-56.16,17.46C2037.32,1996.59,2008.86,1995.24,1981.93,1981.86z"/>
		<path d="M1497.6,955.85c5.91-3.76,11.07-7.05,16.48-10.5c-10.92,33.7-26.96,64.65-50.48,90.33
			c-22.38,24.43-50.84,40.77-84.89,43.57c-17.54,1.44-35.96,1.08-51.87,7.53c-24.32,9.87-49.59,19.44-55.24,52.24
			c-4.23,24.52-11.95,48.8-21.6,72.15c-6.6,15.97-14.31,22.86-26.29,21.63c12.38-35.94,12.99-73.31,13.75-110.71
			c0.35-17.17,2.38-33.71,14.24-47.98c7.1-8.54,17.01-12.31,25.23-18.81c21.62-17.11,49.23-21.24,74.05-31.46
			c3.91-1.61,8.94-1.08,13.38-0.7c31.03,2.68,56.99-7.84,79.96-28.45c10.51-9.42,22.53-17.41,34.73-24.59
			C1485.73,966.18,1488.93,958.25,1497.6,955.85z"/>
		<path d="M1073.16,1064.78c2.94,27.23,8.94,53.05,9.89,79.48c0.12,3.28,0.03,6.6,0.59,9.81c2.16,12.33,9.02,15.98,20.27,11.37
			c22.05-9.03,43.24-10.15,62.59,8.51c-3.23,3.36-6.84,7.79,0.24,11.4c-9.18,14.2-23.13,20.25-36.87,26.92
			c-8.24,3.99-15.49,9.39-24.76,12c-21.15,5.95-48.26-1.89-59.49-22.23c-7.91-14.32-12.85-30.34-11.73-46.63
			c2.32-33.79-3.45-66.53-9.53-99.39c-2.66-14.4-4.84-28.91-6.76-43.43c-0.68-5.13,0.87-10.33,7.21-10.93
			c6.92-0.65,12.24-4.26,17.44-7.96c12.23,5.46,17.85,13.65,19.1,27.7C1062.63,1035.74,1074.95,1047.9,1073.16,1064.78z"/>
	</g>
</g>
</svg>
