<?xml version="1.0" encoding="utf-8"?>
<!-- Generator: Adobe Adobe Illustrator 24.2.0, SVG Export Plug-In . SVG Version: 6.00 Build 0)  -->
<svg version="1.1" id="Pixel_layer_xA0_Image_1_" xmlns="http://www.w3.org/2000/svg" xmlns:xlink="http://www.w3.org/1999/xlink"
	 x="0px" y="0px" width="3000px" height="3000px" viewBox="0 0 3000 3000" style="enable-background:new 0 0 3000 3000;"
	 xml:space="preserve">
<g>
	<g>
		<path d="M293.11,1284.47c7.6-48.25,16.43-94.87,30.74-140.17c23.49-74.32,53.25-146.02,89.12-215.35
			c39.47-76.3,83.38-149.72,134.94-218.46c32.56-43.41,66.84-85.42,104.22-124.81c5.04-5.31,6.93-9.78,4.1-17.67
			c-25.73-71.75-51.95-143.38-73.14-216.64c-4.1-14.16-9.54-28.43-8.18-43.95c0.74-8.47,1.97-16.61,11.96-16.65
			c10.02-0.03,11.84,7.31,11.23,16.43c-1.48,22.24,7.69,42.49,14.49,62.77c20.28,60.46,42.05,120.42,63.28,180.56
			c0.48,1.36,1.54,2.52,3.03,4.89c25.03-23.72,49.55-47.26,74.39-70.44C809.66,432.42,869,383.43,930.91,337.56
			c26.97-19.98,54.21-39.51,82.23-58.07c42.82-28.35,87.43-52.62,137.43-68.86c12.45-0.53,23.93-0.53,36.85-0.53
			c6.71,3.25,12.09,6.34,17.24,9.78c21.7,14.55,25.18,36.48,23.76,60.1c-1.86,30.82-14.18,58.46-30.48,83.57
			c-35.01,53.93-78.17,101.11-124.15,146.07c-98.37,96.19-201.27,187.76-295.05,288.64c-8.11,8.72-11.67,15.44-6.84,29.36
			c22.12,63.72,42.94,127.96,61.77,192.73c18.11,62.28,36.82,124.42,52.09,187.53c11.86,49,27.25,97.18,38.15,146.36
			c9.58,43.2,19.83,86.44,23.69,130.78c0.8,9.21,4.11,18.17,5.37,27.37c2.25,16.4-7.9,30.56-22.17,31.91
			c-14.44,1.36-26.11-10.6-25.92-28.28c0.73-65.58-13-128.91-26.87-192.56c-14.04-64.43-28.95-128.66-45.74-192.34
			c-21.91-83.1-44.21-166.17-71.59-247.75c-5.04-15.01-7.42-30.91-14.49-45.89c-8.23,0.27-11.24,7.05-15.43,11.71
			c-52.9,58.84-105.66,117.82-158.5,176.72c-3.45,3.85-7.06,7.61-10.91,11.05c-8.36,7.47-18.1,11.41-28.15,4.55
			c-10.06-6.87-14.3-16.53-11.23-29.59c8.95-37.99,31.14-68.74,54.97-97.85c36.32-44.37,74.9-86.88,122.48-119.97
			c1.7-1.18,3.16-2.7,4.86-3.88c22.92-15.82,22.52-15.67,13.14-42.76c-15.86-45.75-31.16-91.69-47.08-138.7
			c-17.37,12.54-29.15,29.72-42.19,45.12c-70.37,83.05-131.08,172.71-182.46,268.82c-38.28,71.6-71.69,145.25-97.08,222.3
			c-15.81,47.97-26.62,97.37-35.23,147.18c-0.88,5.07-1.73,10.7,1.06,15.24c4.69,7.65,7.08,14.62-3.34,18.85
			c-9.37,3.81-14.67-1.1-17.6-11.05C293.11,1304.73,293.11,1295.31,293.11,1284.47z M923.53,378.73
			c-31.29,23.78-62.08,48.18-91.72,74.01c-46.7,40.71-93.02,81.81-135.67,126.86c-5.12,5.41-6.65,10.11-3.79,17.78
			c11.16,29.88,20.74,60.35,32.03,90.18c9.92,26.19,15.63,54.01,29.71,79.85c54.06-54.1,107.41-107.32,162.43-158.88
			c54.57-51.14,111.3-99.95,163.11-154.11c35.84-37.46,71.03-75.28,97.9-119.77c10.87-18,19.23-37.68,21.42-59.27
			c2.52-24.87-12.95-40.08-37.54-35.93c-8.59,1.45-17.2,3.65-25.34,6.72C1057.13,275.9,992,327.94,923.53,378.73z"/>
		<path d="M2635.11,1521.36c-9.79,41.25-40.96,64.73-70.03,89.15c-38.78,32.58-81,60.68-122.37,89.89
			c-65.44,46.2-131.59,91.27-200.94,131.46c-28.6,16.57-57.57,32.5-86.37,48.72c-2.66,1.5-5.18,3.66-10.7,0.55
			c9.81-12.81,23.25-21.14,34.96-30.85c72.47-60.11,149.32-114.36,226.36-168.38c47.38-33.22,94.75-66.52,138.28-104.86
			c15.14-13.34,28.87-27.86,42.39-46.9c-21.21,1.14-37.84,8.99-54.88,14.59c-84.53,27.76-165.02,65.36-244.72,104.23
			c-99.22,48.39-196.63,100.35-292.42,155.39c-101.29,58.2-199.89,120.57-296.88,185.55c-61.36,41.11-121.4,84.1-181.24,127.4
			c-69.07,49.97-137.04,101.35-204.27,153.72c-52.61,40.99-104,83.54-156.47,124.71c-84.13,66.03-163.55,138.13-253.52,196.62
			c-12.2,7.93-25.72,13.16-39.3,18.14c-8.2,3-15.56,0.81-21.28-5.34c-5.41-5.82-6.64-12.85-2.43-20.05
			c17.97-30.77,34.62-62.49,61.89-86.59c3.08-2.72,6.68-4.85,9.98-7.34c7.3-5.5,14.01-6.27,19.95,2.03
			c6.03,8.43,0.56,14.99-5.39,18.19c-18.73,10.08-28.75,27.96-41.62,43.32c-2.24,2.68-5.49,5.04-4.01,9.52
			c4.66,3.66,7.34-0.47,10.53-2.76c54.64-39.19,106.02-82.44,157.38-125.74c35.94-30.3,72.2-60.23,108.9-89.61
			c69.02-55.25,138.08-110.46,207.83-164.79c78.26-60.96,158.11-119.85,239.29-176.84c95.98-67.38,193.72-132.2,294.28-192.56
			c64.62-38.79,129.78-76.79,195.89-112.98c91.92-50.31,185.41-97.77,280.82-141.16c60.98-27.73,122.86-53.75,187.62-71.67
			c13.58-3.76,27.79-6.73,42.77-3.1c15.93,3.87,25.35,12.53,29.28,29.2C2635.11,1515.53,2635.11,1517.86,2635.11,1521.36z"/>
		<path d="M605.17,2698.11c-20.05-41.22-38.93-82.5-58.1-123.64c-40.9-87.83-81.29-175.95-116.1-266.35
			c-27.58-71.63-48.99-145.4-65.58-220.48c-15.81-71.53-28.33-143.67-35.29-216.54c-8.12-85.03-11.27-170.42-6.42-255.79
			c1.36-24.01,6.22-48.1,14.21-71.19c11.23-32.46,43.58-41.26,79.43-22.15c34.38,18.33,61.44,45.52,87.4,73.45
			c56.24,60.53,102.9,127.96,137.24,203.28c16.83,36.92,32.73,74.38,43.1,113.96c-9.65-39.86-12.79-80.5-15.56-121.07
			c-2.18-32.02-0.38-64.06,11.47-94.52c13.91-35.74,48.08-43.75,77.27-18.72c42.21,36.2,66.36,84.03,84.79,134.79
			c26.93,74.14,43.39,151.32,62.76,227.63c7.34,28.92,13.85,58.04,20.6,87.1c2.48,10.69,8.02,20.07,12.21,30.03
			c5.88,13.97,2.14,19.03-13.14,18.75c-20.41-0.38-35.84-16.98-42.33-44.49c-20.8-88.15-41.26-176.39-63-264.31
			c-12.19-49.33-30.85-96.21-61.25-137.65c-7.69-10.48-16.54-19.67-27.03-27.48c-8.14-6.06-13.36-4.33-16.51,4.57
			c-3.77,10.67-9.56,21.47-9.89,32.35c-1.04,35.07-2.07,69.99,3.89,105.19c12.98,76.7,28.58,153.1,33.83,230.96
			c0.07,1.03,0.25,2.06,0.29,3.09c0.62,17.31-7.43,32.53-18.1,34.26c-10.96,1.78-20.74-10.52-25.84-28.34
			c-26.22-91.53-43.53-185.9-83.48-273.1c-44.25-96.59-104.53-181.64-186.75-250.07c-11.61-9.67-24.59-16.98-38.81-22.22
			c-11.45-4.22-18.99-0.05-24.2,10.11c-12.36,24.11-12.79,50.74-15.98,76.73c-6.48,52.76-0.37,105.33,1.76,158.05
			c2.06,51.23,8.54,101.88,13.95,152.69c3.98,37.4,11.61,74.27,19.41,111.08c8.86,41.81,18.19,83.43,29.36,124.74
			c16.03,59.26,35.68,117.17,59,173.83c29.8,72.39,60.01,144.62,91.29,216.37c16.86,38.67,34.09,77.15,49.33,116.5
			c2.61,6.73,2.55,11.9-3.37,17.69C608.97,2698.11,607.59,2698.11,605.17,2698.11z"/>
		<path d="M2119.28,1323.95c-28.97,33-54.9,67.27-88.78,94.26c-26.37,21.01-50.3,18.02-69.02-9.95
			c-14.67-21.91-16.21-22.13-35.62-4.72c-2.7,2.42-5.09,5.18-7.78,7.6c-25.32,22.85-35.17,48.55-16.33,80.62
			c5.42,9.22,6.11,19.91-0.18,29.51c-9.55,14.56-29.44,15.51-43.29,2.4c-15.36-14.53-20.03-33.09-20.44-53.41
			c-0.57-28.19-36.57-80.74-61.12-88.39c-8.22,19.34-12.29,40.02-17.36,60.25c-14.44,57.56-34.69,112.35-71.08,160.09
			c-8.88,11.65-19.25,22.2-32,28.92c-27.08,14.27-52.3,0.51-61.1-30.88c-11.53-41.14-19.75-83.36-39.82-121.77
			c-15.44-29.56-33.32-56.8-60.85-76.91c-10.26-7.49-21.2-13.34-32.97-16.81c-27.53-8.12-49.46,8.61-50.61,38.29
			c-0.94,24.27,6.97,46.78,16.17,68.77c4.97,11.9,10.81,23.43,16.13,35.19c2.05,4.53,2.71,9.72-1.87,12.64
			c-5.8,3.7-10.31-0.47-12.57-5.25c-17.64-37.36-35.74-74.88-35.5-117.4c0.27-48.11,36.69-67.27,79.02-54.43
			c50.02,15.18,80.17,53.91,105.41,97.3c21.99,37.81,33.36,79.64,47.49,120.45c6.46,18.66,12.07,20.38,24.91,5.76
			c23.54-26.8,37.69-59.02,50.97-91.7c14.82-36.45,22.01-75.11,32.44-112.76c13.93-50.24,51.16-55.89,89.16-23.59
			c14.96,12.71,26.21,28.86,39.44,45.29c11.9-11.9,21.66-23.89,33.72-33.5c12.65-10.08,25.22-18.98,42.49-20.18
			c21.5-1.49,39.04,4.19,50.59,22.92c7.95,12.89,16.25,12.45,25.9,2.61c23.09-23.56,46.23-47.08,69.14-70.82
			c9.38-9.72,19.48-18.97,31.23-25.01c16.47-8.46,33.49-5.65,47.85,5.91c11.54,9.29,22.19,9.86,35.58,3.72
			c36.17-16.58,65.82-42.43,97.04-66.07c26.8-20.29,53.31-40.94,84.49-54.44c39.39-17.06,68.12-5.4,84.72,34.63
			c4.14,9.98,8.57,19.87,11.96,30.11c2.47,7.45,7.25,10.03,14.14,8.7c30.2-5.81,44.74,11.78,55.01,36.16
			c8.08,19.17,11.03,39.64,15.21,59.77c1,4.81,1.4,10.34-2.29,15.07c-8.34,1.95-12.07-4.81-16.17-9.56
			c-13.21-15.27-25.81-31.27-34.58-49.42c-4.05-8.38-8.86-10.68-16.67-9.64c-27.18,3.6-44.79-12.8-50.9-40.6
			c-2.73-12.4-5.77-25.13-12.39-36.49c-6.04-10.38-12.59-14.58-25.19-8.44c-32.84,16.01-60.91,38.78-89.81,60.46
			c-27.67,20.76-54.02,43.66-85.56,58.48c-28.85,13.56-57.74,18.89-85.62-4.37C2130.7,1303.89,2127.15,1319.12,2119.28,1323.95z"/>
		<path d="M1071.15,1926.23c-13.6-16.7-25.42-33.47-41.48-49.02c-6.41,15.33-11.75,28.97-17.84,42.26
			c-2.55,5.56-6.17,10.84-10.2,15.47c-9.8,11.27-22.29,17.18-37.33,14.2c-14.85-2.95-22.84-13.74-26.08-27.67
			c-7.76-33.39,1.88-63.11,21.19-90.14c4.83-6.76,12.25-10.79,21.2-11.23c7.28-0.35,12.04,3.4,14.84,9.21
			c2.89,5.98,0.2,11.09-5.06,14.73c-20.48,14.15-21.05,36.65-23.92,57.98c-0.66,4.87,0.7,11.24,5.86,13.42
			c6.57,2.78,8.6-3.88,11.39-7.91c8.63-12.46,13.83-26.4,17.8-40.95c7.81-28.58,21.66-32.56,44.29-13.38
			c15.95,13.52,26.94,31.28,40.69,46.67c5.13,5.74,9.86,11.77,17.48,16.48c10.21-10.25,6.39-22.47,5.2-33.46
			c-1.55-14.32-5.37-28.37-7.66-42.63c-0.89-5.55-1.26-11.55-0.12-16.98c3.04-14.52,15.78-17.6,33.76-8.14
			c6.48-5.61,5.77-13.38,5.97-20.92c0.8-30.52,2.18-61.06,12.84-90.08c15.21-41.41,45.03-66.47,88.5-73.06
			c22.08-3.34,43.52,3.88,61.58,16.46c14.17,9.87,23.21,6.62,32.82-5.16c13.5-16.54,22.59-35.79,33.74-53.77
			c16.25-26.21,30.49-28.32,54.94-8.75c11.58,9.27,20,21.21,28.28,32.74c21.19,29.53,52.18,50.23,71.26,81.49
			c20.04,32.83,25.09,69.49,27.13,106.69c0.53,9.65-3.28,19.6-16.03,21.42c-13.01,1.86-21.64-2.42-26.96-15.04
			c-6.47-15.36-2.69-31.77-6.65-47.45c-6.69-26.45-16-50.42-36.67-70.08c-23.89-22.71-41.79-50.86-61.87-78.43
			c-11.94,8.66-14.76,21.91-20.97,32.51c-8.5,14.51-18.96,27.09-30.89,38.53c-16.93,16.22-41.28,18.07-61.26,5.33
			c-49.34-31.46-99.94-3.8-104.7,55.37c-2.14,26.61,0.64,53.77-8.05,80c-5.63,17.01-10.5,33.61-28.6,41.51
			c-7.64,3.33-5.8,9.98-6.32,15.98c-1.25,14.29,2.92,28.91-3.3,42.93c-13.51,30.43-36.87,35.07-60.79,11.77
			C1076.58,1932.62,1074.28,1929.79,1071.15,1926.23z"/>
		<path d="M1282.5,973.88c-19.84-10.16-29.15-30.41-49.02-44.05c0,21.45,1.05,39.94-0.21,58.27
			c-3.12,45.51-11.73,89.74-33.52,130.61c-5.22,9.79-12.46,17.87-20.07,25.35c-16.47,16.19-37.42,14.28-52.41-4.35
			c-10.96-13.62-21.04-27.96-32.6-43.44c-2.08,28.05-11.04,52.4-27.66,73.38c-23.4,29.55-63.75,34.49-89.12-0.32
			c-19.3-26.49-25.13-57.39-32.16-87.87c-5.8-25.17-7.62-50.95-7.05-77.01c0.48-21.69,5.48-41.89,13.98-61.44
			c5.61-12.91,16.15-20.74,30.03-21.21c13.24-0.45,23.76,5.96,29.8,18.52c4.23,8.8,8.72,17.47,13.1,26.2
			c17.33-7.31,25.6-6.01,33.62,11.05c18.92,40.28,41.12,78.44,67.2,114.42c4.85,6.69,9.31,13.67,14.34,20.22
			c11.14,14.51,17.89,14.11,27.53-2.06c18.99-31.84,26.32-67.31,28.42-103.52c1.89-32.54,0.29-65.28,0.45-97.93
			c0.13-26.59,17.12-36.9,41.21-25.18c16.51,8.04,29.63,20.62,43.25,32.53c5.38,4.71,9.77,10.76,21.17,14.63
			c1.48-2.42,3.41-6.83,6.44-10.29c18.38-21.01,39.39-24.42,64.43-10.82c1.82,0.99,3.87,1.63,5.49,2.87
			c13.56,10.38,25.83,11.21,37.19-3.62c4.67-6.1,10.64-11.23,16.25-16.57c11.98-11.42,26.38-10.71,36.63,1.62
			c9.29,11.2,7.93,26.89-4.96,35.09c-13.44,8.55-21.05,22.99-33.9,31.49c-24,15.88-48.42,11.26-71.5-2.43
			c-9.07-5.38-14.78-5.5-22.75,2.07C1321.53,973.94,1304.12,980.81,1282.5,973.88z M1048.57,1042.13
			c-5.88-15.39-11.76-30.79-17.64-46.18c-1.46,8.08-1.16,15.31-4.04,22.1c-2.03,4.79-1.78,13.23-9.95,11.05
			c-7.39-1.96-4.83-8.63-3.97-14.4c3.06-20.53-0.22-40.22-10-58.55c-3.61-6.78-7.84-14.35-17.05-13.79
			c-10.15,0.62-11.76,10.47-15.96,17.25c-1.01,1.63-0.66,4.05-1.19,6.04c-15.7,58.28,2.35,112.18,22.02,165.67
			c5.21,14.18,13.21,29.41,30.74,28.74c18.48-0.71,23.66-18.13,29.45-32.33C1062.32,1099.92,1058.36,1072.03,1048.57,1042.13z"/>
		<path d="M2384.9,1893.04c11.51,10.62,11.77,22.76,6.66,34.72c-4.23,9.92-13.41,13.04-24.16,13.28
			c-12.45,0.28-20.35-5.33-25.62-15.97c-7.96-16.07,3.71-34.91,22.7-36.49C2371.27,1888.01,2377.83,1888.85,2384.9,1893.04z"/>
	</g>
</g>
</svg>
