<?xml version="1.0" encoding="utf-8"?>
<!-- Generator: Adobe Adobe Illustrator 24.2.0, SVG Export Plug-In . SVG Version: 6.00 Build 0)  -->
<svg version="1.1" id="Pixel_layer_xA0_Image_1_" xmlns="http://www.w3.org/2000/svg" xmlns:xlink="http://www.w3.org/1999/xlink"
	 x="0px" y="0px" width="3000px" height="3000px" viewBox="0 0 3000 3000" style="enable-background:new 0 0 3000 3000;"
	 xml:space="preserve">
<g>
	<g>
		<path d="M1381.21,682.05c1.15,78.14,5.42,156.27-2.53,234.41c-2.7,26.55-6.71,53.14-6.86,80.1c8.27-19.07,10.29-39.68,15.4-59.47
			c0.37-1.45-0.08-3.12,0.33-4.54c4.2-14.5,6.05-31.3,23.32-36.51c15.47-4.67,25.27,7.39,35.38,16.22
			c8.35,7.3,14.92,16.68,25.2,21.71c34.41,16.88,78.52-5.4,92.43-46.55c11.39-33.69,10.5-68.81,12.33-103.62
			c0.33-6.2-2.42-13.27,4.44-18.83c11.37,5.46,10.7,16.56,10.9,25.88c0.97,44.65,1.31,89.32,1.34,133.99
			c0.01,14.17-1.61,28.35-2.48,42.53c10.93-33.09,8.01-69.18,21.19-102.67c8.82,3.65,8.54,9.55,7.89,16.48
			c-2.01,21.17-4.37,42.38-4.84,63.61c-1.03,46.19,10.71,58.23,57.06,56.36c32.31-1.3,64.26-7.42,95.19-16.85
			c16.07-4.9,28.35-17.23,40.86-28.29c4.15-3.67,7.86-7.85,11.8-11.77c22.54-22.42,42.12-22.5,58.76,4.3
			c16.88,27.2,23.7,27.12,56.99,12.4c29.45-13.02,56.22-31.95,84.97-46.73c48.34-24.86,101.09-31.64,153.56-24.1
			c31.19,4.48,61.44,16.03,93.83,13.51c16.63-1.29,33.33-2.02,49.87-4c17.91-2.14,33.91,1.1,48.51,12.09
			c10.89,8.2,21.7,16.77,34.51,21.87c23.13,9.21,42.85,1.87,59.67-14.38c10.4-10.05,18.66-8.14,26.62,2.06
			c29.07,37.25,63.79,68.97,97.95,101.3c14.68,13.89,29.9,27.7,36.95,48.85c0.33,9.23,0.33,17.47,0.33,27.07
			c-28.3,82.21-79.2,140.31-163.84,164.32c-33.8,9.59-68.84,10.09-103.41,14.21c-34.43,4.1-69.16,0.62-103.22,4.65
			c-52.51,6.22-105.45,9.52-157.13,23.22c-43.81,11.61-88.81,18.74-133.27,27.92c-41.43,8.55-82.84,17.25-124.28,25.73
			c-23.02,4.71-46.11,9.11-69.16,13.64c-0.42-1.43-0.85-2.87-1.27-4.3c16.22-5.18,32.28-10.94,48.68-15.43
			c55.45-15.16,109.82-33.93,164.94-50.02c53.15-15.51,106.1-31.87,160.65-42.86c74.23-14.94,149.09-19.8,224.38-24.33
			c48.08-2.89,97.53-5.17,142.14-26.92c40.44-19.71,73.39-48.64,93.2-90.05c9.42-19.68,5.05-34.17-10.96-48.93
			c-12.33-11.37-25.45-21.56-39.49-30.74c-29.64-19.37-53.11-45.23-74.2-73.27c-5.68-7.55-9.6-10.27-19.57-5.59
			c-39.74,18.67-77.38,15.13-111.73-13.8c-8.77-7.38-19.26-10-31.03-10.22c-30.88-0.58-61.83,3.53-92.66-1.54
			c-4.62-0.76-9.25-1.43-12.9-3.96c-28.89-20.05-60.21-10.77-91.27-8.74c-63.22,4.12-112.37,39.52-163.16,71.51
			c-9.19,5.79-19.2,9.32-29.4,12.08c-18.75,5.08-30-0.18-39.15-17.06c-1.2-2.22-1.99-4.67-3.26-6.84
			c-17.51-29.91-33.3-32.27-56.12-6.34c-31.74,36.07-71.76,48.81-118.31,46.72c-15.13-0.68-30.2-0.23-45.42-1.74
			c-25.48-2.53-43.45-13.99-54.92-37.46c-0.24,9.03-5.56,16.08-7.34,24.31c-1.46,6.71-3.96,14.52-11.38,14.1
			c-8.97-0.5-13.9-8.76-14.6-17.06c-1.11-13.12-0.58-26.4-0.42-39.61c0.25-19.76-1.33-39.59,1.52-59.95
			c-9.45,21.62-25.46,35.89-46.86,44.84c-27.81,11.63-51.52,4.01-72.96-14.53c-6.48-5.6-11.6-12.76-17.63-18.92
			c-14.39-14.71-29.56-11.12-34.76,9c-4.91,18.99-8.2,38.41-12.24,57.84c6.6-0.12,8.5-8.03,15.08-7.06
			c0.49,1.52,1.74,3.32,1.27,4.21c-19.61,37.19-37.27,76.17-79.51,94.07c-13.02,5.51-26.41,7.18-39.31-0.92
			c-5.56-3.49-12.13-6.08-16.4-10.77c-16.92-18.59-34.64-30.61-62.22-22.62c-15.12,4.38-27.25-8.19-39.6-19.69
			c-16.1,28.89-39.19,49.73-66.52,65.61c-16.41,9.54-33.43,20.53-53.84,14.71c-24.19-6.9-32.39-24.97-25.36-49.57
			c8.07-28.24,22.31-53.03,39.66-76.32c2.63-3.53,5.26-7.07,9.94-13.35c-28.44,14.48-47.98,35.33-71.13,51.16
			c-27.99,19.14-54.81,39.99-82.69,59.3c-43.96,30.45-81.76,67.42-116.74,107.59c-7.22,8.29-16.18,14.62-28,7.81
			c-9.33-5.38-18.68-10.94-17.1-24.16c0.84-7.04,0.96-14.24,2.57-21.1c7.83-33.46,16.71-66.69,23.97-100.26
			c11.22-51.87,24.39-103.69,15.02-157.56c-1.12-6.46-2.74-12.9-4.83-19.11c-7.76-23.13-20.49-29.34-42.99-20.45
			c-59.46,23.51-108.46,60.85-151.92,107.99c-42.4,45.99-75.02,97.88-104.96,151.91c-11.98,21.61-21.05,44.83-31.51,67.29
			c-4.04,8.68-6.91,18.05-13.93,25.01c-20.52-4.58-23.43-8.6-17.74-31.02c12.68-49.93,29.96-98.49,45-147.72
			c18.76-61.42,35.85-123.39,36.29-188.29c0.14-20.17-2.84-40.41-11.69-59.13c-9.06-19.15-17.41-22.04-35.62-12.61
			c-14.64,7.58-26.03,18.58-36.67,31.17c-61.22,72.43-102.28,156.69-140.98,242.06c-24.99,55.14-47.08,111.77-63.38,170.18
			c-12.22,43.79-22.92,88.13-29.03,133.36c-0.67,4.98,0.15,10.84-9.03,9.94c-1.26-4.39-1.26-8.63-1.26-14.13
			c7.6-52.86,19.64-103.52,33.55-153.67c13.52-48.74,32.24-95.72,51.11-142.6c25.16-62.5,55.33-122.56,89.94-180.28
			c19.02-31.72,40.74-61.73,66.11-88.86c2.77-2.96,5.82-5.67,8.82-8.41c40.13-36.56,70.33-17.68,86.34,27.42
			c14.46,40.73,8.96,82.97,2.71,124.76c-8.31,55.52-27.43,108.35-40.41,162.78c38.59-70.38,85.31-134.43,146.59-186.46
			c33.26-28.24,70-51.49,113.05-63.34c16.51-4.54,29.48,0.2,42.81,8.57c31,19.47,42.19,48.76,43.2,83.76
			c1.25,43.31-4.61,85.5-13.51,127.95c-7.12,33.98-17.68,67.3-22.09,104.59c55.89-64.67,129.87-102.15,195.3-150.85
			c34.91-25.98,70.93-50.47,106.65-75.34c6.09-4.24,12.3-12.64,21-3.86c8.42,8.5,4.65,16.08-1.41,24.19
			c-23.92,32.02-50.18,62.52-66,99.89c-3.54,8.38-7.4,16.83-9.32,25.64c-3.43,15.73,2.22,20.64,18.05,17.52
			c25.48-5.03,44.4-21.04,63.1-37.46c14.33-12.58,23.99-28.49,32.75-45.2c9.17-17.5,16.89-18.44,25.62-0.48
			c8.34,17.13,17.24,18.74,32.94,11.14c12.05-5.84,23.61-1.89,32.94,8.08c4.83,5.17,10.28,9.75,15.41,14.64
			c23.56,22.47,74.55,15.98,91.01-12.63c6.52-11.34,6.64-25.35,8.4-38.36c12.75-94.29,12.73-189.15,12.34-284.03
			c-0.02-5.04-0.52-10.24,3.36-15.82C1377.48,682.05,1378.84,682.05,1381.21,682.05z"/>
		<path d="M422.02,2034.59c-6.54,45.33-7.56,89.75-9.85,134.07c-1.55,0.09-3.1,0.18-4.65,0.27c-0.77-15.92-2.48-31.85-2.13-47.74
			c1.01-45.09,3.95-90.18,10.63-134.73c5.03-33.55,7.2-67.37,12.54-100.86c5.49-34.41,8.91-69.16,14.61-103.53
			c15.69-94.58,42.82-183.67,123.05-245.95c6.75-5.24,13.87-10.29,21.47-14.11c17.71-8.91,35.52-1.42,43.22,16.84
			c7.41,17.56,8.22,36.07,4.75,53.94c-10.02,51.61-19.66,103.3-37.1,153.26c-9.93,28.45-16.2,58.19-24.79,89.84
			c15.7-15.04,29.66-28.44,43.66-41.8c28.53-27.22,60.89-15.4,81,10.86c5.5,7.18,10.49,15.08,14.03,23.37
			c5.71,13.39,13.18,12.47,23.75,5.83c20.25-12.72,36.84-29.88,55.52-44.49c18.72-14.65,36.32-31.08,58.42-40.54
			c29.52-12.64,59.22-10.08,88.28,2.2c19.19,8.11,37.04,18.79,54.05,30.77c40.45,28.48,84.91,39.99,133.56,29.77
			c22.98-4.83,43.33-16.52,61.37-31.92c4.51-3.85,4.66-8.46,5.09-13.6c1.13-13.21,3.04-26.25,12.32-36.78
			c9.8-11.14,19.84-11.31,31.42-0.47c16.14,15.12,15.75,17.63,3.83,31.7c-7.65,9.02-19.67,14.31-24.22,27.14
			c10.87,6.08,20.87,4.34,30.75-0.21c12.11-5.59,22.49-13.71,31.93-23.01c22.06-21.72,25.91-21.62,46.26,1.77
			c11.9,13.68,27.83,16.92,44.52,9.27c10.63-4.87,20.55-10.86,29.88-17.92c4.41-3.34,9.04-6.42,13.75-9.33
			c6.93-4.28,13.21-3.69,19.18,2.37c7.51,7.62,15.03,15.28,20.26,24.61c14.7,26.2,35.3,34.81,64.88,29.62
			c40.14-7.03,72.89-28.81,106.17-49.92c6.4-4.06,12.88-8.01,19.17-12.23c18.57-12.43,37.79-12.29,57.65-3.46
			c11.52,5.12,23.33,9.59,34.72,14.98c26.75,12.65,53.01,3.69,78.66-2.81c27.86-7.05,54.5-18.39,81.53-28.34
			c16.85-6.2,35.16-1.76,52.82-1.42c3.71,0.07,6.12,3.14,7.7,6.61c2.5,5.5,5.73,10.72,7.72,16.39
			c9.04,25.63,22.87,35.62,49.68,32.81c58.9-6.18,117.88-11.13,177.03-13.83c30.46-1.39,59.28-11.6,89.13-16.29
			c9.93-1.56,19.1,0.98,28.64,1.15c64.8,1.17,120.89-14.43,154.4-76.75c11.86-22.06,7.49-28.8,46.85-19.26
			c1.42,7.05-4.47,9.82-8.63,12.46c-17.71,11.26-29,28.22-39.55,45.33c-20.2,32.77-50.88,50.78-85.17,64.52
			c-25.46,10.2-50.56,11.82-76.66,1.12c-11.74-4.81-25.61-3.77-37.57,0.05c-45.64,14.58-93.55,16.17-140.01,25.89
			c-26.64,5.57-53.13,11.94-80.42,14.2c-36.27,3.01-67.52-3.94-86.94-38.75c-4.06-7.27-5.65-18.45-15.06-19.8
			c-13.82-1.99-28.15-3.95-42.04,1.51c-21.68,8.52-43.56,16.51-65.18,25.17c-32.9,13.18-65.04,12.77-96.84-3.64
			c-8.49-4.38-17.62-7.5-26.46-11.21c-15.08-6.33-28.15-2.68-41.28,6.41c-30.79,21.31-62.73,40.58-98.46,52.97
			c-51.1,17.72-99.54,2.83-130.83-41.86c-5.86-8.37-10.38-5.29-16.3-1.77c-15.82,9.42-32.42,16.04-51.17,17.39
			c-18.49,1.33-34.66-3.55-46.56-17.39c-9.49-11.04-15.95-9.23-25.67-0.43c-14.46,13.1-32,20.76-51.48,24.26
			c-12.28,2.21-23.13,0.58-32.95-6.99c-6.75-5.2-12.82-6.33-20.41-0.65c-60.08,44.9-121.5,42.49-183.67,4.45
			c-17.69-10.83-35.03-22.25-52.98-32.62c-38.08-22.01-74.86-17.32-109.5,7.74c-29.15,21.09-57.23,43.66-86.43,64.68
			c-14.88,10.71-31.24,17.4-49.11,4.69c-5.51-3.92-10.36-7.94-13.04-14.35c-2.54-6.07-5.66-11.89-8.32-17.91
			c-12.33-27.89-29.95-33.05-53.45-13.48c-14.3,11.9-26.06,26.84-39.3,40.07c-6.07,6.06-12.68,11.68-19.58,16.76
			c-7,5.15-14.74,6.35-22.71,1.29c-8.42-5.34-6.39-13.29-4.72-20.5c9.26-39.9,23.1-78.44,35.09-117.54
			c12.72-41.49,25.6-83.06,32.71-125.91c2.96-17.81,1.55-36.51,0.69-54.74c-0.59-12.52-10.36-16.58-21.95-9.64
			c-38.88,23.29-66.43,57.26-88.91,95.85c-27.72,47.6-38.7,100.89-49.68,153.72c-9.05,43.5-12.94,88.06-20.3,131.95
			C431.86,1954.94,425.63,1993.88,422.02,2034.59z"/>
		<path d="M1982.63,2255.05c-3.92,7.06,0.02,20.57-10.46,18.17c-11.43-2.61-3.69-13.51-2.06-20.38c1.79-7.51,1.69-14.95,2.2-22.45
			c0.43-6.29,2.86-11.03,10.25-9.71c7.95,1.41,7.59,7.35,5.33,12.78C1985.14,2240.07,1982.94,2246.62,1982.63,2255.05z"/>
	</g>
</g>
</svg>
