<?xml version="1.0" encoding="utf-8"?>
<!-- Generator: Adobe Adobe Illustrator 24.2.0, SVG Export Plug-In . SVG Version: 6.00 Build 0)  -->
<svg version="1.1" id="Pixel_layer_xA0_Image_1_" xmlns="http://www.w3.org/2000/svg" xmlns:xlink="http://www.w3.org/1999/xlink"
	 x="0px" y="0px" width="3000px" height="3000px" viewBox="0 0 3000 3000" style="enable-background:new 0 0 3000 3000;"
	 xml:space="preserve">
<g>
	<g>
		<path d="M1473.24,805.94c17.88,30.35,37.44,59.09,52.05,90.63c3.15,6.79,6.91,14.17-1.58,19.11c-9.56,5.56-13.42-1.59-17.45-9.18
			c-7.78-14.63-16.48-28.78-26.9-42.5c5.72,23.62,11.41,47.25,17.21,70.86c1.14,4.62,4.8,5.7,9.07,5.73
			c5.17,0.04,10.6-1.07,17.69,3.74c-23.24,16.45-12.93,36.13-6.52,55.16c8.65,25.64,15.69,51.9,28.01,79.23
			c10.64-17.25,20.61-32.04,32.52-45.39c20.56-23.05,48.69-33.33,75.6-45.66c11.06-5.07,22.63-9.03,33.69-14.12
			c11.29-5.2,17.87-14.73,21.87-26.3c4.14-11.97,6.6-25.07,13.2-35.51c8.29-13.09,21.23-22.39,36.44-27.42
			c4.75-1.57,6.56,1.22,8.72,5.25c8.89,16.6,11.14,34.38,9.75,52.67c-3.55,46.53-6.43,44.93,40.96,65.18
			c8.75,3.74,17.5,3.18,26.7-1.19c18.04-8.56,36.7-15.83,55.15-23.53c0.67-0.28,1.77,0.49,3.78,1.12
			c-3.94,14.3-13.52,25.39-21.51,37.04c-15.6,22.75-32.57,44.14-62.55,49.23c-8.45,1.43-16.09,2.2-24.29-0.92
			c-31.2-11.87-51.08-22.51-75.6-68.28c-24.94,14.07-51.59,24.45-78.04,35.24c-25.44,10.39-38.35,32.19-51.28,54.16
			c-8.43,14.32-16.17,29.1-31.46,37.72c-22.03,12.43-38.67,6.56-49.77-19.4c-14.73-34.44-23.51-71-34.46-108.99
			c-14.23,13.2-25,27.34-33.79,42.87c-20.43,36.09-39.09,73.15-66.59,104.88c-19.12,22.07-43.79,33.66-70.41,42.15
			c-56.61,18.04-102.06-6.48-143.93-40.45c-18.92-15.35-35.95-22.82-62.31-17.21c-27.03,5.76-57.14,9.27-83.37-9.8
			c-13.27-9.65-17.83-24.01-24.84-37.21c-1.37-2.58-1.93-5.53-6.27-7.4c-5.13,7.14-5.56,15.61-7.04,24.12
			c-6.59,37.88-10.01,77.26-32.37,109.93c-27.43,40.08-76.21,55.23-117.83,22.26c-12.54-9.93-18.77-22.93-19.32-39.37
			c-2.02-61.35,6.62-122.04,9.99-183.58c-14.74,19.26-29.1,38.64-44.11,57.5c-40.13,50.44-86.74,94.01-138.53,132.34
			c-39.4,29.16-80.45,55.24-125.75,74.16c-17.13,7.15-34.7,13.14-53.76,12.02c-31.01-1.83-42.77-21-28.87-48.48
			c14.68-29.03,36.43-53.17,56.78-78.12c50.12-61.44,104.26-119.34,163.32-172.08c51.96-46.4,108.66-86.29,177.77-104.27
			c15.56-4.05,31.31-3.42,46.58-1.39c10.21,1.36,17.03,11.41,20.35,21.13c2.78,8.14-1.93,14.81-9.15,19.82
			c-8.4,5.83-16.6,5.48-21.79-2.59c-6.32-9.82-14.04-7.8-22.9-6.63c-49.3,6.49-89.83,31.93-127.68,61.39
			c-71.59,55.73-132.8,122-189.84,192.37c-15.7,19.37-30.85,39.09-45.56,59.2c-3.05,4.17-5.81,8.55-9.25,13.63
			c14.78,6.76,25.85-1.51,36.44-5.3c54.32-19.42,101.3-51.72,146.65-86.7c70.86-54.66,123.06-125.26,171.02-199.57
			c2.12-3.28,4.4-6.49,6.92-9.46c4.73-5.56,10.05-13.58,17.77-9.73c7.82,3.9,15.15,10.29,15.79,21.21
			c2.59,43.6-0.17,87.03-4.19,130.38c-3.22,34.77-1.45,69.56-1.49,104.34c-0.01,7.07,3.99,11.58,11.23,13.43
			c11.24,2.88,22.53,2.27,33.34-0.57c15.71-4.13,17.24-19.48,20.1-31.65c8.04-34.17,13.68-68.89,21.44-103.13
			c4.36-19.27,13.2-36.36,29.25-49.48c11.39-9.32,20.14-5.99,30.07,1.52c17.02,12.88,26.08,31.55,35.37,49.63
			c5.38,10.47,11.84,14.7,22.9,13.73c18.91-1.66,37.71-2.78,56.28-8.15c15.89-4.59,31.13-0.73,45.91,8.55
			c21.08,13.24,38.74,31.1,61.43,42.24c34.49,16.93,68.93,16.06,103.23,2.1c16.75-6.82,26.64-22.45,35.94-37.56
			c19.44-31.58,36.86-64.35,60.8-93.13c12.41-14.92,27.55-26.05,42.22-36.82c-4.87-34.95-16.56-67.22-19.54-101.56
			c-1.77-20.46-0.23-36.74,19.22-48.58C1465.8,805.94,1468.93,805.94,1473.24,805.94z"/>
		<path d="M2696.94,1331.64c-14.89,70.6-34.76,138.4-63.9,202.96c-37.47,83.01-81.69,162.28-141.24,231.78
			c-16.99,19.83-34.65,39.74-60.65,49.43c-29.26,10.91-50.89-0.22-58.71-30.34c-15.08-58.05-23.04-117.68-38.62-175.54
			c-11.37-42.24-19.91-85.56-39.95-125.06c-2.57-5.07-0.77-8.44,2.53-11.7c3.42-3.37,7.04-6.54,10.67-9.68
			c14.19-12.28,22.93-9.65,30.05,8.18c22.88,57.22,36.45,117.01,49.98,176.9c7.73,34.21,17.83,67.9,27.6,101.61
			c4.08,14.08,8.91,15.03,18.75,4.35c37.24-40.41,67.49-85.81,94.58-133.51c36.74-64.71,66.01-132.63,86.9-204
			c8.88-30.34,14.67-61.56,22.46-92.23c6.56-25.83,22.18-46,41.2-65.12c11.05,10.73,14.89,23.09,18.01,36.99
			C2696.94,1308.54,2696.94,1319.41,2696.94,1331.64z"/>
		<path d="M345.94,1790.65c15.89-18.37,31.59-35.67,47.71-52.56c33.04-34.63,69.01-66.07,105.71-96.7
			c57.01-47.59,116.6-91.72,179.27-131.53c51.06-32.43,103.54-62.4,157.93-89c22.31-10.91,44.59-21.74,68.06-29.9
			c5.49-1.91,11.22-3.27,16.94-4.32c7.19-1.32,13.68,1.3,14.34,8.77c0.6,6.73-4.68,13.31-11.39,12.94
			c-30.85-1.68-54.33,17.08-79.8,28.96c-75.29,35.12-146.12,78.43-213.57,126.79c-84.76,60.76-164.89,127.16-234.16,205.79
			c-1.59,1.8-2.92,3.83-5.93,7.82c32.28-12.35,60.39-27.68,88.45-43.07c70.6-38.71,142.17-75.03,217.72-103.69
			c42.51-16.12,85.64-29.44,129.4-40.73c24.35-6.28,48.95-12.2,74.36-14.83c26.9-2.78,47.43,19.94,34.09,46.55
			c-20.46,40.81-51.25,72.07-83.14,103.01c-41.37,40.14-86.67,76.13-124.33,121.15c11.58-6.65,23.24-13.16,34.71-19.98
			c30.62-18.21,61.13-36.6,91.74-54.81c7.6-4.52,15.93-5.72,23.63-0.97c14.32,8.82,14.15,23.12-1.16,32.51
			c-47.36,29.03-93.59,60-143.38,84.97c-14.44,7.24-28.67,14.78-45.03,16.12c-11.72,0.96-23.64-1.51-29.78-11.86
			c-5.72-9.66-0.84-19.66,5.82-28.41c25.11-33.01,56.66-59.55,87.81-86.22c45.7-39.12,92.87-76.54,133.38-121.34
			c9.52-10.53,18.12-21.72,21.91-35.92c3.96-14.83-0.04-19.79-14.58-17.17c-97.83,17.61-191.91,46.77-281.91,89.5
			c-62.19,29.53-121.55,64.14-181.9,97.01c-19.81,10.79-39.41,23.85-63.46,24.52c-6.66,0.19-12.62-1.04-18.58-6.27
			C345.94,1802.01,345.94,1796.96,345.94,1790.65z"/>
		<path d="M2401.35,2183.94c-20.41-6.5-29.12-24.94-22.05-43.98c1.65-4.45,5.18-8.19,9.13-8.84c14.52-2.39,28.26-9.39,43.62-7.03
			c11.18,1.72,14.64,5.65,10.47,17.73c-4.63,13.36-3.63,28.99-18.34,37.24c-2.49,1.39-5.08,2.59-8.49,4.38
			C2410.74,2183.94,2406.66,2183.94,2401.35,2183.94z"/>
		<path d="M2211.3,1768.38c-28.3,17.13-58.95,25.29-89.98,26.96c-70.03,3.77-139.78,1.82-204.49-31.41
			c-12.52-6.43-27.11-7.78-39.21-15.83c-5.74-3.82-11.65-7.39-15.77-12.82c-8.07-10.64-15.14-19.01-31.1-10.95
			c-9.13,4.61-15.78-4.6-19.17-13.52c-4.09-10.78-1.71-22.29-3.67-35.88c-9.12,21.9-13.69,42.36-15.19,63.7
			c-1.15,16.37-6.05,31.4-17.51,43.89c-10.56,11.51-22.27,15.19-31.73,9.14c-15.43-9.87-18.63-20.74-12.8-37.25
			c11.05-31.29,27.22-60.56,35.93-92.74c0.73-2.71,2.58-5.45-0.51-9.7c-20.19,6.79-38.93,15.39-48.57,37.03
			c-16.17,36.3-24.51,74.87-33.82,113.23c-8.16,33.63-11.38,68.35-22.56,101.28c-4.05,11.93-17.3,21.76-26.99,20.42
			c-11.28-1.56-19.66-13.68-19.69-28.71c-0.05-24.53-0.3-49.06,0.07-73.58c0.36-23.76-4.97-46.4-10.79-69.22
			c-3.62-14.19-9.69-16.06-21.69-10.18c-28.34,13.9-56.56,11.95-84.79-1.06c-8.24-3.8-15.3-9.13-21.03-15.54
			c-6.41-7.18-13.45-8.05-20.98-4.83c-16.03,6.85-31.62,5.87-46.71-1.69c-8.41-4.22-14.17-3.22-20.08,4.15
			c-16.96,21.15-40.13,31.82-65.74,38.6c-26.35,6.98-61.95-5.04-79.11-26.4c-11.45-14.26-27.37-25.15-29.99-45.48
			c-0.82-6.32-2.12-12.58-1.76-18.93c2.03-35.42-3.11-70.42-6.29-105.51c-0.69-7.56-4.13-14.87-6.71-23.68
			c-12.53,18.89-9.75,38.91-7.79,57.67c2.62,25.15,9.6,49.81,13.29,74.89c5.52,37.53,15.16,74.86,3.88,113.29
			c-4.76,16.23-20.57,34.57-36.1,36.77c-10.46,1.48-27.38-11.05-34.55-26.03c-14.73-30.8-27.18-62.74-45.34-91.82
			c-5.05-8.09-9.76-16.8-21.06-23.03c-1.26,16.08-2.81,30.4-7.27,44.16c-5.72,17.64-21.84,23.34-35.19,12.58
			c-4.67-3.76-4.84-8.07-4.98-12.93c-2.88-101.93-7.31-203.82-6.1-305.83c0.12-10.34,2.92-17.77,11.86-23.16
			c9.94-6,15.6-3.78,16.61,7.85c1.23,14.14,2.04,28.34,2.46,42.53c1.35,46.05,5.3,92.03,3.61,138.16
			c-0.59,16.15,2.28,31.93,3.84,49.33c22.85-12.78,37.4-1.03,51.48,14.44c24.29,26.71,41.51,57.62,55.76,90.45
			c1.54,3.55,3.34,7.01,5.22,10.4c0.85,1.53,1.3,3.86,5.22,3.23c-2.65-28.93-5.16-57.82-9.39-86.81
			c-5.17-35.41-15.09-71.39-2.49-107.45c6.12-17.52,12.48-35.03,26.26-48.31c15.03-14.48,28.71-12.61,39.24,6
			c12.24,21.64,16.19,45.88,18.59,70.16c1.2,12.22,2.86,24.19,6.09,37.08c9.81-13.26,18.49-26.61,34.15-30.96
			c22.23,14.99,11.64,35.16,8.23,52.61c-3.34,17.06-6.04,34.69-13.43,50.82c-3.72,8.12,2.41,11.01,7.52,13.12
			c20.3,8.4,55.43,6.98,71.85-19.11c8.5-13.51,17.31-27.16,30.8-36.87c10.63-7.65,18.25-6.33,25.45,4.84
			c9.67,15.01,24.88,18.32,40.54,9.78c2.99-1.63,5.67-3.8,8.55-5.64c16.97-10.88,18.76-10.54,30.21,6.12
			c20.57,29.95,53.6,36.97,88.68,26.18c28.46-8.76,33.04-9.28,47.45,16.94c4.76,8.66,11.63,16.64,12.01,30.61
			c7.55-21.24,12.36-39.45,19.46-56.98c19.67-48.56,56.29-77.51,105.24-91.47c13.2-3.77,28.41-5.49,41,12.67
			c1.71-24.25,3.77-44.29,4.39-64.38c1.11-36.28,4.5-72.11,14.77-107.12c2.95-10.07,9.22-16.91,17.23-22.77
			c3.5-2.56,7.6-2.95,11.07-0.77c3.85,2.42,4.06,7.27,2.49,10.67c-17.24,37.51-14.55,78.3-19.36,117.8
			c-5.52,45.36-3.14,91-3.53,137.58c4.89-3.01,8.73-5.48,12.67-7.78c7.84-4.57,12.82-3.19,17.4,5.62c7.38,14.2,14.68,29,30.4,36.47
			c3.97,1.89,8.19,5.43,12.33,3.9c24.43-9.03,43.2,8.15,63.71,14.66c26.92,8.54,54.31,11.52,81.8,14.67
			c39.4,4.51,78.86,6.4,118.25-1.98c11.52-2.45,12.25-6.04,7.53-15.7c-6.3-12.9-15.97-24.66-14.02-40.81
			c1.94-16.07,29.48-39.02,45.38-37.04c5.75,0.71,6.76,5.19,8.12,9.18c4.4,12.89,9.09,25.76,13.1,38.7
			C2241.83,1726.11,2228.95,1747.82,2211.3,1768.38z"/>
		<path d="M2056.93,989.19c15.41-13.69,20.12-32.09,27.13-49.19c8.03-19.59,33.71-34.75,54.18-32.19
			c10.8,1.35,17.69,9.27,23.51,16.29c26.34,31.82,62.52,52.85,89.5,83.99c22.74,26.25,41.24,55.27,62.92,85.64
			c-79.98-15.44-141.32-55.34-190.45-121.31c-9.23,21.33-20.62,34.9-35.87,45.12c-26.3,17.63-55.71,25.61-86.76,27.61
			c-14.21,0.92-26.82-5.21-36.54-15.63c-6.79-7.28-10.09-16.52-2.79-25.11c8.34-9.81,19.63-9.6,29.2-1.25
			c11.16,9.73,24.44,5.99,36.22,3.24C2037.82,1003.93,2048.37,998.7,2056.93,989.19z"/>
	</g>
</g>
</svg>
