<svg width="53" height="61" viewBox="0 0 53 61" fill="none" xmlns="http://www.w3.org/2000/svg">
    <path d="M6.62533 20.3333H46.3753C46.961 20.3333 47.5227 20.0656 47.9369 19.5889C48.351 19.1122 48.5837 18.4658 48.5837 17.7917C48.5837 17.1176 48.351 16.4711 47.9369 15.9944C47.5227 15.5178 46.961 15.25 46.3753 15.25H6.62533C6.03964 15.25 5.47794 15.5178 5.0638 15.9944C4.64966 16.4711 4.41699 17.1176 4.41699 17.7917C4.41699 18.4658 4.64966 19.1122 5.0638 19.5889C5.47794 20.0656 6.03964 20.3333 6.62533 20.3333ZM46.3753 40.6667H6.62533C6.03964 40.6667 5.47794 40.9344 5.0638 41.4111C4.64966 41.8878 4.41699 42.5342 4.41699 43.2083C4.41699 43.8824 4.64966 44.5289 5.0638 45.0056C5.47794 45.4822 6.03964 45.75 6.62533 45.75H46.3753C46.961 45.75 47.5227 45.4822 47.9369 45.0056C48.351 44.5289 48.5837 43.8824 48.5837 43.2083C48.5837 42.5342 48.351 41.8878 47.9369 41.4111C47.5227 40.9344 46.961 40.6667 46.3753 40.6667ZM46.3753 27.9583H6.62533C6.03964 27.9583 5.47794 28.2261 5.0638 28.7028C4.64966 29.1794 4.41699 29.8259 4.41699 30.5C4.41699 31.1741 4.64966 31.8206 5.0638 32.2972C5.47794 32.7739 6.03964 33.0417 6.62533 33.0417H46.3753C46.961 33.0417 47.5227 32.7739 47.9369 32.2972C48.351 31.8206 48.5837 31.1741 48.5837 30.5C48.5837 29.8259 48.351 29.1794 47.9369 28.7028C47.5227 28.2261 46.961 27.9583 46.3753 27.9583Z"
          fill="white"/>
</svg>
